<?xml version="1.0" encoding="utf-8"?>
<!-- Generator: Adobe Illustrator 27.5.0, SVG Export Plug-In . SVG Version: 6.00 Build 0)  -->
<svg version="1.1" id="illustration" xmlns="http://www.w3.org/2000/svg" xmlns:xlink="http://www.w3.org/1999/xlink" x="0px"
	 y="0px" viewBox="0 0 590 450" style="enable-background:new 0 0 590 450;" xml:space="preserve">
<g>
	<g>
		<rect style="fill:#FFFFFF;" width="590" height="450"/>
	</g>
	<g>
		<g>
			<path style="fill:#422D51;" d="M410.575,64.604c-59.578-0.131-101.233-0.252-130.433-0.336
				c-68.383-0.199-68.383-0.199-70.291,0.319l-0.262-0.965c2.037-0.552,2.038-0.552,70.556-0.354
				c29.199,0.084,70.854,0.205,130.432,0.336L410.575,64.604z"/>
		</g>
		<g>
			<g>
				<g>
					<g>
						<g>
							<path style="fill:#DFCBEF;" d="M553.644,430.795H48.095c-0.305,0-0.552-0.247-0.552-0.552c0-0.305,0.247-0.552,0.552-0.552
								h505.549c0.305,0,0.552,0.247,0.552,0.552C554.195,430.548,553.949,430.795,553.644,430.795z"/>
						</g>
					</g>
					<g>
						<g>
							<path style="fill:#FFD9D9;" d="M510.559,176.38c0,8.939-29.908,6.048-29.908,6.048l0.916-22.69l16.466-8.277l-4.911-28.992
								l-0.188-1.092l-1.115-6.566l9.061-7.913c0,0,1.633,5.474,3.675,12.338c0.099,0.353,0.21,0.717,0.309,1.07
								c2.461,8.332,5.386,18.342,6.688,23.242C516.066,160.642,510.559,167.694,510.559,176.38z"/>
						</g>
					</g>
					<g>
						<g>
							<g>
								<path style="fill:#CE9191;" d="M504.864,120.305c-4.458,1.358-8.983,1.953-11.742,2.163c-0.971,0.077-1.722,0.11-2.174,0.11
									c-0.309,0-0.552-0.243-0.552-0.552c0-0.298,0.243-0.552,0.552-0.552c0.397,0,1.082-0.033,1.987-0.099
									c2.66-0.21,7.195-0.806,11.621-2.141C504.655,119.588,504.765,119.952,504.864,120.305z"/>
							</g>
						</g>
					</g>
					<g>
						<g>
							<path style="fill:#8962A0;" d="M485.761,402.719c0,0-0.155,9.28-4.008,15.971c-3.853,6.691-10.243,11.246-8.036,11.102
								c-1.333,0,20.071,0.695,20.727,0c8.613-9.13,7.197-25.423,7.197-25.423L485.761,402.719z"/>
						</g>
					</g>
					<g>
						<g>
							<polygon style="fill:#B185C6;" points="501.573,404.84 501.143,412.267 501.143,412.422 501.076,413.426 500.127,430.08 
								493.881,430.08 491.795,413.823 491.652,412.698 491.652,412.687 490.78,405.933 							"/>
						</g>
					</g>
					<g>
						<g>
							<path style="fill:#B185C6;" d="M466.745,414.767l0.044,0.427l0.032-0.11c0,0,0.065,0.19,0.065,0.201l0.012,0.995
								l-1.281,13.514h-5.386l-0.938-6.279c0,0,0,0-0.011-0.011l-0.21-1.446l-0.011-0.022l-0.839-5.617l7.758-1.501L466.745,414.767
								z"/>
						</g>
					</g>
					<g>
						<g>
							<path style="fill:#966C6C;" d="M437.883,357.354c-1.605,1.738-1.981,7.653,4.113,11.638
								c6.284,4.109,25.669,6.511,30.165,6.96c18.784,1.878,36.324-5.058,38.393-7.197c0.965-0.997,0-2.974,0-2.974l-48.529-7.855
								C462.025,357.926,442.08,352.81,437.883,357.354z"/>
						</g>
					</g>
					<g>
						<g>
							<polygon style="fill:#FFBD9C;" points="463.792,365.136 463.792,392.727 450.776,393.647 448.279,366.792 							"/>
						</g>
					</g>
					<g>
						<g>
							<polygon style="fill:#FFBD9C;" points="502.37,365.394 501.893,395.357 490.489,396.506 486.704,365.136 							"/>
						</g>
					</g>
					<g>
						<g>
							<path style="fill:#B185C6;" d="M466.925,414.752c0,0.121-0.436,1.764-0.954,2.283l-0.011,0.011
								c-0.353,0.375-0.784,0.717-1.247,1.048c-0.022,0.011-0.044,0.033-0.066,0.044c-0.695,0.486-1.457,0.927-2.185,1.346
								c-0.949,0.563-1.832,1.093-2.395,1.655c-0.243,0.243-0.574,0.552-0.993,0.916c-0.033,0.022-0.066,0.055-0.099,0.077
								c-0.011,0.011-0.022,0.022-0.022,0.022c-0.441,0.375-0.971,0.794-1.589,1.247c-3.245,2.362-8.833,7.42-17.525,7.118
								c-8.004-0.278-13.729-0.278-18.695-0.298c-0.933-0.004-0.993-1.622-0.066-1.689c9.91-0.739,16.94-7.946,21.653-15.616
								c0.563-0.916,1.093-1.843,1.589-2.759c0.397-0.739,0.784-1.479,1.137-2.207c0.464-0.938,0.894-1.865,1.291-2.759
								c0.309-0.695,0.596-1.368,0.861-2.02c0.397-0.971,0.75-1.898,1.071-2.759c1.446-3.995,2.097-6.765,2.097-6.765l13.023-0.927
								c0,0,3.002,13.983,3.233,21.145C467.052,414.166,466.925,414.487,466.925,414.752z"/>
						</g>
					</g>
					<g>
						<g>
							<path style="fill:#FFD9D9;" d="M510.559,365.78c0,0-3.785,0.574-9.37,1.302c-0.408,0.055-0.839,0.11-1.269,0.165
								c-5.474,0.695-12.393,1.512-19.137,2.097c-0.364,0.033-0.728,0.055-1.082,0.088c-7.218,0.596-14.115,0.905-18.64,0.497
								c-2.56-0.232-5.043-0.541-7.394-0.938c-0.353-0.055-0.706-0.11-1.059-0.177c-8.972-1.611-15.616-4.437-15.649-8.41
								c-0.044-5.154,7.681-7.184,8.045-18.386c0.375-11.191-7.692-120.436-3.476-125.59c1.523-1.854,6.445-3.62,12.294-4.757
								c10.219-1.998,23.275-2.086,25.946,2.538c0.033,0.055,0.066,0.121,0.099,0.188c0,0,0.177,0.265,0.486,0.795
								c2.373,4.039,12.691,23.849,14.314,64.506C496.51,325.675,510.559,365.78,510.559,365.78z"/>
						</g>
					</g>
					<g>
						<g>
							<polygon style="fill:#FFD9D9;" points="486.707,172.002 479.898,214.182 479.865,214.402 478.408,214.513 459.702,215.903 
								453.39,216.378 452.628,216.433 452.672,216.268 452.937,215.197 453.82,211.676 466.026,162.897 479.865,154.62 							"/>
						</g>
					</g>
					<g>
						<g>
							<g>
								<path style="fill:#CE9191;" d="M480.351,215.197c-6.103,1.468-11.875,1.909-16.62,1.909c-4.657,0-8.321-0.419-10.341-0.728
									c-0.276-0.044-0.508-0.077-0.717-0.11c-0.64-0.11-0.993-0.177-1.015-0.188l0.232-1.081c0.022,0.011,0.386,0.088,1.048,0.199
									c1.269,0.21,3.631,0.541,6.765,0.706c4.834,0.254,11.477,0.143,18.706-1.391c0.452-0.088,0.905-0.199,1.357-0.298
									c0.044-0.011,0.088-0.022,0.132-0.033C479.898,214.182,480.042,214.667,480.351,215.197z"/>
							</g>
						</g>
					</g>
					<g>
						<g>
							<g>
								<rect x="209.72" y="60.459" style="fill:#F6EBFF;" width="200.856" height="354.153"/>
							</g>
						</g>
						<g>
							<g>
								<g>
									<g>
										<path style="fill:#694582;" d="M410.576,73.533H209.72V42.638c0-2.543,2.062-4.605,4.605-4.605h191.647
											c2.543,0,4.605,2.062,4.605,4.605V73.533z"/>
									</g>
								</g>
								<g>
									<g>
										<path style="fill:#3E2554;" d="M335.874,56.729h-49.642c-1.082,0-1.959-0.877-1.959-1.959l0,0
											c0-1.082,0.877-1.959,1.959-1.959h49.642c1.082,0,1.959,0.877,1.959,1.959l0,0
											C337.833,55.852,336.956,56.729,335.874,56.729z"/>
									</g>
								</g>
							</g>
							<g>
								<g>
									<g>
										<path style="fill:#694582;" d="M404.521,430.534H215.775c-3.344,0-6.055-2.711-6.055-6.055v-37.537h200.856v37.537
											C410.576,427.823,407.865,430.534,404.521,430.534z"/>
									</g>
								</g>
							</g>
						</g>
					</g>
					<g>
						<g>
							<g>
								<path style="fill:#694582;" d="M397.388,140.606h-35.017c-0.305,0-0.552-0.247-0.552-0.552c0-0.305,0.247-0.552,0.552-0.552
									h35.017c0.305,0,0.552,0.247,0.552,0.552C397.94,140.359,397.693,140.606,397.388,140.606z"/>
							</g>
						</g>
						<g>
							<g>
								<path style="fill:#694582;" d="M397.388,145.256h-35.017c-0.305,0-0.552-0.247-0.552-0.552c0-0.305,0.247-0.552,0.552-0.552
									h35.017c0.305,0,0.552,0.247,0.552,0.552C397.94,145.009,397.693,145.256,397.388,145.256z"/>
							</g>
						</g>
						<g>
							<g>
								<path style="fill:#694582;" d="M391.306,149.906h-22.853c-0.305,0-0.552-0.247-0.552-0.552c0-0.305,0.247-0.552,0.552-0.552
									h22.853c0.305,0,0.552,0.247,0.552,0.552C391.858,149.659,391.611,149.906,391.306,149.906z"/>
							</g>
						</g>
					</g>
					<g>
						<g>
							<g>
								<path style="fill:#694582;" d="M254.451,307.692h-28.703c-0.305,0-0.552-0.247-0.552-0.552s0.247-0.552,0.552-0.552h28.703
									c0.305,0,0.552,0.247,0.552,0.552S254.756,307.692,254.451,307.692z"/>
							</g>
						</g>
						<g>
							<g>
								<path style="fill:#694582;" d="M251.036,312.097h-21.874c-0.305,0-0.552-0.247-0.552-0.552s0.247-0.552,0.552-0.552h21.874
									c0.305,0,0.552,0.247,0.552,0.552S251.341,312.097,251.036,312.097z"/>
							</g>
						</g>
						<g>
							<g>
								<path style="fill:#694582;" d="M256.837,303.288h-33.476c-0.305,0-0.552-0.247-0.552-0.552c0-0.305,0.247-0.552,0.552-0.552
									h33.476c0.305,0,0.552,0.247,0.552,0.552C257.389,303.041,257.142,303.288,256.837,303.288z"/>
							</g>
						</g>
					</g>
					<g>
						<g>
							<g>
								<g>
									<path style="fill:#694582;" d="M301.916,307.692h-26.344c-0.305,0-0.552-0.247-0.552-0.552s0.247-0.552,0.552-0.552h26.344
										c0.305,0,0.552,0.247,0.552,0.552S302.221,307.692,301.916,307.692z"/>
								</g>
							</g>
							<g>
								<g>
									<path style="fill:#694582;" d="M304.607,312.097h-31.726c-0.305,0-0.552-0.247-0.552-0.552s0.247-0.552,0.552-0.552h31.726
										c0.305,0,0.552,0.247,0.552,0.552S304.913,312.097,304.607,312.097z"/>
								</g>
							</g>
							<g>
								<g>
									<path style="fill:#694582;" d="M304.607,303.288h-31.726c-0.305,0-0.552-0.247-0.552-0.552
										c0-0.305,0.247-0.552,0.552-0.552h31.726c0.305,0,0.552,0.247,0.552,0.552
										C305.159,303.041,304.913,303.288,304.607,303.288z"/>
								</g>
							</g>
						</g>
						<g>
							<g>
								<g>
									<path style="fill:#694582;" d="M346.659,307.692h-27.448c-0.305,0-0.552-0.247-0.552-0.552s0.247-0.552,0.552-0.552h27.448
										c0.305,0,0.552,0.247,0.552,0.552S346.964,307.692,346.659,307.692z"/>
								</g>
							</g>
							<g>
								<g>
									<path style="fill:#694582;" d="M348.798,312.097h-31.727c-0.305,0-0.552-0.247-0.552-0.552s0.247-0.552,0.552-0.552h31.727
										c0.305,0,0.552,0.247,0.552,0.552S349.103,312.097,348.798,312.097z"/>
								</g>
							</g>
							<g>
								<g>
									<path style="fill:#694582;" d="M348.798,303.288h-31.727c-0.305,0-0.552-0.247-0.552-0.552
										c0-0.305,0.247-0.552,0.552-0.552h31.727c0.305,0,0.552,0.247,0.552,0.552C349.35,303.041,349.103,303.288,348.798,303.288
										z"/>
								</g>
							</g>
						</g>
					</g>
					<g>
						<g>
							<g>
								<g>
									<path style="fill:#694582;" d="M322.887,370.388h-27.95c-0.305,0-0.552-0.247-0.552-0.552s0.247-0.552,0.552-0.552h27.95
										c0.305,0,0.552,0.247,0.552,0.552S323.192,370.388,322.887,370.388z"/>
								</g>
							</g>
							<g>
								<g>
									<path style="fill:#694582;" d="M325.192,374.792h-32.14c-0.305,0-0.552-0.247-0.552-0.552c0-0.305,0.247-0.552,0.552-0.552
										h32.14c0.305,0,0.552,0.247,0.552,0.552C325.744,374.546,325.497,374.792,325.192,374.792z"/>
								</g>
							</g>
							<g>
								<g>
									<path style="fill:#694582;" d="M325.192,365.983h-32.14c-0.305,0-0.552-0.247-0.552-0.552s0.247-0.552,0.552-0.552h32.14
										c0.305,0,0.552,0.247,0.552,0.552S325.497,365.983,325.192,365.983z"/>
								</g>
							</g>
						</g>
					</g>
					<g>
						<g>
							<g>
								<path style="fill:#F7BFBF;" d="M349.701,253.534c-0.077-0.662-0.177-1.324-0.276-1.997
									c-1.368-9.149-3.962-18.75-8.652-27.094c-1.987-3.521-3.631-6.489-4.999-8.994c-0.287-0.519-0.552-1.015-0.817-1.49
									c-6.39-11.809-6.07-12.824-6.743-18.618c-0.265-2.296,1.026-8.409,2.638-16.124c0.077-0.408,0.155-0.817,0.243-1.225
									l0.143-0.143l22.227-23.209l-20.284-25.25c0,0-3.156,2.847-8.608,5.33c-0.331,0.154-0.684,0.309-1.037,0.452
									c-3.631,1.534-8.178,2.847-13.387,3.101c-6.114-0.298-11.301-2.053-15.208-3.918c-0.353-0.166-0.684-0.331-1.015-0.497
									c-4.348-2.24-6.82-4.469-6.82-4.469l-20.273,25.25l21.587,22.536l0.772,0.806c0.066,0.298,0.121,0.585,0.188,0.872
									c1.633,7.891,2.969,14.148,2.693,16.488c-0.662,5.739-0.353,6.798-6.566,18.309c-0.265,0.485-0.541,1.004-0.839,1.534
									c0,0,0,0,0,0.011c-1.402,2.56-3.09,5.606-5.143,9.248c-4.006,7.129-6.489,15.175-7.968,23.076
									c-0.143,0.717-0.276,1.435-0.386,2.152c-3.278,19.556-0.75,37.589-0.75,37.589h79.459c0,0,2.207-15.715-0.177-33.715
									V253.534z"/>
							</g>
						</g>
						<g>
							<g>
								<g>
									<g>
										<path style="fill:#CE9191;" d="M310.501,255.322c-0.055,0.099-0.121,0.166-0.21,0.221
											c-0.044,0.022-0.088,0.044-0.143,0.055c-0.044,0.011-0.099,0.022-0.143,0.022c-0.044,0-0.099-0.011-0.143-0.022
											c-0.055-0.011-0.099-0.033-0.143-0.055c-16.984-8.619-23.109-30.437-25.052-40.348c0-0.011,0-0.011,0-0.011
											c0.298-0.53,0.574-1.049,0.839-1.534c1.589,8.917,7.284,31.916,24.511,40.789c0.077,0.044,0.166,0.088,0.243,0.132
											C310.523,254.715,310.634,255.046,310.501,255.322z"/>
									</g>
								</g>
							</g>
							<g>
								<g>
									<g>
										<path style="fill:#CE9191;" d="M335.774,215.449c-2.152,10.032-8.641,31.563-25.482,40.094
											c-0.011,0.011-0.022,0.011-0.033,0.022c-0.033,0.011-0.077,0.033-0.11,0.033c-0.044,0.011-0.099,0.022-0.143,0.022
											c-0.099,0-0.199-0.022-0.287-0.077c-0.088-0.055-0.155-0.121-0.199-0.221c-0.143-0.276-0.033-0.607,0.243-0.75
											c0.088-0.044,0.165-0.088,0.254-0.132c17.018-8.785,23.121-31.342,24.941-40.48
											C335.222,214.433,335.487,214.93,335.774,215.449z"/>
									</g>
								</g>
							</g>
						</g>
						<g>
							<g>
								<g>
									<g>
										<path style="fill:#CE9191;" d="M311.461,286.708c-0.055,0.188-0.199,0.32-0.364,0.364
											c-0.055,0.022-0.11,0.033-0.165,0.033s-0.11-0.011-0.166-0.033c-25.052-7.791-35.536-26.586-39.597-37.401
											c0.11-0.717,0.243-1.435,0.386-2.152c3.465,10.142,13.431,30.305,39.377,38.45c0.055,0.022,0.11,0.033,0.165,0.055
											C311.384,286.112,311.55,286.421,311.461,286.708z"/>
									</g>
								</g>
							</g>
							<g>
								<g>
									<g>
										<path style="fill:#CE9191;" d="M349.701,253.534v0.011c-5.22,10.959-16.289,26.542-38.483,33.483
											c-0.044,0.022-0.077,0.033-0.121,0.044c-0.055,0.022-0.11,0.033-0.165,0.033s-0.11-0.011-0.166-0.033
											c-0.166-0.044-0.309-0.177-0.364-0.364c-0.088-0.287,0.077-0.596,0.364-0.684c0.055-0.022,0.11-0.033,0.166-0.055
											c22.856-7.173,33.693-23.672,38.494-34.432C349.525,252.21,349.624,252.872,349.701,253.534z"/>
									</g>
								</g>
							</g>
						</g>
						<g>
							<g>
								<g>
									<path style="fill:#CE9191;" d="M289.632,177.452c0.132,0.441,0.022,0.916-0.254,1.402c-0.066-0.287-0.96-1.678-0.96-1.678
										c-3.399-13.122,3.134-35.834,5.507-43.316c0.331,0.166,0.662,0.331,1.015,0.497
										C292.546,142.037,286.034,164.992,289.632,177.452z"/>
								</g>
							</g>
						</g>
						<g>
							<g>
								<g>
									<path style="fill:#CE9191;" d="M331.205,177.562c-0.022,0.088-0.011,0.188,0.033,0.287c0,0-0.309,0.96-0.386,1.368
										c-0.574-0.64-0.883-1.269-0.717-1.92c3.002-12.184-3.73-33.826-6.6-42.125c0.353-0.143,0.706-0.298,1.037-0.452
										C327.475,143.052,334.328,164.881,331.205,177.562z"/>
								</g>
							</g>
						</g>
					</g>
					<g>
						<g>
							<g>
								<rect x="305.813" y="106.668" style="fill:#FCA054;" width="7.242" height="1.092"/>
							</g>
						</g>
						<g>
							<g>
								<path style="fill:#383838;" d="M308.166,103.3v3.595c0,2.587-3.152,4.688-7.034,4.688h-2.742
									c-0.948,0-1.845-0.128-2.678-0.35c-0.192-0.06-0.384-0.119-0.577-0.188c-1.038-0.359-1.922-0.888-2.575-1.528
									c-0.128-0.137-0.256-0.273-0.372-0.41c-0.525-0.666-0.833-1.417-0.833-2.212v-2.864c0-0.404,0.363-0.731,0.81-0.731H308.166
									z"/>
							</g>
						</g>
						<g>
							<g>
								<path style="fill:#383838;" d="M327.088,103.3c0.456,0,0.825,0.347,0.825,0.775v2.794c0,2.604-3.11,4.714-6.95,4.714h-2.77
									c-0.793,0-1.549-0.085-2.254-0.256c-0.201-0.043-0.403-0.094-0.592-0.162c-1.045-0.308-1.951-0.794-2.657-1.409
									c-0.139-0.12-0.264-0.248-0.39-0.384c-0.68-0.726-1.07-1.58-1.07-2.502V103.3H327.088z"/>
							</g>
						</g>
						<g>
							<g>
								<path style="fill:#FCA054;" d="M327.172,104.943h-35.074c-0.409,0-0.741-0.332-0.741-0.741v-0.158
									c0-0.41,0.332-0.741,0.741-0.741h35.074c0.41,0,0.741,0.332,0.741,0.741v0.158
									C327.913,104.611,327.582,104.943,327.172,104.943z"/>
							</g>
						</g>
					</g>
					<g>
						<g>
							<g>
								<g>
									<g>
										<g>
											<path style="fill:#111111;" d="M305.571,351.455l-3.565,0.165l-0.287-9.988c0,0-3.123,7.151-8.564,9.8
												c-3.134,1.523-17.834,1.887-25.626,1.986c-0.795,0.011,1.633-2.925,5.783-4.094c3.068-0.85,5.419-2.064,7.218-3.41h0.011
												c0.022-0.022,0.077-0.066,0.155-0.121c0.066-0.044,0.155-0.11,0.265-0.188c0.077-0.055,0.177-0.121,0.276-0.199
												c0.088-0.066,0.199-0.143,0.32-0.221c1.026-0.739,2.649-1.942,4.16-3.223c0.254-0.21,0.508-0.43,0.762-0.651
												c1.148-0.96,2.163-1.898,2.759-2.615c1.435-1.733,3.841-3.565,5.01-4.823c0.894-0.971,1.766-1.777,2.593-2.461
												l3.863-2.042c0,0,3.068-1.49,3.531-0.706c0.055,0.099,0.11,0.199,0.155,0.331
												C306.465,333.532,305.571,351.455,305.571,351.455z"/>
										</g>
									</g>
								</g>
								<g>
									<g>
										<g>
											<path style="fill:#BDA5CE;" d="M304.39,328.996c-0.165,4.315-15.55,16.907-23.849,16.918
												c0.022-0.022,0.077-0.066,0.155-0.121c0.066-0.044,0.155-0.11,0.265-0.188c0.077-0.055,0.166-0.121,0.276-0.199
												c0.088-0.066,0.199-0.143,0.32-0.221c1.015-0.75,2.627-1.975,4.16-3.223c0.254-0.21,0.508-0.43,0.762-0.651
												c1.148-0.96,2.163-1.898,2.759-2.615c1.435-1.733,3.841-3.565,5.01-4.823c0.894-0.971,1.766-1.777,2.593-2.461
												c4.227-3.465,7.383-3.509,7.527-2.825C304.39,328.721,304.401,328.842,304.39,328.996z"/>
										</g>
									</g>
								</g>
							</g>
							<g>
								<g>
									<g>
										<g>
											<path style="fill:#111111;" d="M328.941,335.115c-2.378,0.017-4.275,1.971-4.239,4.348
												c0.051,3.385,0.415,8.007,1.845,10.987c0.457,0.952,1.2,2.32,2.077,3.192c0.732,0.727,2.601,0.843,3.409,0.201
												c1.074-0.855,2.083-2.314,2.624-3.366c1.555-3.026,1.833-7.767,1.794-11.192c-0.026-2.34-1.959-4.21-4.299-4.193
												L328.941,335.115z"/>
										</g>
									</g>
								</g>
								<g>
									<g>
										<g>
											<path style="fill:#BDA5CE;" d="M335.313,338.653c-0.099,1.975-0.938,5.739-2.582,8.145
												c-0.927,1.357-2.914,1.424-3.962,0.154c-5.021-6.07-2.936-10.738-3.079-16.024c0-0.166,0-0.32-0.011-0.486
												c-0.022-0.32-0.011-3.09,1.247-4.591c2.273-2.693,6.622-1.953,7.847,1.346c0.386,1.048,0.452,2.185,0.441,2.649v1.082
												C335.236,333.599,335.49,334.647,335.313,338.653z"/>
										</g>
									</g>
								</g>
							</g>
						</g>
						<g>
							<g>
								<path style="fill:#111111;" d="M335.214,329.846v1.082c0,0-2.245-3.535-4.635-3.518c-3.201,0.023-4.889,3.518-4.889,3.518
									c0-0.166,0-0.32-0.011-0.486c-0.022-0.32-0.011-3.09,1.247-4.591c2.273-2.693,6.622-1.953,7.847,1.346
									C335.158,328.246,335.225,329.383,335.214,329.846z"/>
							</g>
						</g>
					</g>
					<g>
						<g>
							<path style="fill:#FFBD9C;" d="M452.408,113.947c0,0,14.17,16.368,3.685,39.261l19.696-17.528c0,0-6.964-13.243-4.031-27.386
								C472.829,103.128,452.408,113.947,452.408,113.947z"/>
						</g>
					</g>
					<g>
						<g>
							<path style="fill:#C48362;" d="M462.301,114.811c0.007-0.145-5.911,5.631-5.911,5.631l1.163,2.749
								C457.553,123.191,462.117,118.444,462.301,114.811z"/>
						</g>
					</g>
					<g>
						<g>
							<g>
								<path style="fill:#35374F;" d="M89.903,229.622c3.488,3.488,4.84,7.514,3.142,9.212c-1.698,1.698-5.803,0.425-9.291-3.062
									c-3.487-3.487-5.857-7.862-4.159-9.56C81.293,224.514,86.416,226.135,89.903,229.622z"/>
							</g>
						</g>
						<g>
							<g>
								<path style="fill:#C48362;" d="M82.331,228.862c0,0-5.131,3.065-6.644,3.081c-3.399,0.034-2.816,2.198-1.511,2.266
									c1.305,0.069,7.005-0.618,7.005-0.618l2.266-2.953L82.331,228.862z"/>
							</g>
						</g>
						<g>
							<g>
								<path style="fill:#C48362;" d="M92.466,232.577c0,0-2.538,6.313-5.728,10.606c-0.795,1.059-1.622,1.997-2.461,2.682
									c-0.165,0.133-0.32,0.254-0.486,0.364c-1.424,0.993-2.439-0.419-3.94-1.137c-2.119-1.015-3.521-1.667-4.359-2.34
									c-0.894-0.717-1.126-1.457-0.861-2.693c-0.011-0.011-0.011-0.011,0-0.022c0.011-0.077,0.022-0.154,0.044-0.243
									c0.055-0.243,0.011-0.408-0.077-0.519c-0.254-0.32-0.806-0.298-0.287-0.916c0.397-0.464,0.949-1.104,1.589-1.876
									c3.675-4.403,10.506-12.758,10.506-12.758L92.466,232.577z"/>
							</g>
						</g>
						<g>
							<g>
								<path style="fill:#FFDFBD;" d="M113.622,197.372c-4.999,24.555-20.174,41.043-20.174,41.043s-0.693-4.661-5.369-8.34
									c-4.208-3.311-8.484-3.863-8.484-3.863c5.904-3.929,16.182-33.585,17.318-38.044c0.088-0.342,0.132-0.519,0.132-0.519
									s-0.022-0.21-0.055-0.585c-0.375-3.741-2.417-24.39-2.792-33.572c-1.104-26.674-0.068-35.692,9.314-39.211
									C114.823,110.039,118.621,172.816,113.622,197.372z"/>
							</g>
						</g>
						<g>
							<g>
								<g>
									<path style="fill:#694582;" d="M189.373,423.597c0,0-3.646,2.865-13.901,3.609c-12.029,0.873-13.862-0.987-13.862-0.987
										l-4.978-98.272l-17.011-86.106l8.848,0.955l15.962-10.258l4.461-10.766l14.877,103.237L189.373,423.597z"/>
								</g>
							</g>
						</g>
						<g>
							<g>
								<g>
									<polygon style="fill:#694582;" points="109.819,238.087 109.445,422.035 135.402,423.408 141.598,242.743 115.43,229.435 
																			"/>
								</g>
							</g>
						</g>
						<g>
							<g>
								<g>
									<path style="fill:#694582;" d="M170.372,247.76c-0.271,2.086-15.791,8.84-31.968,8.219
										c-16.177-0.621-29.307-6.225-28.585-17.892c1.469-23.761-0.031-30.463,9.212-27.699c10.27,3.071,48.444-3.583,48.444-3.583
										S170.88,243.843,170.372,247.76z"/>
								</g>
							</g>
							<g style="opacity:0.45;">
								<g>
									<polygon style="fill:#0C0C0C;" points="180.645,424.957 175.245,326.451 155.342,206.269 156.431,206.089 176.34,326.331 
										181.746,424.896 									"/>
								</g>
							</g>
						</g>
						<g>
							<g>
								<polygon style="fill:#FFDFBD;" points="170.507,138.958 164.593,204.142 112.391,207.845 111.784,207.889 111.663,206.465 
									103.485,114.292 136.384,105.298 163.378,108.808 								"/>
							</g>
						</g>
						<g>
							<g>
								<g>
									<path style="fill:#FCA054;" d="M112.286,207.845c-0.033,0.088-0.055,0.166-0.088,0.243l-0.519-0.199l-0.121-1.424
										c4.282-15.417-0.166-73.202-1.291-75.464c0,0-0.102-0.772,0.073-0.923c0.5-0.431,0.914,0.31,0.914,0.31
										C112.7,131.68,117.142,193.973,112.286,207.845z"/>
								</g>
							</g>
						</g>
						<g>
							<g>
								<g>
									<g>
										<path style="fill:#FCA054;" d="M104.627,187.814c-0.011,0.309-0.276,0.552-0.574,0.53
											c-1.545-0.055-4.514-0.154-7.14-0.177c0.088-0.342,0.11-0.728,0.077-1.104c3.3,0.022,6.864,0.166,7.118,0.177
											C104.407,187.252,104.649,187.505,104.627,187.814z"/>
									</g>
								</g>
							</g>
						</g>
						<g>
							<g>
								<polygon style="fill:#FCA054;" points="133.408,205.429 132.041,112.842 133.133,112.008 134.511,205.413 								"/>
							</g>
						</g>
						<g>
							<g>
								<polygon style="fill:#FCA054;" points="145.578,205.429 144.255,108.419 145.25,108.419 146.682,205.413 								"/>
							</g>
						</g>
						<g>
							<g>
								<path style="fill:#FFBD9C;" d="M127.794,85.407c1.589,8.015-0.298,15.543-3.464,21.141
									c-1.872,3.311,0.806,7.327,4.568,6.764l23.345-3.493c0,0-13.003-16.012-8.99-28.663l-16.14,0.99
									C127.113,82.146,127.345,83.138,127.794,85.407z"/>
							</g>
						</g>
						<g>
							<g>
								<path style="fill:#C48362;" d="M129.439,91.799c0,0,9.973,2.308,13.069-1.132l0.498-0.888
									c0.67,2.339-1.494,5.84-4.483,6.254C135.258,96.484,131.63,95.5,129.439,91.799z"/>
							</g>
						</g>
						<g>
							<g>
								<path style="fill:#2D2D2D;" d="M131.633,91.503c-11.08,0.684-17.492-11.665-20.77-22.569
									c-0.883-2.914-1.534-5.739-1.987-8.167c-0.022-0.088-0.033-0.188-0.044-0.276c-2.064-11.367,1.082-19.225,11.511-21.476
									c14.435-3.112,24.655,3.068,26.818,14.568C149.312,65.094,159.543,89.781,131.633,91.503z"/>
							</g>
						</g>
						<g>
							<g>
								<path style="fill:#FFBD9C;" d="M148.533,67.412c2.246,11.981-2.107,25.201-10.694,26.81
									c-8.587,1.61-20.72-10.204-22.966-22.185c-2.246-11.981,0.703-28.202,9.289-29.812
									C132.75,40.616,146.287,55.431,148.533,67.412z"/>
							</g>
						</g>
						<g>
							<g>
								<path style="fill:#F7F7F7;" d="M155.735,107.825l-4.679,7.195l-13.453-2.825l-12.349,4.006l-6.997-5.971l2.792-2.273
									l0.85-0.706l3.62-2.947c0,0,16.046,2.947,21.564-2.439l5.772,3.973l0.905,0.629L155.735,107.825z"/>
							</g>
						</g>
						<g>
							<g>
								<path style="fill:#C48362;" d="M135.114,78.398c-0.07,0-0.141-0.026-0.195-0.08c-0.108-0.107-0.109-0.282-0.001-0.39
									c0.545-0.55,1.174-1.064,1.728-1.517c0.484-0.397,1.075-0.88,1.231-1.117c-3.255-1.078-5.178-3.852-5.178-7.449
									c0-0.152,0.123-0.276,0.276-0.276c0.152,0,0.276,0.123,0.276,0.276c0,3.374,1.811,5.967,4.844,6.937
									c0.272,0.087,0.344,0.266,0.363,0.364c0.078,0.411-0.392,0.815-1.463,1.691c-0.544,0.445-1.161,0.95-1.686,1.479
									C135.256,78.37,135.186,78.398,135.114,78.398z"/>
							</g>
						</g>
						<g>
							<g>
								<g>
									<path style="fill:#494949;" d="M139.75,125.834c0,1.59-0.568,2.878-1.268,2.878c-0.7,0-1.268-1.289-1.268-2.878
										c0-1.59,0.568-2.878,1.268-2.878C139.183,122.956,139.75,124.244,139.75,125.834z"/>
								</g>
							</g>
							<g>
								<g>
									<path style="fill:#494949;" d="M140.386,141.826c0,1.59-0.567,2.878-1.268,2.878s-1.268-1.289-1.268-2.878
										c0-1.59,0.568-2.878,1.268-2.878S140.386,140.236,140.386,141.826z"/>
								</g>
							</g>
							<g>
								<g>
									<path style="fill:#494949;" d="M141.022,157.817c0,1.59-0.568,2.878-1.268,2.878c-0.7,0-1.268-1.289-1.268-2.878
										s0.568-2.878,1.268-2.878C140.454,154.939,141.022,156.227,141.022,157.817z"/>
								</g>
							</g>
							<g>
								<g>
									<ellipse style="fill:#494949;" cx="140.39" cy="173.809" rx="1.268" ry="2.878"/>
								</g>
							</g>
							<g>
								<g>
									<path style="fill:#494949;" d="M142.293,189.88c0,1.59-0.567,2.878-1.268,2.878s-1.268-1.289-1.268-2.878
										c0-1.59,0.567-2.879,1.268-2.879S142.293,188.29,142.293,189.88z"/>
								</g>
							</g>
						</g>
						<g>
							<g>
								<g>
									<path style="fill:#FFBD9C;" d="M120.829,75.88c3.816,2.852,5.973,6.418,4.818,7.964c-1.155,1.546-5.186,0.487-9.002-2.365
										c-3.816-2.852-5.973-6.418-4.818-7.964C112.982,71.968,117.013,73.027,120.829,75.88z"/>
								</g>
							</g>
							<g>
								<g>
									<path style="fill:#C48362;" d="M112.945,76.1c-0.096,0-0.189-0.05-0.24-0.139c-0.333-0.587-0.396-1.101-0.186-1.528
										c0.347-0.707,1.312-0.853,1.353-0.858c0.142-0.02,0.289,0.082,0.312,0.233c0.022,0.151-0.082,0.291-0.233,0.313
										c-0.199,0.03-0.757,0.187-0.937,0.557c-0.123,0.253-0.066,0.593,0.171,1.011c0.075,0.133,0.029,0.301-0.104,0.376
										C113.038,76.089,112.991,76.1,112.945,76.1z"/>
								</g>
							</g>
							<g>
								<g>
									<path style="fill:#C48362;" d="M118.268,80.756c-0.026,0-0.052-0.004-0.078-0.011c-1.913-0.563-4.377-3.172-4.481-3.283
										c-0.104-0.111-0.099-0.286,0.012-0.39c0.11-0.104,0.286-0.1,0.39,0.012c0.025,0.026,2.465,2.611,4.234,3.131
										c0.147,0.043,0.23,0.196,0.187,0.342C118.497,80.678,118.387,80.756,118.268,80.756z"/>
								</g>
							</g>
						</g>
						<g>
							<g>
								<g>
									<path style="fill:#FFBD9C;" d="M150.933,71.627c-0.853,4.688-3.084,8.207-4.983,7.862
										c-1.899-0.345-2.747-4.425-1.894-9.113c0.853-4.687,3.084-8.207,4.983-7.862C150.938,62.86,151.786,66.94,150.933,71.627z"
										/>
								</g>
							</g>
							<g>
								<g>
									<path style="fill:#C48362;" d="M149.891,66.08c-0.002,0-0.005,0-0.007,0c-0.152-0.004-0.272-0.13-0.269-0.282
										c0.005-0.201-0.057-0.777-0.39-1.017c-0.229-0.164-0.574-0.165-1.026-0.002c-0.145,0.049-0.301-0.023-0.354-0.166
										c-0.052-0.143,0.023-0.302,0.166-0.354c0.635-0.229,1.152-0.204,1.538,0.076c0.638,0.462,0.618,1.437,0.617,1.478
										C150.162,65.962,150.039,66.08,149.891,66.08z"/>
								</g>
							</g>
							<g>
								<g>
									<path style="fill:#C48362;" d="M149.044,73.557c-0.052,0-0.106-0.015-0.152-0.046c-0.127-0.084-0.162-0.255-0.078-0.383
										c1.018-1.538,1.217-5.087,1.219-5.122c0.008-0.151,0.141-0.276,0.29-0.261c0.152,0.008,0.269,0.138,0.261,0.29
										c-0.008,0.152-0.21,3.735-1.31,5.398C149.221,73.513,149.134,73.557,149.044,73.557z"/>
								</g>
							</g>
						</g>
						<g>
							<g>
								<g>
									<path style="fill:#2D2D2D;" d="M145.294,60.164c-0.305-0.688-6.672-1.069-9.208,0.766
										c-2.536,1.835-1.871,3.983-1.367,3.455c0.504-0.527,3.21-2.256,4.864-2.581C141.236,61.48,145.495,60.618,145.294,60.164z"
										/>
								</g>
							</g>
						</g>
						<g>
							<g>
								<g>
									<path style="fill:#2D2D2D;" d="M116.356,70.231c-0.193-0.728,4.529-5.014,7.656-5.174s3.954,1.931,3.231,1.836
										s-3.915,0.253-5.408,1.037C120.342,68.714,116.483,70.711,116.356,70.231z"/>
								</g>
							</g>
						</g>
						<g>
							<g>
								<g>
									<g>
										<polygon style="fill:#2D2D2D;" points="143.062,65.322 138.198,66.867 138.623,68.04 143.77,65.964 										"/>
									</g>
								</g>
							</g>
							<g>
								<g>
									<g>
										<path style="fill:#2D2D2D;" d="M140.77,68.482c0.411,1.111,1.279,1.813,1.938,1.569c0.659-0.244,0.86-1.342,0.449-2.453
											c-0.411-1.111-1.279-1.813-1.938-1.569C140.56,66.273,140.359,67.371,140.77,68.482z"/>
									</g>
								</g>
							</g>
						</g>
						<g>
							<g>
								<g>
									<g>
										<polygon style="fill:#2D2D2D;" points="121.037,72.53 125.576,70.2 126.102,71.331 120.987,73.486 										"/>
									</g>
								</g>
							</g>
							<g>
								<g>
									<g>
										<path style="fill:#2D2D2D;" d="M126.01,72.828c0.389,1.119,0.165,2.213-0.498,2.443c-0.664,0.23-1.517-0.49-1.906-1.609
											c-0.389-1.119-0.165-2.213,0.498-2.443C124.768,70.989,125.621,71.709,126.01,72.828z"/>
									</g>
								</g>
							</g>
						</g>
						<g>
							<g>
								<path style="fill:#C48362;" d="M134.373,84.592c-1.253,0-2.213-0.196-2.278-0.209c-0.149-0.031-0.245-0.177-0.213-0.326
									c0.031-0.149,0.177-0.249,0.326-0.214c0.026,0.005,2.521,0.511,4.658-0.132c2.735-0.824,4.123-2.61,4.137-2.628
									c0.092-0.121,0.265-0.146,0.386-0.052c0.121,0.092,0.145,0.265,0.053,0.386c-0.06,0.079-1.502,1.944-4.417,2.822
									C136.128,84.509,135.189,84.592,134.373,84.592z"/>
							</g>
						</g>
						<g>
							<g>
								<path style="fill:#C48362;" d="M136.919,87.098c-0.784,0-1.347-0.236-1.358-0.241c-0.14-0.061-0.203-0.223-0.143-0.363
									c0.06-0.141,0.222-0.203,0.362-0.144c0.081,0.034,2.024,0.837,3.579-0.976c0.1-0.116,0.275-0.129,0.389-0.03
									c0.116,0.099,0.129,0.273,0.03,0.389C138.838,86.831,137.753,87.098,136.919,87.098z"/>
							</g>
						</g>
						<g>
							<g>
								<path style="fill:#442D54;" d="M70.46,286.979l-1.037-0.377c1.569-4.308,4.013-9.33,6.378-14.186
									c4.093-8.409,8.326-17.103,8.211-22.4c-0.102-4.747-1.55-8.498-3.973-10.289c-1.56-1.155-3.473-1.457-5.533-0.872
									c-9.245,2.617-21.167,39.962-21.454,41.68l-1.089-0.181c0.314-1.886,12.116-39.695,22.242-42.562
									c2.401-0.679,4.646-0.317,6.49,1.046c2.74,2.026,4.309,5.987,4.42,11.154c0.12,5.564-4.172,14.38-8.323,22.906
									C74.442,277.73,72.01,282.725,70.46,286.979z"/>
							</g>
						</g>
						<g>
							<g>
								<polygon style="fill:#694582;" points="43.062,289.329 39.928,333.164 39.818,334.61 39.806,334.797 39.542,334.654 
									39.2,334.455 39.1,334.4 26.089,327.138 25.471,326.796 25.813,326.068 								"/>
							</g>
						</g>
						<g>
							<g>
								<g>
									<path style="fill:#442D54;" d="M39.928,333.164l-0.11,1.446l-0.011,0.188l-0.265-0.143l-0.342-0.199L39.1,334.4
										c-0.011-0.066-0.022-0.121-0.022-0.143l-3.156-11.069l-9.833,3.951l-0.618-0.342l0.342-0.728l10.264-4.139
										c0.143-0.055,0.309-0.044,0.452,0.022c0.132,0.066,0.243,0.188,0.287,0.342L39.928,333.164z"/>
								</g>
							</g>
						</g>
						<g>
							<g>
								<polygon style="fill:#FFD9D9;" points="108.241,335.393 48.646,337.898 48.095,337.92 48.15,336.718 48.15,336.707 
									50.578,278.05 102.171,275.203 								"/>
							</g>
						</g>
						<g>
							<g>
								<polygon style="fill:#C49494;" points="50.578,278.05 48.15,336.707 48.15,336.718 48.095,337.92 47.477,337.887 
									40.237,337.446 39.619,337.413 39.707,336.21 43.868,278.05 								"/>
							</g>
						</g>
						<g>
							<g>
								<path style="fill:#C49494;" d="M66.938,281.734l-0.934-0.588c1.047-1.663,1.171-7.405,1.303-13.485
									c0.256-11.814,0.573-26.516,7.216-28.396c2.37-0.671,4.659-0.259,6.621,1.193c2.966,2.193,4.73,6.406,4.841,11.558
									c0.052,2.438-0.109,5.187-0.281,8.098c-0.423,7.204-0.903,15.369,1.877,20.911l-0.986,0.496
									c-2.914-5.808-2.424-14.13-1.993-21.472c0.17-2.888,0.33-5.616,0.279-8.01c-0.102-4.737-1.744-8.735-4.394-10.694
									c-1.677-1.241-3.638-1.595-5.664-1.017c-5.857,1.658-6.179,16.511-6.414,27.357
									C68.263,274.46,68.147,279.811,66.938,281.734z"/>
							</g>
						</g>
						<g>
							<g>
								<path style="fill:#FFBD9C;" d="M84.752,245.445l-0.96,0.783c-1.104,0.773-2.262,1.17-3.421,0.971
									c-0.188-0.033-0.375-0.077-0.563-0.143c-0.144-0.044-0.298-0.11-0.442-0.177c-0.828-0.397-1.556-0.828-2.185-1.269
									c-0.155-0.099-0.298-0.199-0.43-0.32c-0.85-0.64-1.501-1.335-1.953-2.042c-0.132-0.177-0.232-0.364-0.32-0.552
									c-0.607-1.159-0.717-2.351-0.441-3.499c0.232-0.618,0.581-1.456,0.886-1.744c0.666-0.629,1.708-2.133,2.65-2.529
									c0.751-0.316,1.461-0.23,1.507,1.359c0.254-0.055,0.588,0.071,0.761-0.099c2.353-2.317,2.945-0.49,2.251,0.861
									c0.033,0.044,0.066,0.088,0.088,0.132c0.077,0.132,0.067,0.54,0.221,0.441c2.252-1.435,1.402,1.582,1.004,2.417
									c-0.111,0.233,0.254,0.485,0.254,0.75c0,0.116,1.662-1.053,2.01-0.374C86.699,242.421,84.704,244.755,84.752,245.445z"/>
							</g>
						</g>
						<g>
							<g>
								<path style="fill:#C49494;" d="M68.81,282.684c0,1.694-0.816,3.066-1.822,3.066c-1.006,0-1.822-1.373-1.822-3.066
									c0-1.694,0.816-3.066,1.822-3.066C67.994,279.617,68.81,280.99,68.81,282.684z"/>
							</g>
						</g>
						<g>
							<g>
								<path style="fill:#C49494;" d="M88.847,282.684c0,1.694-0.816,3.066-1.822,3.066c-1.006,0-1.822-1.373-1.822-3.066
									c0-1.694,0.816-3.066,1.822-3.066C88.031,279.617,88.847,280.99,88.847,282.684z"/>
							</g>
						</g>
						<g>
							<g>
								<g>
									<path style="fill:#684848;" d="M48.15,336.707v0.011l-0.055,1.203l-0.618-0.033l-3.212-6.975l-4.028,6.533l-0.618-0.033
										l0.088-1.203l4.15-6.754c0.11-0.177,0.309-0.287,0.508-0.265c0.199,0.011,0.386,0.132,0.464,0.32L48.15,336.707z"/>
								</g>
							</g>
						</g>
						<g>
							<g>
								
									<rect x="68.183" y="289.871" transform="matrix(0.9995 -0.0316 0.0316 0.9995 -9.1827 2.5895)" style="fill:#FFFFFF;" width="18.215" height="3.587"/>
							</g>
						</g>
						<g style="opacity:0.45;">
							<g>
								
									<rect x="10.567" y="316.147" transform="matrix(0.0215 -0.9998 0.9998 0.0215 -202.9563 426.0358)" style="fill:#0C0C0C;" width="211.192" height="1.104"/>
							</g>
						</g>
						<g>
							<g>
								<g>
									<path style="fill:#111111;" d="M111.293,215.276c0.736-0.184,57.6-4.307,57.6-4.307l-0.58-8.356l-56.694,4.635
										L111.293,215.276z"/>
								</g>
							</g>
							<g>
								<g>
									
										<rect x="124.983" y="206.05" transform="matrix(0.998 -0.0632 0.0632 0.998 -13.0492 8.4149)" style="fill:#694582;" width="2.898" height="8.675"/>
								</g>
							</g>
							<g>
								<g>
									<polygon style="fill:#694582;" points="162.757,211.834 159.865,212.017 159.317,203.359 162.205,203.112 									"/>
								</g>
							</g>
							<g>
								<g>
									<polygon style="fill:#694582;" points="154.138,212.515 151.247,212.698 150.698,204.041 153.587,203.816 									"/>
								</g>
							</g>
							<g>
								<g>
									<polygon style="fill:#694582;" points="117.57,215.265 114.678,215.448 114.146,207.041 117.034,206.804 									"/>
								</g>
							</g>
							<g>
								<g>
									<polygon style="fill:#FCA054;" points="146.13,212.841 136.152,213.594 135.626,205.295 145.6,204.479 									"/>
								</g>
							</g>
						</g>
						<g>
							<g>
								<g>
									<g>
										<g>
											<path style="fill:#FFBD9C;" d="M175.887,222.004c-0.011,0.486-0.033,0.949-0.055,1.402v0.022
												c-0.165,3.145-0.596,5.805-1.501,7.273l-0.011,0.011c-0.099,0.199-0.221,0.375-0.364,0.519
												c-0.033,0.044-0.066,0.077-0.11,0.121c-0.585,0.618-1.126,0.872-1.611,0.828c-0.166-0.022-0.331-0.066-0.486-0.166
												c-3.035-1.644-3.896-15.583-4.779-18.32c-1.015-3.189,0.916,3.774-0.949,5.673c-1.424,1.435-1.534-18.496-1.534-18.496
												l0.861,0.044l5.363,0.287l3.763,0.199c0,0,0.265,1.887,0.563,4.724c0.155,1.424,0.309,3.09,0.452,4.867
												c0,0-0.114,0.029-0.114,0.04c0,0.022,0.012,0.067,0.023,0.101c0.022,0.276,0.158,0.522,0.18,0.809
												c0.154,2.141,0.276,4.436,0.32,6.666C175.909,219.753,175.92,220.9,175.887,222.004z"/>
										</g>
									</g>
								</g>
							</g>
							<g>
								<g>
									<g>
										<g>
											<path style="fill:#C48362;" d="M173.601,219.457l0.244,11.892c0.044-0.036,0.079-0.075,0.114-0.115
												c0.135-0.146,0.262-0.322,0.366-0.518l0.004-0.012l-0.242-11.366c-0.005-0.173-0.115-0.28-0.25-0.239
												C173.701,219.14,173.592,219.296,173.601,219.457z"/>
										</g>
									</g>
								</g>
							</g>
							<g>
								<g>
									<g>
										<g>
											<path style="fill:#C48362;" d="M171.49,219.552l0.259,12.462c0.154,0.098,0.316,0.146,0.491,0.159l-0.255-12.737
												c-0.009-0.161-0.119-0.269-0.255-0.228C171.598,219.238,171.49,219.394,171.49,219.552z"/>
										</g>
									</g>
								</g>
							</g>
							<g>
								<g>
									<path style="fill:#C48362;" d="M175.578,211.939c-0.088,0.044-0.177,0.066-0.276,0.066
										c-0.044,0.011-0.099,0.011-0.143,0.011c-5.783,0-10.385-10.639-10.385-10.639s0.188-0.221,0.574-0.464
										c0.828-0.508,2.582-1.104,5.363,0.287c1.688,0.85,3.278,2.858,4.326,4.922c0.155,1.424,0.309,3.09,0.452,4.867
										C175.49,210.99,175.556,211.652,175.578,211.939z"/>
								</g>
							</g>
						</g>
						<g>
							<g>
								<path style="fill:#FFDFBD;" d="M197.109,176.326l-20.372,33.538c0,0-2.812,1.104-7.336-2.69
									c-1.59-1.333-4.958-6.183-4.958-6.183l12.835-33.064l0.088-0.21l-0.408-1.048l-15.903-40.833c0,0-0.391-17.27,2.218-17.029
									C191.846,111.455,197.109,176.326,197.109,176.326z"/>
							</g>
						</g>
						<g>
							<g>
								<path style="fill:#FCA054;" d="M169.59,148.301c-0.295,0-0.539-0.233-0.551-0.531c-0.003-0.068-0.264-6.857-0.718-13.557
									c-0.02-0.304,0.21-0.567,0.514-0.588c0.302-0.002,0.568,0.21,0.588,0.514c0.455,6.717,0.716,13.522,0.719,13.59
									c0.012,0.305-0.226,0.561-0.53,0.572C169.604,148.301,169.597,148.301,169.59,148.301z"/>
							</g>
						</g>
						<g>
							<g>
								<g>
									<path style="fill:#0C0C0C;" d="M109.445,422.035c0,0-7.111,1.922-14.161,3.8c-2,0.533-3.39,2.163-3.389,4.038l0,0
										l22.022,0.214c4.337-0.002,10.663-0.248,14.659-2.025l-0.116,1.792l7.479-0.004l-0.142-5.877
										c-0.057-2.339-3.11-1.702-5.712-1.701L109.445,422.035z"/>
								</g>
							</g>
						</g>
						<g>
							<g>
								<path style="fill:#0C0C0C;" d="M188.806,429.703l-25.355,0.54l-0.004-0.198c-0.084-3.927,1.169-5.019,3.946-6.906
									c2.006-1.363,3.961-1.683,7.589-2.077c3.641-0.395,5.121-0.374,8.122,0.776C186.21,423.028,188.721,425.699,188.806,429.703
									L188.806,429.703z"/>
							</g>
						</g>
						<g>
							<g>
								<path style="fill:#684848;" d="M42.342,300.636v-1.104c6.73,0,53.734-1.853,62.038-2.53l0.09,1.099
									C96.154,298.782,49.082,300.636,42.342,300.636z"/>
							</g>
						</g>
						<g>
							<g>
								<g>
									<path style="fill:#FCA054;" d="M183.557,169.34c-0.066,0.243-0.287,0.386-0.519,0.386c-0.055,0-0.11-0.011-0.165-0.022
										l-5.595-1.777l-0.32-1.258l6.246,1.986C183.491,168.744,183.656,169.053,183.557,169.34z"/>
								</g>
							</g>
						</g>
						<g>
							<g>
								<g>
									<path style="fill:#B7A3C6;" d="M153.76,106.468l-3.83,5.893c-0.132,0.199-0.375,0.298-0.607,0.232l-12.074-3.212
										l-11.025,4.492c-0.066,0.033-0.143,0.044-0.21,0.044c-0.166,0-0.331-0.077-0.43-0.21l-4.536-5.75l0.85-0.706l4.293,5.452
										l10.815-4.414c0.11-0.044,0.232-0.055,0.353-0.022l11.864,3.156l3.631-5.584L153.76,106.468z"/>
								</g>
							</g>
						</g>
						<g>
							<g>
								<path style="fill:#191919;" d="M114.15,59.74l0.054,6.45l0,0c-1.587,1.304-4.007,0.508-4.488-1.489
									c-0.337-1.403-0.618-2.742-0.848-3.978c0.063-0.05,0.077-0.061,0.14-0.111C109.923,61.087,110.851,59.335,114.15,59.74z"/>
							</g>
						</g>
						<g>
							<g>
								<path style="fill:#2D2D2D;" d="M147.061,62.5l-5.209-9.005l-0.121-0.221c0,0-0.177,0.099-0.497,0.265
									c-3.421,1.865-23.54,12.526-29.841,8.961c-4.326-2.439-9.866-9.756-3.035-17.216c9.138-9.966,25.946-7.35,32.623-0.817
									c6.688,6.522,5.375,7.361,6.401,10.352C148.418,57.81,147.061,62.5,147.061,62.5z"/>
							</g>
						</g>
						<g>
							<g>
								<g>
									<path style="fill:#161616;" d="M141.852,53.495c0,0-0.298-0.121-0.618,0.044c0.629-1.17,0.684-2.748,0.166-4.657
										c-0.022-0.077-0.033-0.132-0.044-0.155c-0.033-0.154,0.066-0.298,0.221-0.331c0.143-0.022,0.287,0.066,0.32,0.221
										c0.011,0.022,0.022,0.066,0.033,0.121C142.437,50.625,142.415,52.237,141.852,53.495z"/>
								</g>
							</g>
						</g>
						<g>
							<g>
								<g>
									<path style="fill:#C48362;" d="M79.84,236.185c-0.243,0.331-0.585,0.784-1.06,1.413c-1.214,1.611-3.035,4.028-3.984,5.65
										c-0.132-0.177-0.232-0.364-0.32-0.552c0.872-1.446,2.318-3.388,3.863-5.43c0.254-0.342,0.508-0.673,0.739-0.982
										C79.333,236.23,79.598,236.196,79.84,236.185z"/>
								</g>
							</g>
						</g>
						<g>
							<g>
								<g>
									<path style="fill:#C48362;" d="M82.401,237.62c-1.402,2.318-4.017,6.324-5.22,7.99c-0.155-0.099-0.298-0.199-0.43-0.32
										c1.258-1.722,4.05-6.081,5.342-8.244c0.033,0.044,0.066,0.088,0.088,0.132C82.257,237.311,82.324,237.455,82.401,237.62z"
										/>
								</g>
							</g>
						</g>
						<g>
							<g>
								<g>
									<path style="fill:#C48362;" d="M83.659,240.787c-0.85,1.81-2.306,4.679-3.289,6.412c-0.188-0.033-0.375-0.077-0.563-0.143
										c1.059-1.865,2.803-5.308,3.598-7.019C83.493,240.28,83.582,240.534,83.659,240.787z"/>
								</g>
							</g>
						</g>
					</g>
					<g>
						<g>
							<path style="fill:#FFBD9C;" d="M504.382,83.72c0,0,5.628,10.4,4.747,19.297c-1.413,14.272-15.798,14.398-15.798,14.398
								l-1.324-13.883L504.382,83.72z"/>
						</g>
					</g>
					<g>
						<g>
							<path style="fill:#FFBD9C;" d="M447.061,88.699c0,0-4.77,33.332,3.842,33.332c8.613,0,27.161-17.68,24.656-26.345
								C473.521,88.639,450.818,83.4,447.061,88.699z"/>
						</g>
					</g>
					<g>
						<g>
							<path style="fill:#FFBD9C;" d="M446.383,94.592c0,0-2.001,10.936-5.367,11.669l5.367,3.286V94.592z"/>
						</g>
					</g>
					<g>
						<g>
							<path style="fill:#694582;" d="M454.846,401.794c0,0.761-0.607,1.379-1.368,1.379h-5.871c0.397-0.971,0.75-1.898,1.071-2.759
								h4.801C454.239,400.415,454.846,401.033,454.846,401.794z"/>
						</g>
					</g>
					<g>
						<g>
							<path style="fill:#694582;" d="M451.867,406.573c0,0.761-0.618,1.379-1.379,1.379h-5.032
								c0.464-0.938,0.894-1.865,1.291-2.759h3.741C451.249,405.193,451.867,405.811,451.867,406.573z"/>
						</g>
					</g>
					<g>
						<g>
							<path style="fill:#694582;" d="M448.754,411.539c0,0.762-0.618,1.379-1.379,1.379h-4.646
								c0.563-0.916,1.093-1.843,1.589-2.759h3.057C448.136,410.159,448.754,410.778,448.754,411.539z"/>
						</g>
					</g>
					<g>
						<g>
							<path style="fill:#B185C6;" d="M505.899,402.103c0,4.271-1.567,8.023-4.447,10.098c-0.099,0.088-0.419,0.504-0.529,0.571
								c-1.468,0.982-3.289,1.195-5.099,1.195c-1.622,0-3.167-0.453-4.525-1.269c-0.011,0-0.022-0.011-0.044-0.022h-0.011
								c-3.267-1.965-5.496-5.96-5.496-10.573c0-3.818,4.183-10.153,4.183-10.153s3.576,0.232,5.893,0.232
								c2.318,0,6.125-0.596,6.125-0.596S505.899,398.285,505.899,402.103z"/>
						</g>
					</g>
					<g>
						<g>
							<g>
								<path style="fill:#694582;" d="M467.03,413.868c0.022,0.298-0.132,2.411-0.132,2.411c-0.232,0.077-0.563,0.491-0.927,0.756
									l-0.011,0.011c-0.375,0.276-0.795,0.64-1.247,1.048c-0.022,0.011-0.044,0.033-0.066,0.044
									c-2.13,1.942-4.834,4.9-5.353,5.375c0,0,0,0-0.011-0.011c-0.044-0.121-0.21-1.092-0.331-1.346c0,0,0.011-0.011,0.022-0.022
									c0.022-0.022,0.044-0.055,0.088-0.099c0.75-0.762,5.021-5.22,6.92-7.118C466.357,414.552,466.71,414.199,467.03,413.868z"/>
							</g>
						</g>
					</g>
					<g>
						<g>
							<g>
								<path style="fill:#694582;" d="M501.452,412.201c-0.099,0.088-0.375,1.225-0.375,1.225
									c-2.218,0.475-4.227,0.618-5.871,0.618c-1.446,0-2.627-0.11-3.41-0.221l-0.11-0.861c-0.011,0-0.022-0.011-0.011,0
									c1.49,0.221,5.075,0.39,9.456-0.593C501.23,412.358,501.352,412.234,501.452,412.201z"/>
							</g>
						</g>
					</g>
					<g>
						<g>
							<g>
								<path style="fill:#FCA054;" d="M257.843,113.875v0.459H223.34v-0.459c0-0.185,0-0.381,0.01-0.566
									c0.303-9.263,7.906-16.681,17.247-16.681c4.763,0,9.077,1.933,12.191,5.046c3.006,3.006,4.91,7.125,5.046,11.683
									C257.843,113.533,257.843,113.699,257.843,113.875z"/>
							</g>
						</g>
						<g>
							<g>
								<polygon style="fill:#FCA054;" points="265.622,121.527 215.356,121.527 222.92,114.275 223.34,113.875 257.843,113.875 
									258.312,114.333 								"/>
							</g>
						</g>
						<g>
							<g>
								<g>
									<path style="fill:#694582;" d="M258.312,114.333h-0.469c-12.659-0.078-28.012-0.127-34.503-0.059h-0.42
										c0,0,0.42-0.781,0.43-0.966c4.197-0.059,13.538-0.078,34.484,0.049C257.843,113.533,258.312,114.333,258.312,114.333z"/>
								</g>
							</g>
						</g>
					</g>
					<g>
						<g>
							<g>
								<g>
									<g>
										<g>
											<g>
												<path style="fill:#111111;" d="M260.284,251.381v29.153c0,3.676-2.986,6.662-6.674,6.662h-28.302
													c-3.689,0-6.662-2.986-6.662-6.662v-29.153H260.284z"/>
											</g>
										</g>
										<g>
											<g>
												<path style="fill:#3A3A3A;" d="M219.325,252.697c-0.214,0-0.417-0.125-0.507-0.333c-0.121-0.28,0.008-0.605,0.288-0.725
													c21.871-9.429,17.71-38.616,14.04-64.367c-1.139-7.992-2.215-15.54-2.465-22.114
													c-0.553-14.563,0.828-22.751,4.479-26.547c1.523-1.584,3.466-2.389,5.775-2.392c0.003,0,0.008,0,0.011,0
													c2.107,0,3.901,0.837,5.334,2.489c5.186,5.978,5.755,23.306,1.692,51.5c-5.041,34.972-0.73,57.168,11.827,60.896
													c0.293,0.087,0.459,0.395,0.372,0.687c-0.086,0.291-0.393,0.456-0.686,0.372c-13.332-3.957-17.808-26.017-12.606-62.112
													c4.016-27.863,3.534-44.894-1.433-50.62c-1.23-1.418-2.702-2.108-4.499-2.108c-0.003,0-0.007,0-0.01,0
													c-2.026,0.003-3.655,0.675-4.981,2.054c-3.426,3.563-4.712,11.502-4.171,25.74c0.247,6.517,1.32,14.038,2.454,22
													c3.727,26.143,7.951,55.774-14.695,65.536C219.472,252.684,219.398,252.697,219.325,252.697z"/>
											</g>
										</g>
									</g>
									<g>
										<g>
											<path style="fill:#FCA054;" d="M225.533,254.698h-6.893v-3.285h10.178l0,0
												C228.818,253.227,227.348,254.698,225.533,254.698z"/>
										</g>
									</g>
									<g>
										<g>
											<path style="fill:#FCA054;" d="M260.278,254.698h-6.893c-1.814,0-3.285-1.471-3.285-3.285l0,0h10.178V254.698z"/>
										</g>
									</g>
								</g>
								<g>
									<g>
										<path style="fill:#FCA054;" d="M226.727,287.196h-1.419c-3.689,0-6.662-2.986-6.662-6.662v-2.998
											c3.01,0.395,7.489,1.764,7.982,7.081C226.714,285.567,226.751,286.418,226.727,287.196z"/>
									</g>
								</g>
								<g>
									<g>
										<path style="fill:#FCA054;" d="M252.203,287.196h1.419c3.689,0,6.662-2.986,6.662-6.662v-2.998
											c-3.01,0.395-7.489,1.764-7.982,7.081C252.215,285.567,252.178,286.418,252.203,287.196z"/>
									</g>
								</g>
							</g>
							<g>
								<g>
									<path style="fill:#FCA054;" d="M245.257,267.061h-13.645c-0.32,0-0.58-0.26-0.58-0.58l0,0c0-0.32,0.26-0.58,0.58-0.58
										h13.645c0.32,0,0.58,0.26,0.58,0.58l0,0C245.836,266.802,245.577,267.061,245.257,267.061z"/>
								</g>
							</g>
						</g>
						<g>
							<g>
								<path style="fill:#FCA054;" d="M238.538,269.601L238.538,269.601c-1.185,0-2.145-0.961-2.145-2.145v-1.287h4.291v1.287
									C240.684,268.641,239.723,269.601,238.538,269.601z"/>
							</g>
						</g>
					</g>
					<g>
						<g style="opacity:0.24;">
							<path style="fill:#2B2B2B;" d="M452.408,181.171c0,0,14.394,0.238,14.941,4.985c1.294,11.22-6.406,38.003-9.098,41.177
								c-4.621,5.449-17.493,8.434-18.195,6.811c-0.702-1.623,11.601-34.56,11.601-34.56L452.408,181.171z"/>
						</g>
						<g>
							<g>
								<path style="fill:#2D2D2D;" d="M403.502,237.522c-0.187,0-0.374-0.063-0.529-0.191c-0.351-0.292-0.4-0.814-0.108-1.166
									c0.068-0.081,6.742-8.197,6.04-13.734c-0.179-1.408-0.817-2.491-1.953-3.31c-2.463-1.779-4.648-2.345-6.491-1.688
									c-3.429,1.225-4.803,6.281-4.816,6.333c-0.116,0.44-0.564,0.709-1.012,0.589c-0.441-0.116-0.705-0.568-0.59-1.01
									c0.064-0.241,1.604-5.943,5.854-7.468c2.388-0.857,5.089-0.218,8.025,1.901c1.506,1.089,2.389,2.583,2.625,4.446
									c0.792,6.25-6.114,14.644-6.408,14.999C403.975,237.421,403.739,237.522,403.502,237.522z"/>
							</g>
						</g>
						<g>
							<g>
								<path style="fill:#FFBD9C;" d="M420.535,207.759c0,0-13.512-6.966-21.099,3.656c0,0-6.751,9.058-1.647,7.817
									c5.104-1.242,17.419,1.61,17.419,1.61L420.535,207.759z"/>
							</g>
						</g>
						<g>
							<g>
								<path style="fill:#FFD9D9;" d="M462.309,206.453c-2.34,4.028-1.413,13.056-6.357,19.424
									c-3.918,5.054-13.155,8.299-16.51,8.299c-4.779,0-13.398-5.364-19.114-9.326c-0.32-0.221-0.64-0.43-0.938-0.651
									c-2.836-1.997-4.757-3.498-4.757-3.498s1.766-4.823,1.799-6.522c0.121-6.732-2.086-8.255-2.88-8.586l6.037,1.468
									l1.181,0.287l13.585,3.333l2.98,0.729c0,0,0.022-0.177,0.066-0.508c0.452-3.498,3.278-24.335,8.707-41.01
									c3.057-9.381,10.76-14.888,17.018-6.478C469.372,171.833,468.644,195.56,462.309,206.453z"/>
							</g>
						</g>
						<g>
							<g>
								<g>
									<path style="fill:#CE9191;" d="M441.449,213.409c-0.088,0.21-0.287,0.32-0.496,0.32c-0.077,0-0.155-0.011-0.232-0.055
										l-6.368-2.991c0,0,3.002,0.552,3.046,0.221l3.785,1.777C441.46,212.813,441.581,213.133,441.449,213.409z"/>
								</g>
							</g>
						</g>
						<g>
							<g>
								<path style="fill:#2D2D2D;" d="M400.562,245.126c-5.395,0-10.455-0.603-14.428-1.465c-0.3-0.066-0.539-0.291-0.622-0.586
									c-0.082-0.295,0.005-0.613,0.229-0.823c9.769-9.26,27.121-7.145,35.382-2.143c0.267,0.162,0.42,0.461,0.397,0.773
									c-0.025,0.313-0.223,0.583-0.513,0.702C414.662,244.173,407.346,245.126,400.562,245.126z M388.14,242.364
									c4.845,0.857,18.454,2.631,30.583-1.68C410.711,236.732,396.635,235.686,388.14,242.364z"/>
							</g>
						</g>
						<g>
							<g>
								<path style="fill:#FCA054;" d="M449.452,268.188l-0.684,1.28c-4.094,7.725-13.177,11.146-21.255,8.255h-0.011
									c-0.497-0.177-0.982-0.375-1.457-0.596l-0.066,1.302c-0.011,0.011,0,0.022,0,0.022l-1.733,31.927l8.516,30.974
									c0,0-5.251,13.223-23.262,12.91c-24.018-0.417-26.049-11.124-26.049-11.124l6.583-32.761l-5.021-29.863l-0.64-3.796
									c-0.21,0.265-0.419,0.508-0.651,0.75c-2.704,2.991-6.467,4.536-10.253,4.536c-3.333,0-6.677-1.192-9.348-3.631l-3.465-3.167
									c0,0,13.387-19.887,19.324-27.392c1.733-2.196,3.565-4.05,5.463-5.595c0.055-0.044,0.121-0.099,0.177-0.143
									c0.375-0.309,0.75-0.607,1.137-0.883c0.11,0.022,0.232,0.055,0.353,0.077c7.328,1.556,21.542,3.465,33.461-1.402
									c0.243,0.143,0.475,0.287,0.706,0.441c0.143,0.088,0.287,0.188,0.419,0.287c0.464,0.309,0.905,0.629,1.324,0.96
									c0.011,0.011,0.022,0.022,0.033,0.022C432.413,248.986,449.452,268.188,449.452,268.188z"/>
							</g>
						</g>
						<g>
							<g>
								<path style="fill:#FFBD9C;" d="M396.939,216.421c0,0,6.31,8.499,7.929,7.904c1.619-0.595-3.987-8.559-3.987-8.559
									S397.714,214.956,396.939,216.421z"/>
							</g>
						</g>
						<g>
							<g>
								<path style="fill:#FFBD9C;" d="M395.896,218.676c0,0,4.663,7.066,6.281,6.471c1.619-0.595-4.278-7.982-4.278-7.982
									S396.671,217.21,395.896,218.676z"/>
							</g>
						</g>
						<g>
							<g>
								<path style="fill:#FFBD9C;" d="M399.705,215.544c0,0,6.269,8.529,7.89,7.943c1.622-0.587-3.945-8.578-3.945-8.578
									S400.487,214.083,399.705,215.544z"/>
							</g>
						</g>
						<g>
							<g>
								<path style="fill:#FFBD9C;" d="M401.887,214.001c0,0,6.269,8.529,7.89,7.943c1.621-0.587-3.945-8.578-3.945-8.578
									S402.669,212.539,401.887,214.001z"/>
							</g>
						</g>
						<g>
							<g>
								<path style="fill:#C48362;" d="M401.348,217.828c-0.107,0-0.208-0.063-0.253-0.167c-0.402-0.931-0.427-1.695-0.073-2.27
									c0.516-0.841,1.637-0.92,1.685-0.923c0.188-0.015,0.282,0.106,0.292,0.258c0.01,0.152-0.106,0.283-0.257,0.293
									c-0.01,0.001-0.887,0.066-1.251,0.663c-0.252,0.413-0.214,1.006,0.111,1.762c0.06,0.139-0.004,0.302-0.144,0.362
									C401.422,217.821,401.385,217.828,401.348,217.828z"/>
							</g>
						</g>
						<g>
							<g>
								<path style="fill:#C48362;" d="M405.06,217.828c-0.107,0-0.208-0.063-0.253-0.167c-0.402-0.931-0.427-1.695-0.073-2.27
									c0.516-0.841,1.637-0.92,1.684-0.923c0.177-0.015,0.282,0.106,0.292,0.258c0.01,0.152-0.106,0.283-0.257,0.293
									c-0.01,0.001-0.887,0.066-1.251,0.663c-0.252,0.413-0.214,1.006,0.111,1.762c0.06,0.139-0.004,0.302-0.144,0.362
									C405.133,217.821,405.097,217.828,405.06,217.828z"/>
							</g>
						</g>
						<g>
							<g>
								<path style="fill:#C48362;" d="M398.181,218.212c-0.107,0-0.208-0.063-0.253-0.167c-0.402-0.931-0.427-1.696-0.073-2.271
									c0.516-0.841,1.636-0.92,1.684-0.923c0.18-0.009,0.282,0.106,0.292,0.258c0.01,0.152-0.106,0.283-0.257,0.293
									c-0.01,0-0.887,0.066-1.25,0.663c-0.252,0.413-0.216,1.005,0.111,1.762c0.06,0.139-0.004,0.302-0.144,0.362
									C398.254,218.204,398.218,218.212,398.181,218.212z"/>
							</g>
						</g>
					</g>
					<g>
						<g>
							<g>
								<path style="fill:#FCA054;" d="M370.828,125.3l-4.894-4.894c-1.895-1.895-1.895-4.966,0-6.861l4.894-4.894l4.893,4.894
									c1.895,1.895,1.895,4.966,0,6.861L370.828,125.3z"/>
							</g>
						</g>
						<g>
							<g>
								<circle style="fill:#383838;" cx="370.756" cy="108.504" r="2.242"/>
							</g>
						</g>
						<g>
							<g>
								<path style="fill:#383838;" d="M370.756,106.657c-0.152,0-0.276-0.123-0.276-0.276v-2.006c0-0.152,0.124-0.276,0.276-0.276
									c0.716,0,1.299-0.583,1.299-1.298c0-0.716-0.583-1.299-1.299-1.299s-1.299,0.582-1.299,1.299
									c0,0.152-0.124,0.276-0.276,0.276c-0.152,0-0.276-0.123-0.276-0.276c0-1.021,0.83-1.85,1.85-1.85s1.85,0.83,1.85,1.85
									c0,0.926-0.684,1.696-1.575,1.829v1.751C371.032,106.533,370.908,106.657,370.756,106.657z"/>
							</g>
						</g>
					</g>
					<g>
						<g>
							<g>
								<path style="fill:#FCA054;" d="M388.972,125.3l-4.894-4.894c-1.895-1.895-1.895-4.966,0-6.861l4.894-4.894l4.893,4.894
									c1.895,1.895,1.895,4.966,0,6.861L388.972,125.3z"/>
							</g>
						</g>
						<g>
							<g>
								<circle style="fill:#383838;" cx="388.972" cy="108.504" r="2.242"/>
							</g>
						</g>
						<g>
							<g>
								<path style="fill:#383838;" d="M388.972,106.657c-0.152,0-0.276-0.123-0.276-0.276v-2.006c0-0.152,0.124-0.276,0.276-0.276
									c0.716,0,1.299-0.583,1.299-1.298c0-0.716-0.583-1.299-1.299-1.299c-0.716,0-1.298,0.582-1.298,1.299
									c0,0.152-0.124,0.276-0.276,0.276c-0.152,0-0.276-0.123-0.276-0.276c0-1.021,0.83-1.85,1.849-1.85
									c1.021,0,1.851,0.83,1.851,1.85c0,0.926-0.684,1.696-1.575,1.829v1.751C389.248,106.533,389.124,106.657,388.972,106.657z"
									/>
							</g>
						</g>
					</g>
					<g>
						<g style="opacity:0.24;">
							<path style="fill:#2B2B2B;" d="M447.238,168.014c-0.198,0.489,2.388,6.438,3.677,7.541c1.289,1.104,5.999,4.23,10.404,3.403
								c4.405-0.828,10.93-3.403,12.817-3.587s5.198-0.151,7.222,1.626c2.023,1.777,15.45,3.164,18.485-1.071
								c3.035-4.234,0.92-12.327-0.736-13.155s-32.372-4.138-32.372-4.138l-6.714,1.563L447.238,168.014z"/>
						</g>
						<g>
							<path style="fill:#2D2D2D;" d="M501.829,170.332c-0.077,0.221-0.165,0.43-0.265,0.64c-1.17,2.649-3.311,4.845-6.765,5.871
								c-0.188,0.055-0.386,0.11-0.585,0.155c-0.751,0.188-1.567,0.32-2.439,0.397c-14.501,1.225-7.383-9.193-17.194-4.05
								c-0.397,0.21-0.784,0.408-1.17,0.596l-0.794,0.397c-6.258,3.035-11.621,4.249-17.117,1.589
								c-0.199-0.088-0.408-0.199-0.618-0.309c-2.097-1.126-4.216-2.825-6.423-5.209c-1.468-1.6-2.439-3.521-2.781-5.684
								c-0.044-0.188-0.066-0.375-0.088-0.563c-0.585-5.187,2.185-11.687,9.425-18.552c11.665-11.069,6.798-47.267,5.33-53.525
								c-1.468-6.257-1.203-28.937,6.335-20.295c0,0,25.797-0.773,26.128,18.805c0.364,22.072,0.116,47.985,8.536,67.298
								C502.823,161.282,503.385,166.249,501.829,170.332z"/>
						</g>
					</g>
					<g>
						<g>
							<g>
								<path style="fill:#C49494;" d="M501.189,367.082c-0.408,0.055-0.839,0.11-1.269,0.165
									c-10.506-13.607-13.122-52.134-13.144-52.543c-0.022-0.309,0.21-0.563,0.519-0.585c0.331-0.044,0.563,0.221,0.585,0.53
									C487.902,315.047,490.562,354.38,501.189,367.082z"/>
							</g>
						</g>
					</g>
					<g>
						<g>
							<g>
								<path style="fill:#C49494;" d="M480.784,369.345c-0.364,0.033-0.728,0.055-1.082,0.088
									c-5.01-16.51-6.467-37.71-6.478-38.019c-0.022-0.298,0.221-0.563,0.519-0.574c0.342-0.033,0.563,0.221,0.585,0.519
									C474.339,331.657,475.795,353.022,480.784,369.345z"/>
							</g>
						</g>
					</g>
					<g>
						<g>
							<g>
								<path style="fill:#C49494;" d="M453.668,368.991c-0.353-0.055-0.706-0.11-1.059-0.177
									c4.359-17.249,1.181-46.307,1.137-46.66c-0.033-0.298,0.177-0.574,0.486-0.618c0.298-0.044,0.574,0.177,0.618,0.486
									C454.893,322.375,458.049,351.389,453.668,368.991z"/>
							</g>
						</g>
					</g>
					<g>
						<g>
							<path style="fill:#CE9191;" d="M460.766,201.95c-0.044,0-0.088-0.005-0.134-0.016c-0.302-0.075-7.403-1.85-9.142-2.401
								c-0.507-0.161-0.567-0.558-0.573-0.676c-0.021-0.386-0.077-1.412,9.627-5.689c0.276-0.122,0.604,0.003,0.728,0.282
								c0.123,0.279-0.004,0.605-0.284,0.727c-3.531,1.556-7.489,3.538-8.67,4.451c2.306,0.666,8.514,2.217,8.582,2.234
								c0.295,0.074,0.475,0.374,0.402,0.669C461.239,201.783,461.014,201.95,460.766,201.95z"/>
						</g>
					</g>
					<g>
						<g>
							<g>
								<path style="fill:#1C1C1C;" d="M458.314,173.996c-0.894,0.772-1.832,1.413-2.814,1.931
									c-0.199-0.088-0.408-0.199-0.618-0.309c1.082-0.519,2.108-1.203,3.068-2.042c16.157-14.049,12.007-68.247,11.963-68.799
									c-0.011-0.144,0.099-0.276,0.254-0.287c0.121-0.011,0.276,0.099,0.287,0.243
									C470.498,105.285,474.67,159.759,458.314,173.996z"/>
							</g>
						</g>
					</g>
					<g>
						<g>
							<g>
								<path style="fill:#1C1C1C;" d="M452.278,161.205c-2.008,1.711-4.216,2.88-6.599,3.52c-0.044-0.188-0.066-0.375-0.088-0.563
									c2.296-0.618,4.403-1.744,6.324-3.377c13.718-11.687,13.541-45.634,13.53-45.976c0-0.155,0.121-0.276,0.276-0.276
									c0.155,0,0.276,0.121,0.276,0.276C466.007,115.152,466.183,149.352,452.278,161.205z"/>
							</g>
						</g>
					</g>
					<g>
						<g>
							<g>
								<path style="fill:#1C1C1C;" d="M473.412,173.941l-0.794,0.397c9.932-22.094,1.722-75.211,1.622-75.807
									c-0.022-0.155,0.088-0.298,0.232-0.32c0.165-0.022,0.298,0.088,0.32,0.232C475.177,100.86,483.002,151.548,473.412,173.941z
									"/>
							</g>
						</g>
					</g>
					<g>
						<g>
							<g>
								<path style="fill:#1C1C1C;" d="M494.799,176.843c-0.188,0.055-0.386,0.11-0.585,0.155
									c-11.235-12.989-10.606-64.969-10.562-67.452c0-0.155,0.132-0.276,0.276-0.276h0.011c0.143,0,0.265,0.132,0.265,0.276
									C484.194,110.163,483.521,164.383,494.799,176.843z"/>
							</g>
						</g>
					</g>
					<g>
						<g>
							<g>
								<path style="fill:#1C1C1C;" d="M501.829,170.332c-0.077,0.221-0.165,0.43-0.265,0.64
									c-10.882-17.161-12.68-56.295-12.758-58.149c-0.011-0.143,0.11-0.276,0.265-0.287h0.011c0.143,0,0.265,0.121,0.276,0.265
									C489.381,113.254,491.202,152.939,501.829,170.332z"/>
							</g>
						</g>
					</g>
					<g>
						<g>
							<g>
								<path style="fill:#F1D9FF;" d="M439.631,56.182c0,0,16.002-10.891,33.71-3.495c39.851,16.645,33.396,26.213,33.798,37.225
									c0.596,16.324-8.24,21.562-12.022,24.329c-3.983,2.914-29.434,8.804-34.769,1.702c-5.335-7.102-18.628-22.843-24.476-25.537
									C430.024,87.712,417.205,71.242,439.631,56.182z"/>
							</g>
						</g>
						<g>
							<g>
								<path style="fill:#CFB3E2;" d="M460.071,83.61c0,0,26.78,16.727,30.724-2.68c0,0,1.625,10.426-5.791,14.793
									C477.471,100.159,462.49,93.998,460.071,83.61z"/>
							</g>
						</g>
						<g>
							<g>
								<path style="fill:#CFB3E2;" d="M488.641,75.162c0,0-26.806-16.265-30.269,3.233c0,0-2.263-10.176,5.043-14.726
									C470.836,59.049,485.966,64.837,488.641,75.162z"/>
							</g>
						</g>
						<g>
							<g>
								<g>
									<path style="fill:#F1D9FF;" d="M481.167,93.663c-4.552,1.166-9.976,0.258-14.645-2.891
										c-7.825-5.278-10.609-14.885-6.205-21.416c2.145-3.18,5.648-5.16,9.856-5.578c4.172-0.413,8.549,0.762,12.325,3.308
										c3.775,2.546,6.504,6.164,7.685,10.187c1.191,4.061,0.666,8.048-1.479,11.228
										C486.927,91.136,484.247,92.874,481.167,93.663z"/>
								</g>
							</g>
						</g>
					</g>
					<g>
						<g>
							<path style="fill:#FFBD9C;" d="M508.8,91.314c-0.202-2.116-2.043-6.537-2.079-3.58c-0.047,3.833-1.035,17.95-5.038,21.135
								c-1.366,1.087,7.446-7.905,7.446-7.905S509.223,95.728,508.8,91.314z"/>
						</g>
					</g>
					<g>
						<g>
							<path style="fill:#FFBD9C;" d="M497.091,112.815c0,0,3.443-5.401,3.791-5.919c0.772-1.15,2.165-3.39,2.267-1.236
								c0.103,2.154,0,2.803,0,2.803L497.091,112.815z"/>
						</g>
					</g>
					<g>
						<g>
							<g>
								<path style="fill:#CE9191;" d="M420.328,224.85c-0.32-0.221-0.64-0.43-0.938-0.651c1.7-3.697,1.777-9.557,0.199-17.139
									l1.181,0.287C422.337,215.105,422.182,221.031,420.328,224.85z"/>
							</g>
						</g>
					</g>
					<g>
						<g>
							<polygon style="fill:#694582;" points="390.034,310.379 424.253,310.243 424.458,306.47 389.431,306.793 							"/>
						</g>
					</g>
					<g>
						<g>
							<g>
								<path style="fill:#CE7C3E;" d="M387.11,241.271c-0.066,8.597-0.419,27.193-2.097,39.244c0,0-1.06-3.289-1.291-3.046
									c1.302-11.345,1.644-27.027,1.722-35.249c0.055-0.044,0.121-0.099,0.177-0.143c0.375-0.309,0.75-0.607,1.137-0.883
									C386.867,241.216,386.988,241.249,387.11,241.271z"/>
							</g>
						</g>
					</g>
					<g>
						<g>
							<g>
								<path style="fill:#CE7C3E;" d="M427.502,277.724c-0.497-0.177-1.523,0.706-1.523,0.706
									c-2.483-11.963-4.094-30.382-4.701-38.119c0.143,0.088,0.287,0.188,0.419,0.287c0.464,0.309,0.905,0.629,1.324,0.96
									c0.011,0.011,0.022,0.022,0.033,0.022C423.727,249.846,425.272,266.61,427.502,277.724z"/>
							</g>
						</g>
					</g>
					<g>
						<g>
							<path style="fill:#FCA054;" d="M402.68,170.716l-0.552,0.024c0.329,7.721-2.773,25.832-11.727,34.719
								c-3.112,3.089-6.623,4.687-10.439,4.783c-3.992-0.095-7.626-1.732-10.758-4.94c-8.08-8.28-11.28-25.409-10.898-34.378
								l-0.552-0.024c-0.385,9.065,2.861,26.391,11.055,34.787c2.942,3.015,6.304,4.707,10.013,5.057l-0.003,0.051
								c0.26,0.013,0.517,0.019,0.774,0.019c0.104,0,0.206-0.014,0.309-0.016c0.126,0.003,0.248,0.019,0.375,0.019
								c0.096,0,0.193-0.001,0.29-0.003l-0.001-0.05c3.733-0.244,7.168-1.88,10.223-4.914
								C399.865,196.842,403.011,178.522,402.68,170.716z"/>
						</g>
						<g>
							<path style="fill:#FCA054;" d="M378.814,203.691l-0.001,0.018c0.415,0.032,0.826,0.047,1.232,0.047
								c4.037,0,7.701-1.566,10.906-4.665c7.884-7.624,11.056-22.73,10.718-30.538l-0.552,0.024
								c0.334,7.708-2.788,22.61-10.55,30.117c-2.989,2.891-6.386,4.4-10.12,4.503l-0.001-0.022
								c-0.158,0.007-0.313,0.009-0.469,0.01c-0.118,0-0.238-0.005-0.357-0.009c-14.969-0.251-19.983-25.236-20.557-34.147
								l-0.55,0.036C359.127,178.598,363.979,202.641,378.814,203.691z"/>
						</g>
						<g>
							<path style="fill:#FCA054;" d="M379.759,194.708c0.09,0,0.181-0.006,0.271-0.008c0.095,0.002,0.19,0.008,0.285,0.008
								c4.092-0.001,8.05-1.775,11.489-5.165c5.456-5.376,9.186-14.591,8.869-21.91l-0.552,0.024
								c0.312,7.178-3.35,16.217-8.704,21.493c-3.556,3.505-7.683,5.227-11.894,4.983l0,0.001c-3.759-0.068-7.372-1.69-10.498-4.771
								c-5.974-5.888-8.821-15.376-8.547-21.706l-0.552-0.024c-0.28,6.451,2.622,16.122,8.71,22.123
								C371.936,193.007,375.765,194.708,379.759,194.708z"/>
						</g>
					</g>
					<g>
						<g>
							<path style="fill:#694582;" d="M402.726,170.519v2.362c0,0-13.861,3.896-22.271,3.896c-9.325,0-22.833-3.896-22.833-3.896
								v-2.362c0-0.276,0.033-0.552,0.088-0.806c0.044-0.188,0.099-0.364,0.165-0.53c0.607-1.578,2.262-2.593,4.039-2.285
								c5.397,0.916,14.402,2.351,18.254,2.362c3.852,0,12.857-1.446,18.254-2.362c1.987-0.342,3.819,0.96,4.216,2.836
								c0.044,0.176,0.066,0.353,0.077,0.541C402.726,170.354,402.726,170.442,402.726,170.519z"/>
						</g>
					</g>
					<g>
						<g>
							<g>
								<path style="fill:#4A335B;" d="M402.715,170.277c-4.999,1.28-14.38,3.388-22.149,3.399h-0.077
									c-10.241,0-18.827-2.56-22.778-3.962c0.044-0.188,0.099-0.364,0.165-0.53c3.896,1.391,12.426,3.94,22.602,3.94h0.088
									c7.736-0.011,17.117-2.119,22.072-3.388C402.682,169.912,402.704,170.089,402.715,170.277z"/>
							</g>
						</g>
					</g>
					<g style="opacity:0.45;">
						<path style="fill:#C48362;" d="M445.459,98.496l-0.635,1.941l16.856,16.761C461.68,117.198,447.189,99.79,445.459,98.496z"/>
					</g>
				</g>
				<g>
					<g>
						<rect x="209.72" y="394.884" style="fill:#422D51;" width="200.856" height="0.992"/>
					</g>
				</g>
			</g>
			<g>
				<ellipse style="fill:#3E2554;" cx="310.015" cy="414.088" rx="11.485" ry="10.255"/>
			</g>
		</g>
		<g>
			<path style="fill:#CE7C3E;" d="M405.374,249.745c0.095,1.334-0.531,2.465-1.398,2.527c-0.867,0.061-1.646-0.97-1.741-2.304
				c-0.095-1.334,0.531-2.465,1.398-2.527C404.5,247.38,405.279,248.411,405.374,249.745z"/>
			<path style="fill:#CE7C3E;" d="M405.88,258.491c0.095,1.334-0.531,2.465-1.398,2.527c-0.867,0.062-1.646-0.97-1.741-2.304
				c-0.095-1.334,0.531-2.465,1.398-2.527C405.007,256.126,405.786,257.157,405.88,258.491z"/>
		</g>
	</g>
</g>
</svg>
