<svg xmlns="http://www.w3.org/2000/svg" viewBox="0 0 691.11 386.48"><defs><style>.cls-1{fill:#eaeaea;}.cls-2{fill:#f5f5f5;}.cls-3,.cls-44{fill:#e0e0e0;}.cls-4{fill:#fafafa;}.cls-15,.cls-16,.cls-25,.cls-30,.cls-34,.cls-37,.cls-45,.cls-5,.cls-7{fill:none;}.cls-37,.cls-5,.cls-8{stroke:#eaeaea;}.cls-15,.cls-16,.cls-25,.cls-26,.cls-27,.cls-28,.cls-29,.cls-30,.cls-32,.cls-33,.cls-34,.cls-37,.cls-44,.cls-45,.cls-46,.cls-5,.cls-6,.cls-7,.cls-8,.cls-9{stroke-miterlimit:10;}.cls-5{stroke-width:0.75px;}.cls-12,.cls-17,.cls-18,.cls-26,.cls-28,.cls-29,.cls-32,.cls-46,.cls-47,.cls-6,.cls-8,.cls-9{fill:#fff;}.cls-6,.cls-7{stroke:#e0e0e0;}.cls-9{stroke:#f5f5f5;}.cls-10,.cls-27,.cls-33{fill:#d880a6;}.cls-11,.cls-36,.cls-47{opacity:0.5;}.cls-13,.cls-24{fill:#263238;}.cls-14,.cls-31{opacity:0.2;}.cls-15,.cls-16,.cls-26,.cls-27,.cls-32,.cls-33{stroke:#263238;}.cls-16,.cls-26,.cls-27,.cls-29,.cls-30{stroke-width:0.5px;}.cls-17{font-size:9.36px;font-family:FiraSans-Regular, FiraSans Regular;}.cls-18{font-size:12px;letter-spacing:0.01em;}.cls-18,.cls-24{font-family:FiraSans-Medium, FiraSans Medium;font-weight:500;}.cls-19{letter-spacing:0.01em;}.cls-20{letter-spacing:0.09em;}.cls-21{fill:#f0f0f0;}.cls-22{fill:#4d5a64;}.cls-23{opacity:0.3;}.cls-24{font-size:8px;}.cls-25,.cls-44{stroke:#4d5a64;}.cls-28,.cls-29,.cls-34{stroke:#d880a6;}.cls-30{stroke:#fff;}.cls-35,.cls-39{opacity:0.4;}.cls-37{stroke-width:0.25px;}.cls-38{fill:#e7e6e6;}.cls-40,.cls-42{opacity:0.7;}.cls-41{fill:#717a27;}.cls-43{fill:#ffe8e7;}.cls-45,.cls-46{stroke:#e6e6e6;}</style></defs><g id="Background_Complete" data-name="Background Complete"><path class="cls-1" d="M579.86,445.28s-20.05-15.65-15-28.09,30.71,16.24,30.71,16.24-16.5-36,3.55-39.09,25.9,40.11,25.9,40.11,1.77-37.32,14-33.25,7.36,30.46,7.36,30.46,7.11-25.66,16.25-23.37,2.53,26.41,2.53,26.41,14.22-21.05,24.12-15,3.81,25.55,3.81,25.55Z" transform="translate(-32.56 -59.34)"/><path class="cls-2" d="M715.32,371.59c-4.58,8-14,11.11-21,7.06s-9-13.77-4.39-21.72,14-11.11,21-7.06S719.91,363.64,715.32,371.59Z" transform="translate(-32.56 -59.34)"/><path class="cls-2" d="M717.76,418.15c-6.17,4.74-14.56,4.18-18.75-1.26s-2.59-13.7,3.58-18.45,14.56-4.18,18.75,1.26S723.92,413.4,717.76,418.15Z" transform="translate(-32.56 -59.34)"/><ellipse class="cls-2" cx="672.97" cy="383.34" rx="13.63" ry="14.67" transform="translate(-132.6 275.98) rotate(-26.11)"/><path class="cls-3" d="M723.58,405.25c0-.34-.09-.67-.16-1L711,408l5.76-11.77c-.31-.13-.62-.25-.94-.35l-6.13,12.51-12.8,3.86h0l-16.52,5,15.77-37.71h0l3.1-7.42,17.45-3.48c.13-.36.24-.72.35-1.09L699.73,371l9.21-22c-.31-.12-.63-.23-1-.32l-9.06,21.67-6.34-16.92c-.26.27-.52.54-.76.83l6.54,17.43-1,2.33h0l-12.22,29.21-4.3-9.42h0l-.22-.49,4.21-16.56q-.33-.61-.72-1.2L680,391.82l-10.37-22.68a8.9,8.9,0,0,0-1,.24l6,13.19c-3.66-.39-11.25-1.18-15.45-1.46,0,.33-.05.66-.06,1,3.81.27,11,1,16,1.53l5.55,12.16h0l3.95,8.64-16.92,40.46.92.39,11.24-26.87,17.27-5.2h0l4.83-1.46,14.15,7.47c.33-.19.65-.4,1-.62l-13.76-7.26Z" transform="translate(-32.56 -59.34)"/><path class="cls-1" d="M319.85,442.64c-7.17-5.12-7.88-37.56,21.53-44.13C356.4,395.15,354,387.64,357,378s6.84-10.39,15.44-11.7,2.14-13,12.34-19.82,23.9-7.3,29,7.53c4.32,12.56-7.92,18.09-10.42,23.93s4.77,13.72-4.08,22.53-18.33,2.18-18.44,11.5-4.26,26.32-13.25,29.82C356.51,446.08,325.52,446.68,319.85,442.64Z" transform="translate(-32.56 -59.34)"/><path class="cls-4" d="M330.05,445.25c3.91-4.66,8-9.18,11.92-13.82Q356.68,414,370.69,396q10.19-13.08,20-26.45c.28-.39-.37-.76-.65-.38q-16.5,22.56-34.13,44.25-10.93,13.5-22.31,26.65c-1.34,1.55-2.74,3.07-4.06,4.65-.31.36.22.9.53.53Z" transform="translate(-32.56 -59.34)"/><path class="cls-3" d="M374.61,301.61c12.59-10.7,16.1-47.47-2.34-53.79-23.92-8.2-45.41,6.8-48.33,26.54-2.25,15.24,8,25.88-18.62,37s-22.47,25-17,51.56-12.51,16.79-26.47,39.18c-11.06,17.74,4.49,35.83,11.42,42.58l54.37-.28a40.42,40.42,0,0,0,5-3.64c17.56-15,10.58-38.62,8.76-57-2-19.93,25.49-11,36.43-36.59S362,312.31,374.61,301.61Z" transform="translate(-32.56 -59.34)"/><path class="cls-2" d="M283.88,444.52q3.27-7.56,6.57-15.11,8.13-18.68,16.33-37.31,10.39-23.66,20.9-47.24Q337.9,322,348.33,299.19c4.92-10.69,9.82-21.41,15.22-31.86.4-.78.81-1.56,1.23-2.33.22-.43-.42-.8-.65-.38-5.14,9.59-9.65,19.52-14.22,29.38-6.88,14.83-13.59,29.73-20.27,44.65Q319,362.44,308.51,386.3q-8.61,19.57-17.16,39.18-2.73,6.24-5.45,12.5c-.85,2-1.85,3.91-2.56,5.92,0,.08-.08.16-.11.24-.19.44.46.82.65.38Z" transform="translate(-32.56 -59.34)"/><path class="cls-2" d="M333.24,332.31l31.56-1.74,4.51-.25c.48,0,.48-.78,0-.75l-31.55,1.74-4.52.25c-.48,0-.48.78,0,.75Z" transform="translate(-32.56 -59.34)"/><path class="cls-2" d="M296.82,414.47l35.52-4,5-.57c.48,0,.48-.8,0-.75l-35.52,4-5,.57c-.47,0-.48.8,0,.75Z" transform="translate(-32.56 -59.34)"/><path class="cls-4" d="M293.78,324.45l7.15,16.05q5.7,12.81,11.41,25.61L315,372c.19.44.84.06.64-.38q-3.57-8-7.15-16-5.7-12.81-11.41-25.61l-2.63-5.91c-.2-.44-.84-.06-.65.37Z" transform="translate(-32.56 -59.34)"/><path class="cls-5" d="M345.48,270c-1.76,2.59-4.83,3.58-6.86,2.2s-2.23-4.6-.47-7.19,4.84-3.58,6.86-2.2S347.25,267.41,345.48,270Z" transform="translate(-32.56 -59.34)"/><circle class="cls-5" cx="311.74" cy="224.67" r="2.48"/><path class="cls-5" d="M364.76,348a4.82,4.82,0,1,1-4.82-4.81A4.82,4.82,0,0,1,364.76,348Z" transform="translate(-32.56 -59.34)"/><path class="cls-6" d="M436.77,74.65h-39.1a9,9,0,0,0-9.05,9v39l9.2-8.44h38.95a9,9,0,0,0,9-9.05V83.7A9,9,0,0,0,436.77,74.65Z" transform="translate(-32.56 -59.34)"/><path class="cls-7" d="M416.18,105.56a2.1,2.1,0,1,1-2.1-2.1A2.1,2.1,0,0,1,416.18,105.56Z" transform="translate(-32.56 -59.34)"/><path class="cls-7" d="M427.16,105.83a2.1,2.1,0,1,1-2.1-2.1A2.1,2.1,0,0,1,427.16,105.83Z" transform="translate(-32.56 -59.34)"/><polyline class="cls-7" points="370.23 25.03 376.64 25.03 378.95 42.25 396.02 41.86"/><polyline class="cls-7" points="377.31 27.92 397.9 27.92 396.02 38.7 378.48 38.7"/><path class="cls-8" d="M670.75,143.05H644.67a6,6,0,0,0-6,6v26l6.13-5.63h26a6,6,0,0,0,6-6V149.08A6,6,0,0,0,670.75,143.05Z" transform="translate(-32.56 -59.34)"/><rect class="cls-1" x="615.97" y="95.54" width="4.69" height="9.06"/><path class="cls-1" d="M654.61,154.81v9.11s8.72,1.36,11.15,0c1.76-1,2.11-3.45,2.36-7.75s-6.09-3.29-6.09-3.29,0-6.31-1.9-6.89-2.11,2.08-2.19,4.31A4.93,4.93,0,0,1,654.61,154.81Z" transform="translate(-32.56 -59.34)"/><path class="cls-9" d="M39.79,164.3H68.88A6.72,6.72,0,0,1,75.6,171v29l-6.84-6.28h-29a6.73,6.73,0,0,1-6.73-6.73V171A6.73,6.73,0,0,1,39.79,164.3Z" transform="translate(-32.56 -59.34)"/><path class="cls-2" d="M54.07,188.79S40,177.87,44.05,173s9.48,4,9.48,4,3.5-7.81,8.11-5.74S54.07,188.79,54.07,188.79Z" transform="translate(-32.56 -59.34)"/></g><g id="Plants"><path class="cls-10" d="M95.41,444.1c-5.78,1.51-31.91,5.85-31.5-15,.22-10.64-2.88-10.25-9.12-14.42s-6.08-6.83-5.53-12.78-5.39-3.07-9.34-10.9c-4.72-9.36,1-16.35,10.15-18s8.92,8.23,12.57,11.18,8.7-3.39,15.71,5.22c4.58,5.62-2.53,18.44,4.21,17.25,10.86-1.93,18,6.43,20,13C105.23,427.94,100.87,442.67,95.41,444.1Z" transform="translate(-32.56 -59.34)"/><g class="cls-11"><path class="cls-12" d="M95.41,444.1c-5.78,1.51-31.91,5.85-31.5-15,.22-10.64-2.88-10.25-9.12-14.42s-6.08-6.83-5.53-12.78-5.39-3.07-9.34-10.9c-4.72-9.36,1-16.35,10.15-18s8.92,8.23,12.57,11.18,8.7-3.39,15.71,5.22c4.58,5.62-2.53,18.44,4.21,17.25,10.86-1.93,18,6.43,20,13C105.23,427.94,100.87,442.67,95.41,444.1Z" transform="translate(-32.56 -59.34)"/></g><path class="cls-13" d="M95.74,443.91c-2.33-3.29-4.49-6.69-6.82-10q-9-12.72-18.78-24.87-7.52-9.39-15.42-18.47c-.32-.36-.84.17-.53.53a519.58,519.58,0,0,1,38.66,49.8c.75,1.11,1.46,2.27,2.24,3.37.28.39.93,0,.65-.38Z" transform="translate(-32.56 -59.34)"/><path class="cls-13" d="M68.54,389.75q-.5,7.44-1,14.87l-.14,2.1.38-.38-13.64,1.13c-.48,0-.48.79,0,.75l13.64-1.13a.37.37,0,0,0,.37-.37q.51-7.44,1-14.87l.14-2.1c0-.48-.72-.48-.75,0Z" transform="translate(-32.56 -59.34)"/><path class="cls-13" d="M91.76,417.28,88,430.76l-.53,1.92a.37.37,0,0,0,.72.2L92,419.41c.18-.65.35-1.29.53-1.93a.37.37,0,0,0-.72-.2Z" transform="translate(-32.56 -59.34)"/><path class="cls-10" d="M46.42,313.42c-12.12-9.88-15-40.39,2.25-49.66C70,252.31,92.39,270,95.21,288.27c2.17,14.06-7.67,23.88,17.93,34.19s21.64,23.11,16.38,47.59,12,15.5,25.48,36.17c10.65,16.37-4.32,33.08-11,39.3l-52.35-.25a39.51,39.51,0,0,1-4.85-3.36c-16.91-13.82-10.19-35.66-8.44-52.66,1.9-18.4-24.54-10.17-35.07-33.78S58.55,323.29,46.42,313.42Z" transform="translate(-32.56 -59.34)"/><g class="cls-14"><path d="M46.42,313.42c-12.12-9.88-15-40.39,2.25-49.66C70,252.31,92.39,270,95.21,288.27c2.17,14.06-7.67,23.88,17.93,34.19s21.64,23.11,16.38,47.59,12,15.5,25.48,36.17c10.65,16.37-4.32,33.08-11,39.3l-52.35-.25a39.51,39.51,0,0,1-4.85-3.36c-16.91-13.82-10.19-35.66-8.44-52.66,1.9-18.4-24.54-10.17-35.07-33.78S58.55,323.29,46.42,313.42Z" transform="translate(-32.56 -59.34)"/></g><path class="cls-2" d="M134.42,445q-3.15-7-6.33-14-7.83-17.23-15.72-34.44-10-21.88-20.18-43.71c-6.54-14.05-13.11-28.07-19.82-42-4.74-9.85-9.45-19.74-14.63-29.36-.4-.74-.81-1.48-1.22-2.22-.23-.42-.88,0-.65.38,4.94,8.83,9.29,18,13.7,27.12Q79.49,327.28,89.08,348q10.26,22,20.39,44.08,8.27,18,16.47,36.06l5.28,11.62a54.48,54.48,0,0,0,2.44,5.39,2.4,2.4,0,0,1,.11.23c.2.44.84.06.65-.37Z" transform="translate(-32.56 -59.34)"/><path class="cls-2" d="M86.25,341l-30.42-1.62-4.31-.22c-.48,0-.48.72,0,.75l30.42,1.61,4.31.23c.48,0,.48-.73,0-.75Z" transform="translate(-32.56 -59.34)"/><path class="cls-2" d="M121.32,416.88l-34.21-3.69-4.85-.53c-.48-.05-.47.7,0,.75l34.21,3.69,4.85.53c.48.05.47-.7,0-.75Z" transform="translate(-32.56 -59.34)"/><path class="cls-4" d="M123.61,334.14q-3.45,7.42-6.89,14.83l-11,23.65-2.53,5.44c-.2.43.45.81.65.38q3.45-7.43,6.89-14.83,5.49-11.83,11-23.65l2.53-5.44c.2-.43-.45-.82-.65-.38Z" transform="translate(-32.56 -59.34)"/><path class="cls-5" d="M74.46,284.24c1.7,2.39,4.66,3.3,6.61,2s2.15-4.25.45-6.64-4.65-3.3-6.6-2S72.76,281.85,74.46,284.24Z" transform="translate(-32.56 -59.34)"/><path class="cls-5" d="M73.22,297.17a2.39,2.39,0,1,0,2.38-2.29A2.33,2.33,0,0,0,73.22,297.17Z" transform="translate(-32.56 -59.34)"/><path class="cls-5" d="M55.9,356.22a4.64,4.64,0,1,0,4.64-4.45A4.55,4.55,0,0,0,55.9,356.22Z" transform="translate(-32.56 -59.34)"/></g><g id="Device"><path class="cls-13" d="M304.36,368.28v-232c0-9.54,0-19.08.06-28.61.06-8,.69-16.4-2.28-24.11a36.47,36.47,0,0,0-13.95-17.17c-7.41-5-16.29-6.72-25.43-6.93-10.51-.24-21,0-31.55,0H133.48c-9.27,0-18.2.25-26.79,3.68A35.68,35.68,0,0,0,88.37,79.36c-4,7.8-4.1,15.84-4.11,24.26,0,9.67,0,19.33,0,29V392.92c0,8.07-.78,16.46,1.35,24.38,3.35,12.46,13.66,22.75,27.62,26.38,8.86,2.3,18.52,1.56,27.64,1.6q16.38.08,32.76.05c21.69,0,43.39-.1,65.08-.13h16.57a114.76,114.76,0,0,0,14.37-.43,43.85,43.85,0,0,0,20.17-7.9,35.64,35.64,0,0,0,12.39-16.08c3-7.84,2.12-16.33,2.12-24.46Z" transform="translate(-32.56 -59.34)"/><rect class="cls-12" x="65.05" y="12.54" width="193.42" height="360.84" rx="25.32"/><rect class="cls-13" x="130.25" y="2.62" width="73.38" height="28.51" rx="9.07"/><line class="cls-15" x1="81.35" y1="39.86" x2="110.55" y2="39.86"/><line class="cls-15" x1="81.35" y1="47.8" x2="110.55" y2="47.8"/><line class="cls-15" x1="81.35" y1="55.74" x2="110.55" y2="55.74"/><path class="cls-16" d="M255.86,117a1.71,1.71,0,1,1-1.7-1.71A1.71,1.71,0,0,1,255.86,117Z" transform="translate(-32.56 -59.34)"/><path class="cls-16" d="M264.8,117.2a1.71,1.71,0,1,1-1.7-1.71A1.71,1.71,0,0,1,264.8,117.2Z" transform="translate(-32.56 -59.34)"/><polyline class="cls-16" points="212.41 40.4 217.62 40.4 219.51 54.41 233.4 54.09"/><polyline class="cls-16" points="218.17 42.74 234.93 42.74 233.4 51.52 219.12 51.52"/><circle class="cls-10" cx="235.63" cy="42.59" r="6.56"/><text class="cls-17" transform="translate(233.29 45.34)">6</text><rect class="cls-10" x="125.35" y="47.05" width="72.55" height="4.21"/><rect class="cls-10" x="120.07" y="331.02" width="83.4" height="26.02" rx="11.08"/><text class="cls-18" transform="translate(150.34 347.98)">P<tspan class="cls-19" x="6.46" y="0">A</tspan><tspan class="cls-20" x="13.93" y="0">Y</tspan></text><rect class="cls-21" x="84.05" y="72.32" width="75.72" height="60.8"/><rect class="cls-21" x="163.78" y="72.32" width="75.72" height="79.48"/><rect class="cls-21" x="84.05" y="137.66" width="75.72" height="83.38"/><rect class="cls-21" x="163.78" y="155.55" width="75.72" height="89.76"/><rect class="cls-21" x="84.05" y="225.45" width="75.72" height="92.8"/><rect class="cls-21" x="163.78" y="249.65" width="75.72" height="68.61"/><path class="cls-12" d="M259.76,184.46l1.16-38.89-29.21-.44L231.28,167l-19.81,17.35S259.62,185,259.76,184.46Z" transform="translate(-32.56 -59.34)"/><path class="cls-22" d="M230.35,174.19l-5.57-4.26c-.63-.49,0-1.57.64-1.08l5.56,4.26c.63.48,0,1.57-.63,1.08Z" transform="translate(-32.56 -59.34)"/><path class="cls-22" d="M227.31,176.76l-5.56-4.27c-.63-.48,0-1.57.63-1.08l5.57,4.27c.63.48,0,1.57-.64,1.08Z" transform="translate(-32.56 -59.34)"/><path class="cls-22" d="M219.35,169.15c4.24.88,8.55-1.29,11.62-4a.47.47,0,0,0,.16-.21.48.48,0,0,0,.05-.33,21.12,21.12,0,0,0-2.24-9.07c-1.19-2.31-4.49-6.64-7.45-4.15-4,3.33.64,8.07,4.52,11.08-4-1.09-9.25-1.92-10.61,1.2C214.2,166.4,217,168.65,219.35,169.15Zm10-9a22.09,22.09,0,0,1,.58,3.52c-2.75-1.74-9.63-6.1-8.33-10s5.19.46,6.12,2.17A18.26,18.26,0,0,1,229.3,160.12ZM219.13,163c3.38-.29,7.09.79,10.28,1.86-2.75,2.22-6.45,3.92-10,3.07C216.16,167.11,215.3,163.29,219.13,163Z" transform="translate(-32.56 -59.34)"/><path class="cls-10" d="M259.76,182.51c0,.16-5.16.2-12,.19-.21-2.46.17-5.93,3.38-7.92,2.78-1.72,6.41-1.84,9-1.63Z" transform="translate(-32.56 -59.34)"/><g class="cls-23"><path d="M259.76,182.51c0,.16-5.16.2-12,.19-.21-2.46.17-5.93,3.38-7.92,2.78-1.72,6.41-1.84,9-1.63Z" transform="translate(-32.56 -59.34)"/></g><polygon class="cls-10" points="227.25 123.51 180.59 123.51 181.73 122.51 227.28 122.51 227.25 123.51"/><path class="cls-10" d="M244.65,167.6s13-10,9.22-14.52-8.72,3.69-8.72,3.69-3.22-7.19-7.46-5.29S244.65,167.6,244.65,167.6Z" transform="translate(-32.56 -59.34)"/><path class="cls-16" d="M259.76,184.46l1.16-38.89-29.21-.44L231.28,167l-19.81,17.35S259.62,185,259.76,184.46Z" transform="translate(-32.56 -59.34)"/><text class="cls-24" transform="translate(169.84 137.66)">$ 120</text><line class="cls-25" x1="170.4" y1="145.69" x2="199.22" y2="145.69"/><line class="cls-25" x1="170.4" y1="141.78" x2="232.87" y2="141.78"/><path class="cls-3" d="M230.44,336.16,232.6,319l17.74-.85V343.7s.47,8.21-4.91,9.15-24,.21-24,.21-11.6-1.53-11.6-7.94C209.79,340.22,215.58,335.27,230.44,336.16Z" transform="translate(-32.56 -59.34)"/><path class="cls-10" d="M250.84,343.7V317.62l-18.68.9L230,335.63c-10.8-.56-15.9,2-18.27,4.2a7.19,7.19,0,0,0-2.44,5.29c0,6.77,11.54,8.37,12.08,8.44s7.09.27,13.5.27a77.6,77.6,0,0,0,10.65-.49C251.27,352.33,250.86,344,250.84,343.7Zm-1-1.59a8,8,0,0,0-1.63-.19,8.37,8.37,0,0,0-1.81.21c.64-5.39.94-14.51,1-18.9l2.39-.08Zm-8.64-18.66c.16,4.25.33,15.81-2.22,18.57s-13.73,3-20.59,2.79v-3.1l2.07,0c4.76,0,12.77-.31,14.44-2.37s2.31-11.71,2.46-15.78Zm-22.81,22.36c1,0,2.06,0,3.26,0,6.45,0,15.61-.49,18.06-3.15,2.84-3.07,2.66-14.92,2.49-19.29l4.25-.14c-.16,6.55-.53,14.69-1.07,19.16a8.31,8.31,0,0,0-5.26,5.92,26.15,26.15,0,0,1-7.69.51c-5-.29-10.81-.41-14-.46Zm8.74-9.25c1.06,0,2.15,0,3.28.1l.47,0,1.63-12.94,3.84-.13c-.18,4.79-.78,13.34-2.22,15.12s-9.71,2.11-15.74,2v-3.16A34.6,34.6,0,0,1,227.13,336.56Zm-5.68,16a28.3,28.3,0,0,1-3.06-.66V349.4c3.23.05,9,.17,14,.46.82.05,1.58.07,2.31.07a24.64,24.64,0,0,0,5.25-.5,7.38,7.38,0,0,0,0,.82,8.28,8.28,0,0,0,.4,2.5C232.84,353,221.56,352.57,221.45,352.57Z" transform="translate(-32.56 -59.34)"/><g class="cls-23"><path d="M250.84,343.7V317.62l-18.68.9L230,335.63c-10.8-.56-15.9,2-18.27,4.2a7.19,7.19,0,0,0-2.44,5.29c0,6.77,11.54,8.37,12.08,8.44s7.09.27,13.5.27a77.6,77.6,0,0,0,10.65-.49C251.27,352.33,250.86,344,250.84,343.7Zm-1-1.59a8,8,0,0,0-1.63-.19,8.37,8.37,0,0,0-1.81.21c.64-5.39.94-14.51,1-18.9l2.39-.08Zm-8.64-18.66c.16,4.25.33,15.81-2.22,18.57s-13.73,3-20.59,2.79v-3.1l2.07,0c4.76,0,12.77-.31,14.44-2.37s2.31-11.71,2.46-15.78Zm-22.81,22.36c1,0,2.06,0,3.26,0,6.45,0,15.61-.49,18.06-3.15,2.84-3.07,2.66-14.92,2.49-19.29l4.25-.14c-.16,6.55-.53,14.69-1.07,19.16a8.31,8.31,0,0,0-5.26,5.92,26.15,26.15,0,0,1-7.69.51c-5-.29-10.81-.41-14-.46Zm8.74-9.25c1.06,0,2.15,0,3.28.1l.47,0,1.63-12.94,3.84-.13c-.18,4.79-.78,13.34-2.22,15.12s-9.71,2.11-15.74,2v-3.16A34.6,34.6,0,0,1,227.13,336.56Zm-5.68,16a28.3,28.3,0,0,1-3.06-.66V349.4c3.23.05,9,.17,14,.46.82.05,1.58.07,2.31.07a24.64,24.64,0,0,0,5.25-.5,7.38,7.38,0,0,0,0,.82,8.28,8.28,0,0,0,.4,2.5C232.84,353,221.56,352.57,221.45,352.57Z" transform="translate(-32.56 -59.34)"/></g><path class="cls-12" d="M241.61,338.27l2.16-17.16,17.74-.85v25.55S262,354,256.6,355s-24,.21-24,.21-11.6-1.53-11.6-7.94C221,342.33,226.74,337.38,241.61,338.27Z" transform="translate(-32.56 -59.34)"/><path class="cls-10" d="M262,345.81V319.73l-18.68.9-2.16,17.11c-10.8-.56-15.9,2-18.27,4.2a7.18,7.18,0,0,0-2.44,5.29c0,6.77,11.54,8.37,12.08,8.44s7.09.27,13.5.27a77.6,77.6,0,0,0,10.65-.49C262.44,354.44,262,346.14,262,345.81Zm-1-1.59a8,8,0,0,0-1.63-.19,8.37,8.37,0,0,0-1.81.21c.64-5.39.94-14.52,1.05-18.9l2.39-.08Zm-8.64-18.67c.16,4.26.33,15.81-2.22,18.58s-13.73,2.95-20.59,2.79v-3.1l2.07,0c4.76,0,12.77-.31,14.44-2.37s2.31-11.71,2.45-15.79Zm-22.81,22.37c.95,0,2.06,0,3.26,0,6.44,0,15.61-.49,18.06-3.15,2.84-3.07,2.66-14.92,2.49-19.29l4.25-.14c-.17,6.55-.53,14.69-1.08,19.16a8.32,8.32,0,0,0-5.25,5.92,26.2,26.2,0,0,1-7.7.51c-5-.29-10.8-.41-14-.46Zm8.74-9.25c1.06,0,2.15,0,3.28.1l.47,0,1.63-12.94,3.84-.13c-.18,4.79-.78,13.34-2.22,15.12s-9.71,2.11-15.74,2v-3.16A34.6,34.6,0,0,1,238.3,338.67Zm-5.68,16a26.6,26.6,0,0,1-3.06-.67v-2.5c3.23.05,9,.17,14,.46.81,0,1.58.07,2.31.07a24.64,24.64,0,0,0,5.25-.5,7.38,7.38,0,0,0,0,.82,8.28,8.28,0,0,0,.4,2.5C244,355.11,232.73,354.68,232.62,354.68Z" transform="translate(-32.56 -59.34)"/><text class="cls-24" transform="translate(169.99 304.75)">$ 10</text><line class="cls-25" x1="170.55" y1="312.78" x2="199.36" y2="312.78"/><line class="cls-25" x1="170.55" y1="308.87" x2="233.01" y2="308.87"/><text class="cls-24" transform="translate(90.39 122.51)">$ 35</text><line class="cls-25" x1="90.95" y1="130.54" x2="119.77" y2="130.54"/><line class="cls-25" x1="90.95" y1="126.64" x2="153.42" y2="126.64"/><path class="cls-10" d="M183,171.61c0-.13,0-.25,0-.38,0-13.51-11.45-24.47-25.57-24.47s-25.58,11-25.58,24.47c0,.13,0,.25,0,.38Z" transform="translate(-32.56 -59.34)"/><line class="cls-16" x1="99.35" y1="112.27" x2="150.48" y2="112.27"/><line class="cls-16" x1="103.21" y1="112.27" x2="103.21" y2="107.03"/><line class="cls-16" x1="117.97" y1="111.92" x2="117.97" y2="106.68"/><line class="cls-16" x1="136.44" y1="112.25" x2="136.44" y2="107"/><line class="cls-16" x1="106.9" y1="112.14" x2="106.9" y2="108.66"/><line class="cls-16" x1="140.13" y1="112.34" x2="140.13" y2="108.87"/><line class="cls-16" x1="125.36" y1="112.14" x2="125.36" y2="109.07"/><line class="cls-16" x1="143.82" y1="111.93" x2="143.82" y2="107.85"/><line class="cls-16" x1="114.28" y1="111.92" x2="114.28" y2="108.44"/><line class="cls-16" x1="147.51" y1="112.34" x2="147.51" y2="109.3"/><line class="cls-16" x1="121.67" y1="111.92" x2="121.67" y2="108.44"/><line class="cls-16" x1="132.74" y1="111.92" x2="132.74" y2="108.44"/><line class="cls-16" x1="110.59" y1="111.92" x2="110.59" y2="107.33"/><line class="cls-16" x1="129.05" y1="111.95" x2="129.05" y2="107.36"/><circle class="cls-26" cx="124.91" cy="83.12" r="7.38"/><path class="cls-12" d="M138.7,162.7h0a.6.6,0,0,1-.6-.6v-2.6a.6.6,0,0,1,.6-.6h0a.6.6,0,0,1,.6.6v2.6A.6.6,0,0,1,138.7,162.7Z" transform="translate(-32.56 -59.34)"/><path class="cls-12" d="M145.43,166h0a.58.58,0,0,1-.59-.59v-2.61a.59.59,0,0,1,.59-.6h0a.6.6,0,0,1,.6.6v2.61A.59.59,0,0,1,145.43,166Z" transform="translate(-32.56 -59.34)"/><path class="cls-12" d="M143.37,158.47h0a.6.6,0,0,1-.6-.6v-2.61a.59.59,0,0,1,.6-.59h0a.59.59,0,0,1,.6.59v2.61A.6.6,0,0,1,143.37,158.47Z" transform="translate(-32.56 -59.34)"/><path class="cls-12" d="M149.94,161.45h0a.59.59,0,0,1-.6-.59v-2.61a.6.6,0,0,1,.6-.6h0a.6.6,0,0,1,.6.6v2.61A.59.59,0,0,1,149.94,161.45Z" transform="translate(-32.56 -59.34)"/><path class="cls-12" d="M154.23,165.25h0a.59.59,0,0,1-.6-.59v-2.61a.6.6,0,0,1,.6-.6h0a.6.6,0,0,1,.6.6v2.61A.59.59,0,0,1,154.23,165.25Z" transform="translate(-32.56 -59.34)"/><path class="cls-12" d="M158.9,162.06h0a.6.6,0,0,1-.6-.6v-2.61a.6.6,0,0,1,.6-.6h0a.6.6,0,0,1,.6.6v2.61A.6.6,0,0,1,158.9,162.06Z" transform="translate(-32.56 -59.34)"/><path class="cls-12" d="M162,155.7h0a.59.59,0,0,1-.59-.6v-2.61a.58.58,0,0,1,.59-.59h0a.59.59,0,0,1,.6.59v2.61A.6.6,0,0,1,162,155.7Z" transform="translate(-32.56 -59.34)"/><path class="cls-12" d="M164.6,165.25h0a.59.59,0,0,1-.6-.59v-2.61a.6.6,0,0,1,.6-.6h0a.6.6,0,0,1,.6.6v2.61A.59.59,0,0,1,164.6,165.25Z" transform="translate(-32.56 -59.34)"/><path class="cls-12" d="M167.64,160.37h0a.59.59,0,0,1-.59-.6v-2.61a.58.58,0,0,1,.59-.59h0a.59.59,0,0,1,.6.59v2.61A.6.6,0,0,1,167.64,160.37Z" transform="translate(-32.56 -59.34)"/><path class="cls-12" d="M172.69,165.53h0a.6.6,0,0,1-.6-.6v-2.61a.6.6,0,0,1,.6-.6h0a.6.6,0,0,1,.6.6v2.61A.6.6,0,0,1,172.69,165.53Z" transform="translate(-32.56 -59.34)"/><path class="cls-12" d="M178.83,166.5h0a.6.6,0,0,1-.6-.6v-2.6a.6.6,0,0,1,.6-.6h0a.59.59,0,0,1,.59.6v2.6A.59.59,0,0,1,178.83,166.5Z" transform="translate(-32.56 -59.34)"/><path class="cls-12" d="M173.89,158.47h0a.6.6,0,0,1-.6-.6v-2.61a.59.59,0,0,1,.6-.59h0a.58.58,0,0,1,.59.59v2.61A.59.59,0,0,1,173.89,158.47Z" transform="translate(-32.56 -59.34)"/><path class="cls-12" d="M167.05,153.47h0a.6.6,0,0,1-.6-.6v-2.6a.6.6,0,0,1,.6-.6h0a.59.59,0,0,1,.59.6v2.6A.59.59,0,0,1,167.05,153.47Z" transform="translate(-32.56 -59.34)"/><path class="cls-12" d="M147.44,154h0a.58.58,0,0,1-.59-.59v-2.61a.59.59,0,0,1,.59-.6h0a.6.6,0,0,1,.6.6v2.61A.59.59,0,0,1,147.44,154Z" transform="translate(-32.56 -59.34)"/><path class="cls-12" d="M154.47,155.7h0a.6.6,0,0,1-.6-.6v-2.61a.59.59,0,0,1,.6-.59h0a.59.59,0,0,1,.6.59v2.61A.6.6,0,0,1,154.47,155.7Z" transform="translate(-32.56 -59.34)"/><text class="cls-24" transform="translate(91.01 205.11)">$ 80</text><line class="cls-25" x1="91.57" y1="213.15" x2="120.38" y2="213.15"/><line class="cls-25" x1="91.57" y1="209.24" x2="154.03" y2="209.24"/><path class="cls-27" d="M166.88,249.55l-25.49.14v2.84a2.93,2.93,0,0,0,2.95,2.91l21.26-.11a2.94,2.94,0,0,0,2.92-3l-.06-2.87C168,249.5,167.46,249.55,166.88,249.55Z" transform="translate(-32.56 -59.34)"/><line class="cls-26" x1="111" y1="190.36" x2="111.02" y2="195.84"/><line class="cls-26" x1="113.27" y1="190.61" x2="113.3" y2="196.1"/><line class="cls-26" x1="115.54" y1="190.45" x2="115.57" y2="195.94"/><line class="cls-26" x1="117.81" y1="190.47" x2="117.84" y2="195.95"/><line class="cls-26" x1="120.08" y1="190.52" x2="120.11" y2="196.01"/><line class="cls-26" x1="122.35" y1="190.56" x2="122.38" y2="196.05"/><line class="cls-26" x1="124.62" y1="190.41" x2="124.65" y2="195.89"/><line class="cls-26" x1="126.89" y1="190.42" x2="126.92" y2="195.9"/><line class="cls-26" x1="129.16" y1="190.47" x2="129.19" y2="195.96"/><line class="cls-26" x1="131.43" y1="190.43" x2="131.46" y2="195.91"/><line class="cls-26" x1="133.7" y1="190.32" x2="133.73" y2="195.8"/><rect class="cls-27" x="113.21" y="145.69" width="18.15" height="7.82" rx="1.2"/><line class="cls-16" x1="115.83" y1="145.69" x2="115.83" y2="152.79"/><line class="cls-16" x1="118.41" y1="145.69" x2="118.41" y2="152.79"/><line class="cls-16" x1="120.99" y1="145.69" x2="120.99" y2="152.79"/><line class="cls-16" x1="123.57" y1="145.69" x2="123.57" y2="152.79"/><line class="cls-16" x1="126.16" y1="145.69" x2="126.16" y2="152.79"/><line class="cls-16" x1="128.74" y1="145.69" x2="128.74" y2="152.79"/><path class="cls-12" d="M166.64,249.79,143,250c-2.63.08-5.66-2.13-5.74-4.76l0-4.31-.16-29.08h34.58l-.19,32.32C171.54,246.81,169.28,249.71,166.64,249.79Z" transform="translate(-32.56 -59.34)"/><circle class="cls-10" cx="109.95" cy="183.9" r="2.6"/><circle class="cls-10" cx="115.52" cy="175.19" r="2.6"/><circle class="cls-10" cx="123.42" cy="184.34" r="2.6"/><circle class="cls-10" cx="131.24" cy="174.84" r="2.6"/><circle class="cls-10" cx="134.85" cy="183.9" r="2.6"/><circle class="cls-10" cx="122.91" cy="166.03" r="2.6"/><path class="cls-10" d="M168.84,218.54a2.6,2.6,0,1,1-2.6-2.6A2.61,2.61,0,0,1,168.84,218.54Z" transform="translate(-32.56 -59.34)"/><circle class="cls-10" cx="111.73" cy="159.2" r="2.6"/><path class="cls-10" d="M139.55,224a3.28,3.28,0,0,0-2.38,1.17v3.26a3.35,3.35,0,0,0,2.39.77,2.6,2.6,0,1,0,0-5.2Z" transform="translate(-32.56 -59.34)"/><path class="cls-10" d="M171.65,229.18l-.16-5.17h-.09a2.6,2.6,0,0,0,0,5.2Z" transform="translate(-32.56 -59.34)"/><path class="cls-10" d="M152.34,213.34a2.6,2.6,0,1,0,4.74-1.49l-4.35.14A2.57,2.57,0,0,0,152.34,213.34Z" transform="translate(-32.56 -59.34)"/><path class="cls-16" d="M137.07,211.85v31.9a6.14,6.14,0,0,0,6.14,6.14h22.3a6.14,6.14,0,0,0,6.14-6.14v-31.9Z" transform="translate(-32.56 -59.34)"/><rect class="cls-27" x="173.8" y="236.78" width="10.41" height="7.82" rx="1.2" transform="translate(-126.66 57.29) rotate(-28.93)"/><line class="cls-16" x1="146.01" y1="186.08" x2="142.58" y2="179.86"/><line class="cls-16" x1="148.38" y1="184.84" x2="144.95" y2="178.63"/><line class="cls-16" x1="150.68" y1="183.46" x2="147.25" y2="177.24"/><path class="cls-10" d="M171.83,211.62a5.1,5.1,0,0,1,.43.67l10.31,19.76a5.57,5.57,0,0,1-2.36,7.51L177.38,241a5.55,5.55,0,0,1-5.55-.24Z" transform="translate(-32.56 -59.34)"/><rect class="cls-27" x="124.51" y="236.73" width="10.41" height="7.82" rx="1.2" transform="translate(94.26 454.66) rotate(-151.07)"/><line class="cls-16" x1="97.58" y1="186.02" x2="101.01" y2="179.81"/><line class="cls-16" x1="95.2" y1="184.78" x2="98.64" y2="178.57"/><line class="cls-16" x1="92.9" y1="183.4" x2="96.34" y2="177.19"/><path class="cls-10" d="M136.88,211.56a5.79,5.79,0,0,0-.42.67L126.14,232a5.58,5.58,0,0,0,2.36,7.51l2.83,1.47a5.57,5.57,0,0,0,5.55-.23Z" transform="translate(-32.56 -59.34)"/><text class="cls-24" transform="translate(172.12 231.01)">$ 65</text><line class="cls-25" x1="172.68" y1="239.05" x2="201.5" y2="239.05"/><line class="cls-25" x1="172.68" y1="235.14" x2="235.14" y2="235.14"/><polygon class="cls-10" points="188.87 203.87 181.81 221.87 202.22 221.87 222.63 221.87 215.57 203.87 188.87 203.87"/><g class="cls-14"><polygon points="188.87 203.87 181.81 221.87 202.22 221.87 222.63 221.87 215.57 203.87 188.87 203.87"/></g><path class="cls-28" d="M220.69,250l-12.76-7.74-.87,1.42a1.71,1.71,0,0,0,.58,2.35l10.65,6.47a1.72,1.72,0,0,0,2.36-.58l.85-1.45C221.26,250.31,221,250.18,220.69,250Z" transform="translate(-32.56 -59.34)"/><line class="cls-29" x1="176.21" y1="183.43" x2="174.6" y2="186.09"/><line class="cls-29" x1="177.26" y1="184.25" x2="175.65" y2="186.9"/><line class="cls-29" x1="178.44" y1="184.87" x2="176.83" y2="187.52"/><line class="cls-29" x1="179.58" y1="185.57" x2="177.96" y2="188.23"/><line class="cls-29" x1="180.69" y1="186.29" x2="179.08" y2="188.95"/><line class="cls-29" x1="181.81" y1="187.01" x2="180.2" y2="189.66"/><line class="cls-29" x1="182.99" y1="187.63" x2="181.38" y2="190.28"/><line class="cls-29" x1="184.13" y1="188.33" x2="182.51" y2="190.99"/><line class="cls-29" x1="185.24" y1="189.05" x2="183.63" y2="191.71"/><line class="cls-29" x1="186.39" y1="189.73" x2="184.78" y2="192.38"/><line class="cls-29" x1="187.56" y1="190.37" x2="185.95" y2="193.02"/><path class="cls-10" d="M216.49,223.23l0-.38-9.73,16a3,3,0,0,0,1,4.16l9.49,5.66Z" transform="translate(-32.56 -59.34)"/><path class="cls-28" d="M260.3,240.53l-12.11,8.73,1,1.34a1.7,1.7,0,0,0,2.39.39l10.11-7.27a1.72,1.72,0,0,0,.39-2.4l-1-1.35C260.82,240.13,260.58,240.33,260.3,240.53Z" transform="translate(-32.56 -59.34)"/><line class="cls-29" x1="216.42" y1="189.34" x2="218.24" y2="191.86"/><line class="cls-29" x1="217.59" y1="188.69" x2="219.4" y2="191.21"/><line class="cls-29" x1="218.62" y1="187.84" x2="220.44" y2="190.36"/><line class="cls-29" x1="219.71" y1="187.08" x2="221.52" y2="189.6"/><line class="cls-29" x1="220.81" y1="186.33" x2="222.62" y2="188.85"/><line class="cls-29" x1="221.91" y1="185.58" x2="223.72" y2="188.1"/><line class="cls-29" x1="222.94" y1="184.73" x2="224.75" y2="187.25"/><line class="cls-29" x1="224.03" y1="183.97" x2="225.84" y2="186.49"/><line class="cls-29" x1="225.13" y1="183.22" x2="226.94" y2="185.74"/><line class="cls-29" x1="226.2" y1="182.43" x2="228.01" y2="184.95"/><line class="cls-29" x1="227.25" y1="181.61" x2="229.06" y2="184.13"/><path class="cls-10" d="M250.52,222.2l0-.4,10.72,15.37a3,3,0,0,1-.79,4.21l-9.12,6.24Z" transform="translate(-32.56 -59.34)"/><path class="cls-28" d="M246.57,259.64l-25.48.78.09,2.84a2.93,2.93,0,0,0,3,2.83l21.25-.65a2.93,2.93,0,0,0,2.84-3l-.13-2.86C247.68,259.56,247.15,259.62,246.57,259.64Z" transform="translate(-32.56 -59.34)"/><line class="cls-28" x1="190.21" y1="201.03" x2="190.37" y2="206.33"/><line class="cls-28" x1="192.49" y1="201.22" x2="192.65" y2="206.52"/><line class="cls-28" x1="194.75" y1="201.01" x2="194.92" y2="206.31"/><line class="cls-28" x1="197.02" y1="200.96" x2="197.19" y2="206.26"/><line class="cls-28" x1="199.3" y1="200.96" x2="199.46" y2="206.25"/><line class="cls-28" x1="201.57" y1="200.94" x2="201.73" y2="206.24"/><line class="cls-28" x1="203.83" y1="200.73" x2="204" y2="206.03"/><line class="cls-28" x1="206.1" y1="200.68" x2="206.27" y2="205.98"/><line class="cls-28" x1="208.38" y1="200.68" x2="208.54" y2="205.97"/><line class="cls-28" x1="210.64" y1="200.58" x2="210.81" y2="205.87"/><line class="cls-28" x1="212.91" y1="200.41" x2="213.07" y2="205.71"/><path class="cls-10" d="M217,222.32h34a0,0,0,0,1,0,0v32.92a4.77,4.77,0,0,1-4.77,4.77h-24.5a4.77,4.77,0,0,1-4.77-4.77V222.32a0,0,0,0,1,0,0Z" transform="translate(-39.86 -52.03) rotate(-1.76)"/><g class="cls-14"><path d="M217,222.32h34a0,0,0,0,1,0,0v32.92a4.77,4.77,0,0,1-4.77,4.77h-24.5a4.77,4.77,0,0,1-4.77-4.77V222.32a0,0,0,0,1,0,0Z" transform="translate(-39.86 -52.03) rotate(-1.76)"/></g><path class="cls-30" d="M247.18,236.17a2.36,2.36,0,1,1-2.36-2.36A2.36,2.36,0,0,1,247.18,236.17Z" transform="translate(-32.56 -59.34)"/><path class="cls-12" d="M223.48,222.64l-3.79.11A6.84,6.84,0,0,0,219,226a7,7,0,0,0,7.25,6.72,7.06,7.06,0,0,0,6.59-5.11C228.46,227.61,224.74,225.55,223.48,222.64Z" transform="translate(-32.56 -59.34)"/><path class="cls-12" d="M246.54,221.93l-4,.12c-1.06,2.95-4.56,5.21-8.85,5.49a7.05,7.05,0,0,0,13.52-2.92A6.73,6.73,0,0,0,246.54,221.93Z" transform="translate(-32.56 -59.34)"/><text class="cls-24" transform="translate(90.67 304.64)">$ 75</text><line class="cls-25" x1="91.23" y1="312.68" x2="120.05" y2="312.68"/><line class="cls-25" x1="91.23" y1="308.77" x2="153.7" y2="308.77"/><polygon class="cls-10" points="120.01 235.14 125.54 295.6 153.61 295.6 135.96 236.68 120.01 235.14"/><polygon class="cls-31" points="120.01 235.14 125.54 295.6 153.61 295.6 135.96 236.68 120.01 235.14"/><polyline class="cls-16" points="120.01 235.14 125.54 295.6 153.61 295.6"/><polygon class="cls-10" points="109.59 236.68 91.57 295.1 118.7 295.57 125.05 236.68 109.59 236.68"/><polygon class="cls-31" points="109.59 236.68 91.57 295.1 118.7 295.57 125.05 236.68 109.59 236.68"/><polyline class="cls-16" points="91.57 295.1 118.7 295.57 123.39 252.1 127.17 252.1"/><rect class="cls-10" x="109.21" y="232.35" width="27.14" height="5.58"/><line class="cls-16" x1="134.44" y1="241.42" x2="138.94" y2="246.64"/><line class="cls-16" x1="111.18" y1="241.42" x2="106.67" y2="246.64"/></g><g id="Characters"><path class="cls-32" d="M532.12,212.85a5.36,5.36,0,0,0-3.37-1.28c-2.09,0-2.79-1.65-4-3-2.75-3-5.2-4-5.81-2.32s3.57,6.79,5.38,9.23S519.25,233,519.25,233s11.54,4.86,12.36,4.25,8.92-14.91,10.23-20.6,1.27-10.76.53-11.19-11-3.3-12.93-3.07-3.51,7.69-3.51,7.69" transform="translate(-32.56 -59.34)"/><path class="cls-32" d="M531.25,204s-.45-10.09-2.44-10.84-2.28,4.1-2.4,6.9.16,6.77.1,7.68" transform="translate(-32.56 -59.34)"/><polygon class="cls-1" points="480.54 115.8 526.22 118.8 533.43 58.36 480.63 55.98 480.54 115.8"/><path class="cls-3" d="M552.91,170a92.15,92.15,0,0,1-5.22,21.13c-1.89,4.85-4.38,10-8.32,13.53-2.64,2.37-6.12,3.54-9.28,1.45-3.8-2.51-5.64-7.62-6.82-11.78-2.16-7.58-2.63-15.61-2.4-23.46,0-1-1.47-1-1.5,0a81.26,81.26,0,0,0,2.09,22.53c1.2,4.69,3,10.08,6.9,13.28,8.36,6.95,16.17-4.91,19.22-11.48a86.4,86.4,0,0,0,6.78-24.8c.13-.95-1.32-1.36-1.45-.4Z" transform="translate(-32.56 -59.34)"/><polygon class="cls-10" points="495.69 104.58 541.59 129.24 577.58 70.05 524.02 42.66 495.69 104.58"/><g class="cls-14"><polygon points="495.69 104.58 541.59 129.24 577.58 70.05 524.02 42.66 495.69 104.58"/></g><path class="cls-13" d="M571.92,177.56A104.69,104.69,0,0,1,557,196.47c-4.15,4.08-8.94,8.15-14.47,10.19-3.63,1.34-8,1.66-10.69-1.56-3.39-4-3-10.43-2.43-15.25,1.15-9.29,4.63-18.3,8.73-26.65.43-.86-.86-1.62-1.29-.75-3.94,8-7.25,16.55-8.66,25.41-.87,5.44-1.4,12.14,1.66,17,6.2,9.94,19.6.4,25.44-4.78a100.38,100.38,0,0,0,17.9-21.8c.51-.82-.79-1.57-1.3-.76Z" transform="translate(-32.56 -59.34)"/><polygon class="cls-10" points="505.62 113.87 534.65 143.33 575.82 106.88 541.61 73.55 505.62 113.87"/><path class="cls-21" d="M580.4,159.08s2.54,21.39-5.13,22-4.56-11.56-4.56-11.56-9.68,3.6-11.8-2.12S580.4,159.08,580.4,159.08Z" transform="translate(-32.56 -59.34)"/><path class="cls-22" d="M568,193.7a81.9,81.9,0,0,1-16.06,11c-4.13,2.11-8.8,4.07-13.51,4.15-3.13.05-6.29-1.07-7.24-4.34-1.14-3.94.64-8.49,2.31-12A70,70,0,0,1,546,175.08c.66-.7-.39-1.76-1.06-1.06a73,73,0,0,0-12.28,16.77c-2,4-4,8.76-3.14,13.28,1.75,9.52,14.24,5.92,20.11,3.37A78.77,78.77,0,0,0,569,194.76c.74-.63-.33-1.69-1.06-1.06Z" transform="translate(-32.56 -59.34)"/><path class="cls-32" d="M538.6,201.92a1.66,1.66,0,0,1,.36-.36,1.93,1.93,0,0,1,2.5.2c1.84,1.36,1,5.62-.31,8s-3.65,1.92-3.88-.73S538.6,201.92,538.6,201.92Z" transform="translate(-32.56 -59.34)"/><path class="cls-32" d="M535.7,200.36s-1.24.2-1.87,5,1.34,4.91,2,4.77,1.53-.57,2.07-2.21,1.59-6.41.2-7.38A2.07,2.07,0,0,0,535.7,200.36Z" transform="translate(-32.56 -59.34)"/><path class="cls-32" d="M534.35,200.1a2.42,2.42,0,0,0-3.29-.62c-2,1.23-2,8.25-.89,9.5s2.83.34,3.24-.47S535.34,201.91,534.35,200.1Z" transform="translate(-32.56 -59.34)"/><path class="cls-10" d="M472.82,253.79l25.4,5.84,19.94-30.46L535,235.7l-4.92,42.12s-7.05,22-20.92,20.48S472.82,253.79,472.82,253.79Z" transform="translate(-32.56 -59.34)"/><g class="cls-11"><path class="cls-12" d="M472.82,253.79l25.4,5.84,19.94-30.46L535,235.7l-4.92,42.12s-7.05,22-20.92,20.48S472.82,253.79,472.82,253.79Z" transform="translate(-32.56 -59.34)"/></g><line class="cls-15" x1="440.26" y1="194.46" x2="465.66" y2="200.29"/><path class="cls-33" d="M514.82,234.34l19.48,6.95c.52-4.4.71-7.42.71-7.42l-16.14-5.79Z" transform="translate(-32.56 -59.34)"/><line class="cls-15" x1="488.12" y1="169.29" x2="484.88" y2="175.94"/><line class="cls-15" x1="491.19" y1="170.49" x2="488.52" y2="177.24"/><line class="cls-15" x1="494.55" y1="171.7" x2="492.17" y2="178.54"/><line class="cls-15" x1="497.65" y1="172.89" x2="495.8" y2="179.83"/><line class="cls-15" x1="500.04" y1="173.67" x2="498.61" y2="180.84"/><polyline class="cls-15" points="462.67 204.86 486.31 168.74 502.45 174.54"/><ellipse class="cls-13" cx="487.12" cy="182.13" rx="2.24" ry="2.29"/><path class="cls-13" d="M528.16,251.34a2.24,2.24,0,1,1-2.23-2.29A2.26,2.26,0,0,1,528.16,251.34Z" transform="translate(-32.56 -59.34)"/><ellipse class="cls-13" cx="493.81" cy="213.32" rx="2.24" ry="2.29"/><path class="cls-13" d="M506.15,265.84a2.24,2.24,0,1,1-2.23-2.29A2.27,2.27,0,0,1,506.15,265.84Z" transform="translate(-32.56 -59.34)"/><path class="cls-13" d="M514.41,279.22a2.24,2.24,0,1,1-2.24-2.3A2.27,2.27,0,0,1,514.41,279.22Z" transform="translate(-32.56 -59.34)"/><ellipse class="cls-13" cx="456.57" cy="203.86" rx="2.24" ry="2.29"/><ellipse class="cls-13" cx="478.08" cy="192.39" rx="2.24" ry="2.29"/><path class="cls-13" d="M519.6,262.52a2.24,2.24,0,1,1-1.52-2.82A2.28,2.28,0,0,1,519.6,262.52Z" transform="translate(-32.56 -59.34)"/><polygon class="cls-28" points="600.22 191.54 619.38 186.08 625.15 199.33 605.32 206.16 600.22 191.54"/><line class="cls-34" x1="601.01" y1="193.8" x2="620.72" y2="188.67"/><line class="cls-34" x1="602.18" y1="197.13" x2="621.89" y2="192"/><line class="cls-34" x1="602.92" y1="200.38" x2="622.84" y2="194.58"/><line class="cls-34" x1="604.07" y1="203.21" x2="624.14" y2="197.38"/><polygon class="cls-32" points="635.21 150.95 649.3 197.87 621.24 205.17 616.1 182.71 626.74 178.77 635.21 150.95"/><line class="cls-15" x1="627.63" y1="168.24" x2="634.93" y2="169.19"/><line class="cls-15" x1="626.57" y1="173.26" x2="633.87" y2="174.22"/><path class="cls-15" d="M659.15,236.15s-8.54-10.61-11.37-7.59C643.23,233.41,659.15,236.15,659.15,236.15Z" transform="translate(-32.56 -59.34)"/><line class="cls-15" x1="614.12" y1="177.61" x2="626.9" y2="177.08"/><path class="cls-10" d="M661.94,242.93a5.91,5.91,0,1,1-4.07,7.3A5.9,5.9,0,0,1,661.94,242.93Z" transform="translate(-32.56 -59.34)"/><path class="cls-10" d="M631.22,236.15,644,273.51l-77.31,19.18-40.6,48-32.52-28.15s32.74-42.11,42.82-47.08S631.22,236.15,631.22,236.15Z" transform="translate(-32.56 -59.34)"/><g class="cls-35"><path d="M631.22,236.15,644,273.51l-77.31,19.18-40.6,48-32.52-28.15s32.74-42.11,42.82-47.08S631.22,236.15,631.22,236.15Z" transform="translate(-32.56 -59.34)"/></g><polyline class="cls-15" points="598.66 176.82 611.39 214.18 534.09 233.35 493.48 281.39 460.96 253.23"/><line class="cls-15" x1="589.06" y1="179.6" x2="601.01" y2="216.75"/><path class="cls-10" d="M464.72,252.28c-14.87,5-22.91,45,4.59,92.59l48.07-37c-14.33-33.07-38.31-60.35-52.66-55.55" transform="translate(-32.56 -59.34)"/><g class="cls-11"><path class="cls-12" d="M464.72,252.28c-14.87,5-22.91,45,4.59,92.59l48.07-37c-14.33-33.07-38.31-60.35-52.66-55.55" transform="translate(-32.56 -59.34)"/></g><path class="cls-15" d="M517.3,307.46c-14.33-33.07-38.23-60-52.58-55.18" transform="translate(-32.56 -59.34)"/><ellipse class="cls-13" cx="447.52" cy="203.33" rx="2.24" ry="2.29"/><path class="cls-13" d="M484.64,275a2.24,2.24,0,1,1-2.23-2.3A2.26,2.26,0,0,1,484.64,275Z" transform="translate(-32.56 -59.34)"/><path class="cls-13" d="M497.52,279.34a2.24,2.24,0,1,1-2.23-2.3A2.26,2.26,0,0,1,497.52,279.34Z" transform="translate(-32.56 -59.34)"/><path class="cls-13" d="M478.27,285a2.24,2.24,0,1,1-2.24-2.3A2.27,2.27,0,0,1,478.27,285Z" transform="translate(-32.56 -59.34)"/><path class="cls-13" d="M495.68,292a2.24,2.24,0,1,1-2.24-2.29A2.27,2.27,0,0,1,495.68,292Z" transform="translate(-32.56 -59.34)"/><path class="cls-13" d="M469.25,295.38a2.24,2.24,0,1,1-2.24-2.29A2.27,2.27,0,0,1,469.25,295.38Z" transform="translate(-32.56 -59.34)"/><path class="cls-13" d="M479.4,306.41a2.24,2.24,0,1,1-2.24-2.29A2.28,2.28,0,0,1,479.4,306.41Z" transform="translate(-32.56 -59.34)"/><path class="cls-13" d="M464.35,307.46a2.24,2.24,0,1,1-2.24-2.3A2.26,2.26,0,0,1,464.35,307.46Z" transform="translate(-32.56 -59.34)"/><path class="cls-13" d="M473.83,318a2.24,2.24,0,1,1-2.23-2.29A2.27,2.27,0,0,1,473.83,318Z" transform="translate(-32.56 -59.34)"/><ellipse class="cls-13" cx="456.37" cy="261.43" rx="2.24" ry="2.29"/><path class="cls-13" d="M494.82,309.75a2.24,2.24,0,1,1-2.24-2.29A2.27,2.27,0,0,1,494.82,309.75Z" transform="translate(-32.56 -59.34)"/><path class="cls-13" d="M507.48,297.68a2.24,2.24,0,1,1-2.24-2.3A2.27,2.27,0,0,1,507.48,297.68Z" transform="translate(-32.56 -59.34)"/><path class="cls-13" d="M509.17,311a2.24,2.24,0,1,1-2.24-2.29A2.28,2.28,0,0,1,509.17,311Z" transform="translate(-32.56 -59.34)"/><polygon class="cls-32" points="208.79 335.35 221.82 320.52 237.72 332.42 223.26 348.38 208.79 335.35"/><polygon class="cls-22" points="241.47 386.48 192.62 347.88 207.16 329.03 230.07 345.77 227.54 352.18 241.47 386.48"/><path class="cls-13" d="M269.15,422l-7.26,3.78-1,.54c-.42.23-.05.87.38.65l7.26-3.79,1-.54c.42-.22.05-.87-.38-.64Z" transform="translate(-32.56 -59.34)"/><path class="cls-13" d="M266.59,416l-7.26,3.79-1,.54c-.43.22-.05.87.37.64l7.26-3.78,1-.54c.43-.22,0-.87-.38-.65Z" transform="translate(-32.56 -59.34)"/><path class="cls-22" d="M264.07,413a59.56,59.56,0,0,0,7,1.55,31.38,31.38,0,0,0,5.55.5,7.76,7.76,0,0,0,4.08-.89,3.22,3.22,0,0,0-.64-5.55,8.33,8.33,0,0,0-4.06-.21,30.08,30.08,0,0,0-5,1.18,57.86,57.86,0,0,0-7,2.73c-.43.21-.05.86.38.65,1.67-.78,3.39-1.46,5.12-2.07,2.77-1,5.86-2,8.83-1.86a3,3,0,0,1,2.67,1.3,2.61,2.61,0,0,1-.52,3.07,6.5,6.5,0,0,1-3.78.9,29.17,29.17,0,0,1-5.1-.42,59.19,59.19,0,0,1-7.31-1.6A.37.37,0,0,0,264.07,413Z" transform="translate(-32.56 -59.34)"/><path class="cls-22" d="M276.38,402.37,265.1,411l-1.63,1.24c-.38.29,0,.94.38.65l11.28-8.62,1.63-1.24c.38-.29,0-.95-.38-.65Z" transform="translate(-32.56 -59.34)"/><path class="cls-13" d="M245.43,379.91l25,18.25S327,346.73,350.07,254.73l-57.74-.31S291,292.6,245.43,379.91Z" transform="translate(-32.56 -59.34)"/><path class="cls-25" d="M350.07,254.73c-23.06,92-79.64,143.43-79.64,143.43l-25-18.25" transform="translate(-32.56 -59.34)"/><path class="cls-32" d="M371.12,393.62a253.19,253.19,0,0,1,12,34.38l19.44-6.46s-9.68-35.74-10.32-37.38S371.12,393.62,371.12,393.62Z" transform="translate(-32.56 -59.34)"/><polygon class="cls-22" points="411.84 367.11 352.28 385.26 344 359.17 370.03 351.45 375.71 359.01 411.84 367.11"/><path class="cls-13" d="M422,416.9q-.52,4.07-1,8.13l-.15,1.15c-.06.48.69.48.75,0q.53-4.06,1-8.12l.15-1.16c.06-.48-.69-.47-.75,0Z" transform="translate(-32.56 -59.34)"/><path class="cls-13" d="M415.62,415.58l-1,8.13-.15,1.15c-.06.48.69.47.75,0,.34-2.71.69-5.42,1-8.13l.14-1.15c.06-.48-.69-.47-.75,0Z" transform="translate(-32.56 -59.34)"/><path class="cls-22" d="M411.75,415.88a58.53,58.53,0,0,0,5.37-5,31.08,31.08,0,0,0,3.51-4.25,7.15,7.15,0,0,0,1.51-4A3.2,3.2,0,0,0,420,400a2.93,2.93,0,0,0-3,.47,9.19,9.19,0,0,0-2.4,3.31,31,31,0,0,0-1.77,4.64,56.3,56.3,0,0,0-1.71,7.12c-.08.47.65.67.73.2.3-1.78.71-3.54,1.17-5.29.77-2.84,1.66-6,3.46-8.36a3.29,3.29,0,0,1,2.45-1.59,2.7,2.7,0,0,1,2.43,1.87c.25,1.23-.52,2.57-1.14,3.57A27,27,0,0,1,417,410a58.49,58.49,0,0,1-5.76,5.37C410.85,415.66,411.38,416.19,411.75,415.88Z" transform="translate(-32.56 -59.34)"/><path class="cls-22" d="M410,399.79q.31,7.09.65,14.19l.09,2c0,.48.77.48.75,0q-.33-7.09-.65-14.19l-.09-2c0-.48-.78-.49-.75,0Z" transform="translate(-32.56 -59.34)"/><path class="cls-13" d="M369.91,404l31.65-8.16s-22.21-95.22-49.28-148.48L294.9,260.87S340.05,323.38,369.91,404Z" transform="translate(-32.56 -59.34)"/><path class="cls-25" d="M294.9,260.87s45.15,62.51,75,143.09l31.65-8.16" transform="translate(-32.56 -59.34)"/><polygon class="cls-32" points="365.75 109.45 357.18 130.7 346.38 127.3 350.2 113.19 353.68 102.54 364.19 103.25 365.75 109.45"/><path class="cls-32" d="M401.11,154.93s6.22-3.83,7.57-3,.51,2.38-1.31,3.87a34.85,34.85,0,0,1-4.64,3Z" transform="translate(-32.56 -59.34)"/><rect class="cls-13" x="389.85" y="139.96" width="15.56" height="29.91" rx="2.36" transform="translate(40.24 -181.18) rotate(19.15)"/><rect class="cls-12" x="390.97" y="143.63" width="13.25" height="22.78" transform="translate(40.27 -181.16) rotate(19.15)"/><rect class="cls-21" x="394.63" y="146.15" width="10.24" height="5.62" transform="translate(38.4 -182.21) rotate(19.15)"/><rect class="cls-21" x="391.06" y="156.23" width="10.24" height="5.62" transform="translate(41.51 -180.47) rotate(19.15)"/><rect class="cls-3" x="393.39" y="152.13" width="10.18" height="0.95" transform="translate(39.53 -181.59) rotate(19.15)"/><rect class="cls-3" x="392.8" y="162.93" width="7.04" height="0.95" transform="translate(42.95 -180.28) rotate(19.15)"/><rect class="cls-3" x="397.28" y="154.56" width="5.57" height="0.95" transform="translate(40.41 -181.98) rotate(19.15)"/><path class="cls-22" d="M404.16,143.44a.36.36,0,0,1-.45.22.35.35,0,0,1,.23-.67A.36.36,0,0,1,404.16,143.44Z" transform="translate(-32.56 -59.34)"/><path class="cls-22" d="M402.73,143.24l-1.87-.65a.28.28,0,0,1-.17-.35h0a.28.28,0,0,1,.36-.18l1.87.65a.29.29,0,0,1,.17.36h0A.29.29,0,0,1,402.73,143.24Z" transform="translate(-32.56 -59.34)"/><path class="cls-12" d="M384.82,188.71l-8.71-3.3,6.81-19.14s2.77-9.75,4.15-10.61,8.18-1.69,8.92-.48c1.08,1.74-1.06,2.87-2.24,3.61a20.34,20.34,0,0,1-3,1.42s1.8,4.33-.3,10.92Z" transform="translate(-32.56 -59.34)"/><path class="cls-15" d="M390.46,171.13c2.1-6.59.3-10.92.3-10.92a20.34,20.34,0,0,0,3-1.42c1.18-.74,3.31-1.8,2.4-3.31-.73-1.21-7.7-.68-9.08.18s-4.15,10.61-4.15,10.61l-6.81,19.14,8.71,3.3" transform="translate(-32.56 -59.34)"/><path class="cls-32" d="M401.76,162.52s-2.69,1.82-2.45,3.22,3.64.16,4.93-.85,1.2-2.48.52-2.92S401.76,162.52,401.76,162.52Z" transform="translate(-32.56 -59.34)"/><path class="cls-32" d="M403.92,158.66s-4,3.11-3.53,4.76,3.5,0,5-1.36,1.74-2.54,1.37-3.21A2.05,2.05,0,0,0,403.92,158.66Z" transform="translate(-32.56 -59.34)"/><path class="cls-10" d="M376.11,178.89l-12.82,16.16-33-31.65s-4.77,24.25,3.75,48.84,33.89,24.85,43.89,16.16S393.15,187,393.15,187Z" transform="translate(-32.56 -59.34)"/><path class="cls-36" d="M376.11,178.89l-12.82,16.16-33-31.65s-4.77,24.25,3.75,48.84,33.89,24.85,43.89,16.16S393.15,187,393.15,187Z" transform="translate(-32.56 -59.34)"/><path class="cls-22" d="M371,185.32,391.59,195c1-4.76,1.56-8,1.56-8l-17-8.06Z" transform="translate(-32.56 -59.34)"/><path class="cls-37" d="M372.3,191.8h0a1.47,1.47,0,0,0-2,.47l-2.43,3.88a1.46,1.46,0,0,0,.47,2h0a1.47,1.47,0,0,0,2-.47l2.43-3.88A1.47,1.47,0,0,0,372.3,191.8Z" transform="translate(-32.56 -59.34)"/><path class="cls-37" d="M384.13,194.68h0a1.49,1.49,0,0,0-2,.47L379.67,199a1.47,1.47,0,0,0,.47,2h0a1.47,1.47,0,0,0,2-.47l2.43-3.88A1.49,1.49,0,0,0,384.13,194.68Z" transform="translate(-32.56 -59.34)"/><path class="cls-37" d="M380.94,211.91h0a1.46,1.46,0,0,0-2,.46l-2.43,3.88a1.49,1.49,0,0,0,.47,2h0a1.47,1.47,0,0,0,2-.47l2.43-3.88A1.47,1.47,0,0,0,380.94,211.91Z" transform="translate(-32.56 -59.34)"/><path class="cls-37" d="M370.32,214.82h0a1.49,1.49,0,0,0-2,.47l-2.42,3.88a1.46,1.46,0,0,0,.47,2h0a1.47,1.47,0,0,0,2-.47l2.43-3.88A1.47,1.47,0,0,0,370.32,214.82Z" transform="translate(-32.56 -59.34)"/><path class="cls-37" d="M374.34,223.87h0a1.47,1.47,0,0,0-2,.47l-2.43,3.87a1.48,1.48,0,0,0,.47,2h0a1.49,1.49,0,0,0,2-.47l2.43-3.88A1.47,1.47,0,0,0,374.34,223.87Z" transform="translate(-32.56 -59.34)"/><path class="cls-37" d="M363,203.81h0a1.48,1.48,0,0,0-2,.47l-2.43,3.88a1.47,1.47,0,0,0,.47,2h0a1.49,1.49,0,0,0,2-.47l2.42-3.88A1.46,1.46,0,0,0,363,203.81Z" transform="translate(-32.56 -59.34)"/><path class="cls-37" d="M358.12,215.94h0a1.46,1.46,0,0,0-2,.47l-2.43,3.87a1.48,1.48,0,0,0,.47,2h0a1.47,1.47,0,0,0,2-.47l2.43-3.88A1.47,1.47,0,0,0,358.12,215.94Z" transform="translate(-32.56 -59.34)"/><path class="cls-37" d="M354.22,191.89h0a1.47,1.47,0,0,0-.28,2.07l2.77,3.64a1.48,1.48,0,0,0,2.07.28h0a1.48,1.48,0,0,0,.28-2.07l-2.77-3.64A1.47,1.47,0,0,0,354.22,191.89Z" transform="translate(-32.56 -59.34)"/><path class="cls-37" d="M363.5,225.56h0a1.47,1.47,0,0,0-2,.47L359,229.91a1.47,1.47,0,0,0,.47,2h0a1.47,1.47,0,0,0,2-.47l2.43-3.88A1.47,1.47,0,0,0,363.5,225.56Z" transform="translate(-32.56 -59.34)"/><path class="cls-37" d="M374.34,201.89h0a1.49,1.49,0,0,0-2,.47l-2.43,3.88a1.47,1.47,0,0,0,.47,2h0a1.47,1.47,0,0,0,2-.47l2.43-3.88A1.47,1.47,0,0,0,374.34,201.89Z" transform="translate(-32.56 -59.34)"/><line class="cls-15" x1="297.7" y1="104.07" x2="331.07" y2="136.04"/><polyline class="cls-15" points="326.25 141.35 343.55 119.56 360.59 127.61"/><path class="cls-10" d="M324.44,158.8c-19,0-34.38,40.36-34.38,90.14v9.63h68.75v-9.63C358.81,199.16,343.42,158.8,324.44,158.8Z" transform="translate(-32.56 -59.34)"/><path class="cls-36" d="M324.44,158.8c-19,0-34.38,40.36-34.38,90.14v9.63h68.75v-9.63C358.81,199.16,343.42,158.8,324.44,158.8Z" transform="translate(-32.56 -59.34)"/><path class="cls-37" d="M336.22,173h0a1.48,1.48,0,0,0-1.31,1.63l.5,4.55a1.47,1.47,0,0,0,1.63,1.3h0a1.48,1.48,0,0,0,1.31-1.63l-.5-4.54A1.47,1.47,0,0,0,336.22,173Z" transform="translate(-32.56 -59.34)"/><path class="cls-37" d="M331,184.6h0a1.48,1.48,0,0,0-1.31,1.63l.5,4.55a1.47,1.47,0,0,0,1.63,1.3h0a1.48,1.48,0,0,0,1.31-1.63l-.5-4.55A1.47,1.47,0,0,0,331,184.6Z" transform="translate(-32.56 -59.34)"/><path class="cls-37" d="M343,189.69h0a1.47,1.47,0,0,0-1.3,1.63l.5,4.55a1.48,1.48,0,0,0,1.63,1.31h0a1.48,1.48,0,0,0,1.31-1.63l-.51-4.55A1.48,1.48,0,0,0,343,189.69Z" transform="translate(-32.56 -59.34)"/><path class="cls-37" d="M317.78,191.12h0a1.48,1.48,0,0,0-1.42,1.53l.17,4.57a1.47,1.47,0,0,0,1.53,1.42h0a1.48,1.48,0,0,0,1.42-1.53l-.17-4.57A1.48,1.48,0,0,0,317.78,191.12Z" transform="translate(-32.56 -59.34)"/><path class="cls-37" d="M307.35,198.41h0a1.48,1.48,0,0,0-1.42,1.53l.17,4.57a1.48,1.48,0,0,0,1.53,1.42h0a1.47,1.47,0,0,0,1.42-1.53l-.17-4.57A1.47,1.47,0,0,0,307.35,198.41Z" transform="translate(-32.56 -59.34)"/><path class="cls-37" d="M316.79,208.5h0a1.48,1.48,0,0,0-1.42,1.53l.17,4.57a1.48,1.48,0,0,0,1.53,1.42h0a1.48,1.48,0,0,0,1.43-1.53l-.18-4.57A1.47,1.47,0,0,0,316.79,208.5Z" transform="translate(-32.56 -59.34)"/><path class="cls-37" d="M330.12,204.41h0a1.48,1.48,0,0,0-1.42,1.53l.17,4.57a1.48,1.48,0,0,0,1.53,1.43h0a1.49,1.49,0,0,0,1.42-1.54l-.17-4.57A1.48,1.48,0,0,0,330.12,204.41Z" transform="translate(-32.56 -59.34)"/><path class="cls-37" d="M343.32,209.23h0a1.47,1.47,0,0,0-1.42,1.53l.17,4.57a1.48,1.48,0,0,0,1.53,1.42h0a1.48,1.48,0,0,0,1.42-1.53l-.17-4.57A1.48,1.48,0,0,0,343.32,209.23Z" transform="translate(-32.56 -59.34)"/><path class="cls-37" d="M300.45,209.23h0a1.47,1.47,0,0,0-1.42,1.53l.17,4.57a1.48,1.48,0,0,0,1.53,1.42h0a1.48,1.48,0,0,0,1.42-1.53l-.17-4.57A1.48,1.48,0,0,0,300.45,209.23Z" transform="translate(-32.56 -59.34)"/><path class="cls-37" d="M308.5,219.88h0a1.48,1.48,0,0,0-1.42,1.53l.17,4.57a1.48,1.48,0,0,0,1.53,1.42h0a1.47,1.47,0,0,0,1.42-1.53L310,221.3A1.48,1.48,0,0,0,308.5,219.88Z" transform="translate(-32.56 -59.34)"/><path class="cls-37" d="M325.29,218.64h0a1.48,1.48,0,0,0-1.42,1.53l.17,4.57a1.47,1.47,0,0,0,1.53,1.42h0a1.48,1.48,0,0,0,1.43-1.53l-.18-4.57A1.48,1.48,0,0,0,325.29,218.64Z" transform="translate(-32.56 -59.34)"/><path class="cls-37" d="M336.33,227.29h0a1.48,1.48,0,0,0-1.43,1.53l.18,4.57a1.46,1.46,0,0,0,1.53,1.42h0a1.48,1.48,0,0,0,1.42-1.53l-.17-4.57A1.48,1.48,0,0,0,336.33,227.29Z" transform="translate(-32.56 -59.34)"/><path class="cls-37" d="M348.37,235.48h0A1.48,1.48,0,0,0,347,237l.17,4.58a1.48,1.48,0,0,0,1.53,1.42h0a1.48,1.48,0,0,0,1.42-1.53l-.17-4.58A1.48,1.48,0,0,0,348.37,235.48Z" transform="translate(-32.56 -59.34)"/><path class="cls-37" d="M326.86,239.24h0a1.48,1.48,0,0,0-1.42,1.54l.17,4.57a1.48,1.48,0,0,0,1.53,1.42h0a1.48,1.48,0,0,0,1.42-1.53l-.17-4.57A1.48,1.48,0,0,0,326.86,239.24Z" transform="translate(-32.56 -59.34)"/><path class="cls-37" d="M315.57,234.19h0a1.48,1.48,0,0,0-1.42,1.53l.17,4.57a1.48,1.48,0,0,0,1.53,1.43h0a1.49,1.49,0,0,0,1.42-1.54l-.17-4.57A1.48,1.48,0,0,0,315.57,234.19Z" transform="translate(-32.56 -59.34)"/><path class="cls-37" d="M297.32,239.24h0a1.48,1.48,0,0,0-1.42,1.54l.17,4.57a1.48,1.48,0,0,0,1.53,1.42h0a1.48,1.48,0,0,0,1.42-1.53l-.17-4.57A1.48,1.48,0,0,0,297.32,239.24Z" transform="translate(-32.56 -59.34)"/><path class="cls-37" d="M352.84,246.24h0a1.47,1.47,0,0,0-1.42,1.53l.17,4.57a1.47,1.47,0,0,0,1.53,1.42h0a1.48,1.48,0,0,0,1.42-1.53l-.17-4.57A1.48,1.48,0,0,0,352.84,246.24Z" transform="translate(-32.56 -59.34)"/><path class="cls-37" d="M308.5,245.28h0a1.48,1.48,0,0,0-1.42,1.53l.17,4.57a1.48,1.48,0,0,0,1.53,1.42h0a1.47,1.47,0,0,0,1.42-1.53L310,246.7A1.48,1.48,0,0,0,308.5,245.28Z" transform="translate(-32.56 -59.34)"/><path class="cls-37" d="M351.9,217.62h0a1.48,1.48,0,0,0-1.42,1.53l.17,4.58a1.48,1.48,0,0,0,1.53,1.42h0a1.48,1.48,0,0,0,1.42-1.53l-.17-4.58A1.48,1.48,0,0,0,351.9,217.62Z" transform="translate(-32.56 -59.34)"/><rect class="cls-22" x="257.5" y="190.66" width="68.75" height="8.57"/><path class="cls-15" d="M290.06,258.57h68.75v-9.63c0-49.78-15.39-90.14-34.37-90.14" transform="translate(-32.56 -59.34)"/><path class="cls-10" d="M361.5,218l-43-4.68,15.79-48.6-7.62-6.45S311.57,159.66,292,180s-23.49,49.53-9.85,61.39c22.42,19.49,59.76,10.22,82.48-2.14Z" transform="translate(-32.56 -59.34)"/><path class="cls-13" d="M327.74,185.48l-9.24,27.85S323.87,197.19,327.74,185.48Z" transform="translate(-32.56 -59.34)"/><path class="cls-36" d="M361.5,218l-43-4.68,15.79-48.6-7.62-6.45S311.57,159.66,292,180s-23.49,49.53-9.85,61.39c22.42,19.49,59.76,10.22,82.48-2.14Z" transform="translate(-32.56 -59.34)"/><path class="cls-37" d="M326,171h0a1.48,1.48,0,0,0-2,.75l-1.86,4.18a1.47,1.47,0,0,0,.75,2h0a1.48,1.48,0,0,0,1.95-.75l1.86-4.18A1.48,1.48,0,0,0,326,171Z" transform="translate(-32.56 -59.34)"/><path class="cls-37" d="M314.5,182.68h0a1.47,1.47,0,0,0-1.95.75l-1.86,4.18a1.48,1.48,0,0,0,.74,1.95h0a1.48,1.48,0,0,0,1.95-.75l1.86-4.18A1.47,1.47,0,0,0,314.5,182.68Z" transform="translate(-32.56 -59.34)"/><path class="cls-37" d="M303.68,200.14h0a1.48,1.48,0,0,0-1.95.75l-1.86,4.18a1.47,1.47,0,0,0,.75,2h0a1.48,1.48,0,0,0,1.95-.75l1.86-4.18A1.48,1.48,0,0,0,303.68,200.14Z" transform="translate(-32.56 -59.34)"/><path class="cls-37" d="M285.27,203.56h0a1.48,1.48,0,0,0-1.95.75l-1.86,4.18a1.48,1.48,0,0,0,.75,1.95h0a1.48,1.48,0,0,0,2-.75l1.86-4.18A1.48,1.48,0,0,0,285.27,203.56Z" transform="translate(-32.56 -59.34)"/><path class="cls-37" d="M349.41,221.45h0A1.47,1.47,0,0,0,348,220l-4.58-.08a1.48,1.48,0,0,0-1.5,1.45h0a1.47,1.47,0,0,0,1.45,1.5l4.58.08A1.48,1.48,0,0,0,349.41,221.45Z" transform="translate(-32.56 -59.34)"/><path class="cls-37" d="M338.66,231.53h0a1.47,1.47,0,0,0-1.55-1.4l-4.57.24a1.48,1.48,0,0,0-1.4,1.55h0a1.49,1.49,0,0,0,1.56,1.4l4.57-.24A1.47,1.47,0,0,0,338.66,231.53Z" transform="translate(-32.56 -59.34)"/><path class="cls-37" d="M314,232.7h0a1.48,1.48,0,0,0-1.4-1.55l-4.58-.21a1.48,1.48,0,0,0-1.54,1.41h0a1.48,1.48,0,0,0,1.41,1.54l4.57.21A1.47,1.47,0,0,0,314,232.7Z" transform="translate(-32.56 -59.34)"/><path class="cls-37" d="M298.48,242.89h0a1.48,1.48,0,0,0-1-1.86l-4.34-1.43a1.48,1.48,0,0,0-1.87.94h0a1.48,1.48,0,0,0,.94,1.86l4.35,1.43A1.47,1.47,0,0,0,298.48,242.89Z" transform="translate(-32.56 -59.34)"/><path class="cls-37" d="M292.4,226.32h0a1.48,1.48,0,0,0-.95-1.86L287.11,223a1.49,1.49,0,0,0-1.87.94h0a1.49,1.49,0,0,0,.94,1.87l4.35,1.43A1.49,1.49,0,0,0,292.4,226.32Z" transform="translate(-32.56 -59.34)"/><path class="cls-37" d="M307.07,220.34h0a1.48,1.48,0,0,0-.92-1.87L301.82,217a1.48,1.48,0,0,0-1.88.92h0a1.49,1.49,0,0,0,.92,1.88l4.33,1.47A1.47,1.47,0,0,0,307.07,220.34Z" transform="translate(-32.56 -59.34)"/><path class="cls-37" d="M327.62,244.07h0a1.47,1.47,0,0,0-1.59-1.34l-4.56.39a1.48,1.48,0,0,0-1.35,1.6h0a1.49,1.49,0,0,0,1.6,1.35l4.56-.4A1.47,1.47,0,0,0,327.62,244.07Z" transform="translate(-32.56 -59.34)"/><path class="cls-37" d="M349.32,240h0a1.47,1.47,0,0,0-1.76-1.12l-4.47,1a1.47,1.47,0,0,0-1.12,1.76h0a1.47,1.47,0,0,0,1.76,1.12l4.47-1A1.47,1.47,0,0,0,349.32,240Z" transform="translate(-32.56 -59.34)"/><path class="cls-37" d="M358.85,229.78h0a1.46,1.46,0,0,0-1.6-1.33l-4.56.42a1.46,1.46,0,0,0-1.33,1.6h0a1.47,1.47,0,0,0,1.6,1.34l4.56-.42A1.48,1.48,0,0,0,358.85,229.78Z" transform="translate(-32.56 -59.34)"/><path class="cls-37" d="M323.92,219.39h0a1.49,1.49,0,0,0-1.37-1.58L318,217.5a1.47,1.47,0,0,0-1.57,1.37h0a1.46,1.46,0,0,0,1.37,1.57l4.56.32A1.48,1.48,0,0,0,323.92,219.39Z" transform="translate(-32.56 -59.34)"/><path class="cls-37" d="M296.86,184.25h0a1.47,1.47,0,0,0-2,.59l-2.21,4a1.48,1.48,0,0,0,.58,2h0a1.49,1.49,0,0,0,2-.58l2.21-4A1.49,1.49,0,0,0,296.86,184.25Z" transform="translate(-32.56 -59.34)"/><path class="cls-37" d="M319.59,195.8h0a1.49,1.49,0,0,0-1.84,1l-1.33,4.37a1.48,1.48,0,0,0,1,1.85h0a1.48,1.48,0,0,0,1.84-1l1.33-4.37A1.48,1.48,0,0,0,319.59,195.8Z" transform="translate(-32.56 -59.34)"/><path class="cls-37" d="M311.05,169.76h0a1.47,1.47,0,0,0-2,.47l-2.43,3.87a1.47,1.47,0,0,0,.46,2h0a1.49,1.49,0,0,0,2-.47l2.43-3.87A1.49,1.49,0,0,0,311.05,169.76Z" transform="translate(-32.56 -59.34)"/><path class="cls-32" d="M354.54,223.35s31.4-10.12,35.53-10,10.4,4.29,10.4,4.29,5.07,8.55.89,13.53c-2.23,2.66-2.42-5.82-2.42-5.82l-7.28,1s-3.14,4.19-10.17,6.14-25,5.43-25,5.43Z" transform="translate(-32.56 -59.34)"/><path class="cls-22" d="M361.5,218l-9.23-1c.73,4.55,2.92,20,3.83,26.4,3-1.32,5.88-2.72,8.55-4.17Z" transform="translate(-32.56 -59.34)"/><path class="cls-15" d="M326.67,158.28S311.57,159.66,292,180s-23.49,49.53-9.85,61.39c22.42,19.49,59.76,10.22,82.48-2.14L361.5,218l-46.13-5" transform="translate(-32.56 -59.34)"/><path class="cls-15" d="M318.5,213.33s5.37-16.14,9.24-27.85" transform="translate(-32.56 -59.34)"/><path class="cls-32" d="M336.89,113.13h-8c-5.32,0-9.68,5-9.68,11v12.4c0,.35,0,.69.05,1a4.66,4.66,0,0,0-.14,1.13v15.52a5,5,0,0,0,5,5h3.18a5,5,0,0,0,5-5v-6.68h4.63c5.32,0,9.67-5,9.67-11v-12.4C346.56,118.08,342.21,113.13,336.89,113.13Z" transform="translate(-32.56 -59.34)"/><path class="cls-13" d="M320.16,130.32s1.81-10.44,2.3-8.9c.69,2.2.61,14.39,3,15.46,3.12,1.42,4.28-3.93,10.58-4.15s9.93,2.88,10.54,5.41-2.64,6.12-4.62,7.77c-2.48,2.07-9.68,1.64-9.68,1.64s-6.24.38-8.85-3.3C320.7,140.42,320.16,130.32,320.16,130.32Z" transform="translate(-32.56 -59.34)"/><path class="cls-13" d="M330.55,128.19a1.8,1.8,0,1,0,1.8-1.8A1.79,1.79,0,0,0,330.55,128.19Z" transform="translate(-32.56 -59.34)"/><path class="cls-13" d="M342.35,127.93a1.54,1.54,0,1,0,1.54-1.54A1.53,1.53,0,0,0,342.35,127.93Z" transform="translate(-32.56 -59.34)"/><path class="cls-38" d="M340.63,135.3s-.9,2.65-2.82,2.83-3.42-1.95-3.52-3.6Z" transform="translate(-32.56 -59.34)"/><path class="cls-13" d="M340.09,135.16l-.07.19c.06-.16,0,.07-.06.13l-.15.3a4.37,4.37,0,0,1-.94,1.26,1.9,1.9,0,0,1-1.56.52,2.66,2.66,0,0,1-1.6-1,3.66,3.66,0,0,1-.86-2l-.56.56,5.55.68.79.09a.56.56,0,1,0,0-1.11l-5.55-.68-.79-.1a.55.55,0,0,0-.56.56,4.63,4.63,0,0,0,3,4c1.65.52,3.08-.54,3.9-1.89a6.51,6.51,0,0,0,.58-1.22C341.41,134.77,340.33,134.48,340.09,135.16Z" transform="translate(-32.56 -59.34)"/><polygon class="cls-10" points="306.04 67.05 305.67 73.19 308.61 71.4 306.04 67.05"/><path class="cls-13" d="M321.31,132.53l1.48-9.72s26.87,3.37,35.59-9.68-.45-18.23-4.88-17.49-9.61,7.09-9.61,7.09,4.13-5.61,0-6.5-8.68,3.4-11.05,7.83c0,0-17.72-1.65-23.7,9.07S308,131.45,319,142.53l1-6.2Z" transform="translate(-32.56 -59.34)"/><rect class="cls-22" x="280.96" y="93.71" width="23.82" height="12" rx="4.74"/><path class="cls-12" d="M309.14,132.73a6.37,6.37,0,1,0,6.37-6.32A6.34,6.34,0,0,0,309.14,132.73Z" transform="translate(-32.56 -59.34)"/><path class="cls-13" d="M319.36,133.57a4,4,0,0,0-2.06-3.9,4.75,4.75,0,0,0-2.48-.33.42.42,0,0,0-.41.41.41.41,0,0,0,.41.41,4.31,4.31,0,0,1,2,.19l.07,0,0,0,.17.08.33.22.07.06.13.11.24.27c-.07-.08,0,.05.05.07l.08.13a2.75,2.75,0,0,1,.17.29,1,1,0,0,0,.07.15c0,.06,0-.09,0,0l0,.07a2.83,2.83,0,0,1,.11.31,4.54,4.54,0,0,1,.12.53.5.5,0,0,1,0,.12c0,.12,0-.09,0,0a1.64,1.64,0,0,0,0,.22,4.34,4.34,0,0,1,0,.51.41.41,0,0,0,.82,0Z" transform="translate(-32.56 -59.34)"/><path class="cls-15" d="M320.85,136.17a6.29,6.29,0,0,0-.9-8" transform="translate(-32.56 -59.34)"/><path class="cls-15" d="M320,128.21a6.32,6.32,0,1,0-1.44,10.09,5.68,5.68,0,0,0,1.15-.78" transform="translate(-32.56 -59.34)"/><path class="cls-10" d="M472.82,336.75s74.26-76.5,91.23-73.06c1.24.25,4.6,2.17,9.27,5.16l4.55,20.66-11,15.68s-43.39,66.47-64.29,58S475,340.41,475,340.41" transform="translate(-32.56 -59.34)"/><path class="cls-39" d="M472.82,336.75s74.26-76.5,91.23-73.06c1.24.25,4.6,2.17,9.27,5.16l4.55,20.66-11,15.68s-43.39,66.47-64.29,58S475,340.41,475,340.41" transform="translate(-32.56 -59.34)"/><path class="cls-15" d="M577.87,289.51l-11,15.68s-43.39,66.47-64.29,58S475,340.41,475,340.41" transform="translate(-32.56 -59.34)"/><rect class="cls-10" x="523.31" y="266.78" width="47.87" height="56.68"/><g class="cls-14"><rect x="523.31" y="266.78" width="47.87" height="56.68"/></g><rect class="cls-10" x="523.31" y="287.12" width="47.87" height="15.43"/><circle class="cls-10" cx="547.25" cy="295.13" r="13.16"/><circle class="cls-10" cx="547.25" cy="295.13" r="10.5"/><g class="cls-40"><circle class="cls-12" cx="547.25" cy="295.13" r="10.5"/></g><path class="cls-10" d="M576.83,351.94s-2.32-3.81-3.39-3.59-1.41,6.69-.85,6.35S576.83,351.94,576.83,351.94Z" transform="translate(-32.56 -59.34)"/><path class="cls-10" d="M582.72,351.94s2.32-3.81,3.39-3.59,1.41,6.69.85,6.35S582.72,351.94,582.72,351.94Z" transform="translate(-32.56 -59.34)"/><ellipse class="cls-10" cx="547.25" cy="296.56" rx="8.01" ry="6.52"/><path class="cls-13" d="M585,354a.53.53,0,0,1-.51.55A.53.53,0,0,1,584,354a.53.53,0,0,1,.51-.54A.52.52,0,0,1,585,354Z" transform="translate(-32.56 -59.34)"/><ellipse class="cls-13" cx="549.77" cy="295.9" rx="0.19" ry="0.2"/><ellipse class="cls-13" cx="549.81" cy="296.67" rx="0.19" ry="0.2"/><path class="cls-13" d="M583.12,355.55a.2.2,0,0,1-.19.21.2.2,0,0,1-.19-.21.2.2,0,0,1,.19-.2A.19.19,0,0,1,583.12,355.55Z" transform="translate(-32.56 -59.34)"/><path class="cls-13" d="M577.43,355.42a.19.19,0,0,0,.19.2.2.2,0,0,0,.19-.2.2.2,0,0,0-.19-.21A.2.2,0,0,0,577.43,355.42Z" transform="translate(-32.56 -59.34)"/><ellipse class="cls-13" cx="545.02" cy="296.85" rx="0.19" ry="0.2"/><path class="cls-13" d="M576.83,355.74a.2.2,0,0,0,.19.2.19.19,0,0,0,.19-.2.2.2,0,0,0-.19-.21A.2.2,0,0,0,576.83,355.74Z" transform="translate(-32.56 -59.34)"/><path class="cls-13" d="M575.52,354.16a.53.53,0,0,1-.51.55.55.55,0,1,1,.51-.55Z" transform="translate(-32.56 -59.34)"/><path class="cls-13" d="M579.19,356.73c-.13.68,0,2.15.89,2.15s1-1.48.89-2.15c0-.16-.26-.09-.23.07.09.49.06,1.82-.66,1.82s-.75-1.33-.66-1.82c0-.16-.2-.23-.23-.07Z" transform="translate(-32.56 -59.34)"/><path class="cls-13" d="M580.82,354.88a.66.66,0,0,0-.73-.56c-.41,0-.74.25-.74.56s.27.49.62.54v1a.12.12,0,1,0,.24,0v-1C580.56,355.37,580.82,355.15,580.82,354.88Z" transform="translate(-32.56 -59.34)"/><path class="cls-1" d="M512.4,369s-4.56-2.2-5.81-5.47-.76-5.94.38-6.75,3.42-2.87,3.12-4-1.31-3.31-.62-5.38,2.28-2.48,3.18-2.22,2.91,1.31,3.18.95-.45-1.52-.23-3.11.71-4.53,3.48-5.66,3.48-.77,4.5,0a1.72,1.72,0,0,0,2.77-.72c.6-1.24,2.81-5.26,4.29-5.75s3.75.61,4.4,1.2,2.94.54,4.29.05,6.26-1.83,8.63-.7,2.66,2.46,2.9,4.19-.22,3.08,1.34,4,3.14.75,4,2.52a9.24,9.24,0,0,1,.76,3.7Z" transform="translate(-32.56 -59.34)"/><path class="cls-22" d="M552.05,337.9a11.23,11.23,0,0,0-.84-3.78c-1.43-3.62-5.08-4.63-10.55-2.94l-1.06.33c-2.52.8-2.52.8-5.11-.28l-1.22-.5c-3.84-1.56-5.57,2-6.71,4.42a13.22,13.22,0,0,1-.9,1.69c-.45.62-.67.54-1.56.09a4.69,4.69,0,0,0-3.57-.58c-3.22.82-6.16,4-5.42,7.45a5,5,0,0,1,.19,1.65A4.62,4.62,0,0,1,514,345l-.92-.38a2.72,2.72,0,0,0-2.88.71,5.35,5.35,0,0,0-1.35,5.46c.81,2.17.81,2.17-.61,3.76l-.78.89c-2.4,2.77-3.12,5.21-.1,10.18,1.53,2.5,3.3,3.26,4.73,3.39.13-.25.29-.54.48-.85-1.23,0-2.92-.57-4.41-3-2.79-4.57-2.23-6.6,0-9.16l.78-.87c1.61-1.81,1.75-2.09.79-4.66a4.47,4.47,0,0,1,1.1-4.5,1.78,1.78,0,0,1,1.89-.5c.33.12.62.25.89.36,1.06.45,1.76.74,2.28.32s.49-1.05.17-2.55c-.63-2.94,1.93-5.67,4.71-6.38a3.85,3.85,0,0,1,2.93.51c.81.42,1.82.93,2.76-.4a12.76,12.76,0,0,0,1-1.82c1.4-2.93,2.69-5.08,5.49-3.94.46.18.86.35,1.21.5,2.85,1.18,3,1.19,5.75.3l1-.33c5-1.55,8.21-.73,9.47,2.45a10.37,10.37,0,0,1,.78,3.53c.07,1.16.18,1.78,1.77,2.2a5,5,0,0,1,3.07,2.31,2.78,2.78,0,0,1,.3.88l.76,0h.17a4,4,0,0,0-.41-1.27,5.75,5.75,0,0,0-3.6-2.73C552.12,339.06,552.11,338.91,552.05,337.9Z" transform="translate(-32.56 -59.34)"/><path class="cls-41" d="M550.86,345.51c-1.9-3-5-7.24-9.18-7.72a29.73,29.73,0,0,0-15.63,2.93,12.53,12.53,0,0,0-2.83,2c-6.71,6.49-9.41,11.83-8,15.87a15.59,15.59,0,0,1,1.16,5.87,5.67,5.67,0,0,1,.93-.44,18,18,0,0,0-1.22-5.75c-1.27-3.69,1.35-8.72,7.79-14.94,3.64-3.52,12.24-5.29,17.68-4.67,3.84.43,6.74,4.45,8.55,7.35l.33-.24Z" transform="translate(-32.56 -59.34)"/><path class="cls-12" d="M548.39,339c-4.14-3.66-11.69-5.17-21.33,0S513.9,350.37,513.8,357.6a10,10,0,0,0,2.25,7,6.74,6.74,0,0,1,3.9-.8c2.51.41,4.16,1.35,5.83,0s5.15-4.44,7.45-5.25,4.23-1.47,6.23-.62,3.35,1.76,3.59,1.21,1.49-6,2.5-8.23,3.21-4.85,4.89-5.44a20.37,20.37,0,0,0,2.39-1A23.11,23.11,0,0,0,548.39,339Z" transform="translate(-32.56 -59.34)"/><path class="cls-22" d="M519.21,358.29l-.18-.13s0,0-.07,0l0,0a.64.64,0,0,0-.33-.1.59.59,0,0,0-.23,0,.76.76,0,0,0-.35.11,1.92,1.92,0,0,0-.28.18l-.07.06a1.64,1.64,0,0,0-.19.25,1.11,1.11,0,0,0-.14.29,1.59,1.59,0,0,0-.06.3.28.28,0,0,0,0,.09,1.63,1.63,0,0,0,0,.31,1.76,1.76,0,0,0,.1.3l0,0,0,.07s0,0,0,.05l.09.12a.94.94,0,0,0,.09.12.68.68,0,0,0,.28.18.63.63,0,0,0,.34.07l.12,0a1,1,0,0,0,.45-.11,1.38,1.38,0,0,0,.5-.46,2,2,0,0,0,.15-.29,1.94,1.94,0,0,0,.07-.33.45.45,0,0,0,0-.11,1.31,1.31,0,0,0,0-.34,2,2,0,0,0-.12-.31,2,2,0,0,0-.17-.23Z" transform="translate(-32.56 -59.34)"/><path class="cls-22" d="M519.55,353c.06-.11.12-.23.17-.34l0-.15v0l.07-.17a.65.65,0,0,0,0-.34.56.56,0,0,0,0-.12,1.2,1.2,0,0,0-.05-.38,2.42,2.42,0,0,0-.12-.35,1,1,0,0,0-.08-.14.71.71,0,0,0-.32-.32.65.65,0,0,0-.32-.11.69.69,0,0,0-.35,0,1,1,0,0,0-.44.23,1.29,1.29,0,0,0-.17.16,3.07,3.07,0,0,0-.28.35,3.6,3.6,0,0,0-.2.39,1.72,1.72,0,0,0-.07.21,2,2,0,0,0-.08.64,1.93,1.93,0,0,0,0,.42,2.6,2.6,0,0,0,.15.42.86.86,0,0,0,.76.45,1,1,0,0,0,.82-.45.36.36,0,0,0,.07-.1A.85.85,0,0,0,519.55,353Z" transform="translate(-32.56 -59.34)"/><path class="cls-22" d="M522.51,354.07a.7.7,0,0,0-.35,0,1,1,0,0,0-.43.23,2.42,2.42,0,0,0-.25.31,2.71,2.71,0,0,0-.18.34,3.07,3.07,0,0,0-.14.52,1.88,1.88,0,0,0,0,.53,1.85,1.85,0,0,0,.16.52.85.85,0,0,0,.32.33,1,1,0,0,0,.44.11,1.08,1.08,0,0,0,.47-.11.93.93,0,0,0,.35-.33,1.26,1.26,0,0,0,.13-.26l0-.06h0l0,0,.15-.31,0-.12a2.05,2.05,0,0,0,.07-.34v-.13a1.84,1.84,0,0,0,0-.33.27.27,0,0,0,0-.12,2.19,2.19,0,0,0-.12-.33.82.82,0,0,0-.32-.32A.65.65,0,0,0,522.51,354.07Z" transform="translate(-32.56 -59.34)"/><path class="cls-22" d="M543.59,347a2,2,0,0,0-.83-.5l-.23,0a.71.71,0,0,0-.35.07.53.53,0,0,0-.22.12.67.67,0,0,0-.25.25c-.05.09-.09.18-.13.27l0,.07a1.42,1.42,0,0,0,0,.36v.16a1.2,1.2,0,0,0,.12.56,1.73,1.73,0,0,0,.22.31,2,2,0,0,0,.29.22,1.37,1.37,0,0,0,.72.2,1.18,1.18,0,0,0,.37,0,1.37,1.37,0,0,0,.55-.31.87.87,0,0,0,.28-.84c0-.11-.07-.22-.11-.33l-.06-.12a.75.75,0,0,0-.07-.12A3.15,3.15,0,0,0,543.59,347Z" transform="translate(-32.56 -59.34)"/><path class="cls-22" d="M546.15,343.45a.57.57,0,0,0-.28-.18.65.65,0,0,0-.34-.07.61.61,0,0,0-.35.07.7.7,0,0,0-.32.19l-.15.18a.84.84,0,0,0-.14.43v.23a.88.88,0,0,0,.22.4l.22.23a.75.75,0,0,0,.28.18.65.65,0,0,0,.34.07.71.71,0,0,0,.35-.07.7.7,0,0,0,.32-.19l.15-.18a.84.84,0,0,0,.14-.43v-.23a1,1,0,0,0-.22-.41Z" transform="translate(-32.56 -59.34)"/><path class="cls-22" d="M541.71,342.72l-.06,0,0,0a.56.56,0,0,0-.26-.17.66.66,0,0,0-.34-.08.72.72,0,0,0-.35.08.73.73,0,0,0-.32.18l-.15.19a.91.91,0,0,0-.14.43v.05a.94.94,0,0,0,0,.29.86.86,0,0,0,.22.41l.3.36a.61.61,0,0,0,.28.19.77.77,0,0,0,.34.07.84.84,0,0,0,.35-.07.88.88,0,0,0,.32-.19l.15-.18a1.27,1.27,0,0,0,.06-.18.63.63,0,0,0,.12-.21l0-.22a.87.87,0,0,0-.09-.45l0-.05a2,2,0,0,0-.17-.23Z" transform="translate(-32.56 -59.34)"/><path class="cls-22" d="M538.5,339.09l0,0h0c.56,1,2.19.1,1.63-.87l0-.05C539.57,337.25,537.94,338.12,538.5,339.09Z" transform="translate(-32.56 -59.34)"/><path class="cls-22" d="M546.09,339.12a.72.72,0,0,0-.27-.1s0,0,0,0h0a1.33,1.33,0,0,0-.19-.14.86.86,0,0,0-.48-.13l-.17,0-.07,0-.24,0a1,1,0,0,0-.43.23l-.15.18a.91.91,0,0,0-.05.92.83.83,0,0,0,.08.12l.09.11.12.1a1.3,1.3,0,0,0,.21.18,1.18,1.18,0,0,0,.59.16h.14l.11.05a.6.6,0,0,0,.35,0,.74.74,0,0,0,.35-.1l.2-.15a1,1,0,0,0,.26-.39l0-.22a.79.79,0,0,0-.1-.45A1,1,0,0,0,546.09,339.12Zm-.35.3v.19a.66.66,0,0,0,0-.28Zm-.07-.18,0,0,0,0Zm-.8,1.18,0,.05h0Z" transform="translate(-32.56 -59.34)"/><path class="cls-22" d="M537,345.41a1,1,0,0,0-.44-.11l-.34,0a.71.71,0,0,0-.35.07.8.8,0,0,0-.32.19,1,1,0,0,0-.29.61v.23a.91.91,0,0,0,.22.41l.18.13a.86.86,0,0,0,.44.12l.33,0a.73.73,0,0,0,.36-.07.77.77,0,0,0,.31-.19.66.66,0,0,0,.21-.29.63.63,0,0,0,.09-.33V346a.91.91,0,0,0-.22-.41Z" transform="translate(-32.56 -59.34)"/><path class="cls-4" d="M519.74,371.92s-.16,1.48-.17,2.08a5.17,5.17,0,0,1-2.72,3.26c-1.62.71-6,.67-6.41-2.29s3.05-8.36,4.94-9.65a9.82,9.82,0,0,1,6.87-1.23,6.57,6.57,0,0,0,5.93-2.2c1.43-1.67,5.05-3.47,7.1-4s3.44-.54,4.75.3,3,2,3,2,.91-4.61,1.9-7.61,3.59-6.85,7.71-8.25,7.12-1.65,8.26.89,1.89,4.9-.69,7-7.05,1.51-9.34,2.92-2.35,2.27-2.25,4.33.86,5.67-1.52,7.15-5.53,3.55-6.62,5.18-2.34,2.59-1.9,4.74-1.44.92-1.83-.2-.23-3.89,1.15-5.17S541.8,367,541.8,367l.36-.83a34.65,34.65,0,0,1-7.12-.92c-2.52-.78-3.75-.5-4.67.48s-.22,4-2,5.12-2.85,1.48-4.69.87S519.86,370.64,519.74,371.92Z" transform="translate(-32.56 -59.34)"/><path class="cls-3" d="M515.81,377.43s2.29,5.42,10.72,6.44,13.07.11,16.75-2.92-2.65-2.68-3.78-3.19-2.52-.68-2.8-3.12,1.2-3.2,3-5.39,3.18-3.06,2.43-3.07a23,23,0,0,1-5.57-.6c-2.36-.62-4.14-2-5.46-.24s-1,3.68-2.43,5-2,2.42-5,1.39-3.85-1.69-4,.19S517.92,377.35,515.81,377.43Z" transform="translate(-32.56 -59.34)"/><path class="cls-22" d="M542.61,365.41a8.67,8.67,0,0,1-5.83-.24c-2.36-.88-4.46-1-5.82-.23l-.18.1a3.37,3.37,0,0,0-1.55,2.75,4.16,4.16,0,0,1-1.94,3.24,3.53,3.53,0,0,1-3,.43c-1.46-.54-3.11-1.15-4.25-.47a2.43,2.43,0,0,0-1.08,1.87l0,.13,0,.11c0,.08.8,1.79-1.63,3.25a5.08,5.08,0,0,1-4.67.39A2.85,2.85,0,0,1,511,374.2c-.18-3.07,3-8.86,6.93-9.68a9.76,9.76,0,0,1,3.84.05,5.86,5.86,0,0,0,5.88-1.63c3.36-3.12,8.17-5.94,11.62-4.51a14.17,14.17,0,0,1,4,2.33c0-.41,0-.82,0-1.21a17.53,17.53,0,0,0-3.57-1.94c-4.86-2-10.9,3.09-12.63,4.71-2,1.87-3.3,1.66-5.07,1.38a10.5,10.5,0,0,0-4.18,0c-4.54.94-7.9,7.11-7.7,10.63a3.71,3.71,0,0,0,2.17,3.25,6.06,6.06,0,0,0,5.55-.45c2.75-1.64,2.26-3.71,2.07-4.25a1.51,1.51,0,0,1,.6-1.11c.71-.47,2.24.12,3.45.56a4.4,4.4,0,0,0,3.82-.53,5.14,5.14,0,0,0,2.38-3.94,2.49,2.49,0,0,1,1.11-2c1.08-.68,3-.61,5.16.21a10.08,10.08,0,0,0,5.66.47A4.91,4.91,0,0,0,542.61,365.41Z" transform="translate(-32.56 -59.34)"/><path class="cls-3" d="M538.22,377.89s2.39,3.3,3.79,3.69c2.78.75,8.51-1.87,14.08-5.87,8.35-6,6.87-17,6.26-19.56a7.82,7.82,0,0,0-2.15-3.84s-1.05,1.87-5.46,2.26-6.39.76-6,3.81.65,6-.58,7.38-5.13,3.48-6.62,5S536.87,375.68,538.22,377.89Z" transform="translate(-32.56 -59.34)"/><path class="cls-22" d="M540.62,380.67l-2-1.67s-4.7-4.06-1-8.13l.72-.79c3-3.32,4.87-5.32,4.35-8.49-.63-3.87,1.78-12.11,6.41-15.58,3-2.25,6.29-3.33,8.83-2.9a5.09,5.09,0,0,1,3.68,2.53,5.4,5.4,0,0,1,.16,5.09,6.93,6.93,0,0,1-4.2,3.68,14.71,14.71,0,0,1-2.7.32c-3.17.2-5.44.53-5.66,3a27.09,27.09,0,0,0,0,3.24c.1,2.77.19,5.38-2.7,6.94-2.38,1.28-6.52,3.89-7.53,7a4.25,4.25,0,0,0,.38,3.54Zm11.17-35.33a17.07,17.07,0,0,0-2.12,1.35c-4.29,3.22-6.62,11.15-6,14.71s-1.47,5.84-4.58,9.24l-.72.79a4.07,4.07,0,0,0-.47,5.2,5.1,5.1,0,0,1,.26-1.95c1.11-3.41,5.48-6.19,8-7.54s2.3-3.4,2.2-6.09a25.11,25.11,0,0,1,0-3.35c.31-3.46,3.78-3.68,6.56-3.85a14.13,14.13,0,0,0,2.52-.29A5.92,5.92,0,0,0,561,350.4a4.5,4.5,0,0,0-.14-4.3,4.19,4.19,0,0,0-3.07-2.12A9.72,9.72,0,0,0,551.79,345.34Z" transform="translate(-32.56 -59.34)"/><path class="cls-10" d="M485,381.19c-3.42-1.54-8.14-4.49-9.62-12.74a12.63,12.63,0,0,1,13.89-14.9c8.77.93,9.24,6,18.14,6.66s12.66,2,14.86,7.68-.66,9.87-11.21,14.06A34.13,34.13,0,0,1,485,381.19Z" transform="translate(-32.56 -59.34)"/><path class="cls-42" d="M485,381.19c-3.42-1.54-8.14-4.49-9.62-12.74a12.63,12.63,0,0,1,13.89-14.9c8.77.93,9.24,6,18.14,6.66s12.66,2,14.86,7.68-.66,9.87-11.21,14.06A34.13,34.13,0,0,1,485,381.19Z" transform="translate(-32.56 -59.34)"/><path class="cls-43" d="M489.89,362.19c-.44,2-2.85,3.25-5.4,2.7s-4.25-2.64-3.81-4.68,2.86-3.25,5.4-2.7S490.33,360.15,489.89,362.19Z" transform="translate(-32.56 -59.34)"/><path class="cls-10" d="M518.57,364.44s-7.71.38-7.76-3.51,9.27-2.73,12.95.32,2.47,9.78.46,12.8-10.49-2-3.77-6.74c0,0-4.12,3.42-5.94,1.83S515.59,364.86,518.57,364.44Z" transform="translate(-32.56 -59.34)"/><path class="cls-39" d="M518.57,364.44s-7.71.38-7.76-3.51,9.27-2.73,12.95.32,2.47,9.78.46,12.8-10.49-2-3.77-6.74c0,0-4.12,3.42-5.94,1.83S515.59,364.86,518.57,364.44Z" transform="translate(-32.56 -59.34)"/><path class="cls-10" d="M523.44,364.09s5.69-1.76,5.63-5.84,5.2,1.51,2.53,4.14a11,11,0,0,1-7,3.35C523.37,365.71,522.47,365,523.44,364.09Z" transform="translate(-32.56 -59.34)"/><path class="cls-39" d="M523.44,364.09s5.69-1.76,5.63-5.84,5.2,1.51,2.53,4.14a11,11,0,0,1-7,3.35C523.37,365.71,522.47,365,523.44,364.09Z" transform="translate(-32.56 -59.34)"/><path class="cls-44" d="M481.38,336.49c.56,1.86.31,3.42,6.06,7.11s4.25,9.59-.13,11.66c-4.18,2-11.45-.27-15.39-3.37-5-3.94-8.38-9.11-8.45-13.41C463.34,331.12,476.81,321.34,481.38,336.49Z" transform="translate(-32.56 -59.34)"/><line class="cls-25" x1="447.6" y1="274.04" x2="445.08" y2="279.08"/><line class="cls-25" x1="440.6" y1="276.09" x2="438.05" y2="281.19"/><line class="cls-25" x1="444.94" y1="286.76" x2="442.63" y2="291.38"/><line class="cls-25" x1="454.11" y1="287.67" x2="451.79" y2="292.31"/><path class="cls-44" d="M453.31,346.49c.9-1.72,2.17-2.66.63-9.32s3.65-9.83,8.23-8.26c4.38,1.51,8,8.19,8.67,13.15.83,6.33-.36,12.38-3.31,15.51C462.48,362.92,446,360.53,453.31,346.49Z" transform="translate(-32.56 -59.34)"/><line class="cls-25" x1="419.46" y1="290.23" x2="424.78" y2="288.38"/><line class="cls-25" x1="425.89" y1="293.65" x2="431.28" y2="291.78"/><line class="cls-25" x1="430.23" y1="282.98" x2="435.11" y2="281.28"/><line class="cls-25" x1="424.3" y1="275.93" x2="429.2" y2="274.22"/><path class="cls-44" d="M496.2,357.31s-.62,5-6.56,9.09-14.92,2.51-17.63-2.68,2.18-7.92,5-10.94,5-7,8.89-7.73C492.77,343.68,497.73,350.27,496.2,357.31Z" transform="translate(-32.56 -59.34)"/><line class="cls-25" x1="453.52" y1="308.77" x2="451.29" y2="303.66"/><line class="cls-25" x1="456.47" y1="302.73" x2="453.27" y2="296.52"/><line class="cls-25" x1="444.74" y1="302.47" x2="443" y2="298.48"/><line class="cls-25" x1="446.94" y1="295.06" x2="445.67" y2="292.15"/><line class="cls-25" x1="461.12" y1="296.01" x2="459.34" y2="291.94"/><line class="cls-25" x1="454.86" y1="291.23" x2="453.3" y2="288.55"/><path class="cls-44" d="M475.66,340.15s4.72,1.81,7.27,8.54-1.12,15.09-6.81,16.49-7.18-4-9.43-7.48-5.57-6.55-5.4-10.47C461.6,340.23,469.18,337,475.66,340.15Z" transform="translate(-32.56 -59.34)"/><line class="cls-25" x1="451.16" y1="293.22" x2="445.68" y2="294.17"/><line class="cls-25" x1="442.95" y1="300.24" x2="438.67" y2="300.98"/><line class="cls-25" x1="436.28" y1="296.34" x2="433.16" y2="296.88"/><line class="cls-25" x1="440.59" y1="282.8" x2="436.21" y2="283.55"/><line class="cls-25" x1="434.45" y1="287.73" x2="431.48" y2="288.62"/><path class="cls-44" d="M449.73,362.33c.9-1.72,2.17-2.66.63-9.32s3.65-9.83,8.23-8.25c4.37,1.5,8,8.18,8.67,13.15.83,6.32-.36,12.37-3.31,15.51C458.9,378.77,442.43,376.37,449.73,362.33Z" transform="translate(-32.56 -59.34)"/><line class="cls-25" x1="415.88" y1="306.08" x2="421.2" y2="304.23"/><line class="cls-25" x1="422.31" y1="309.5" x2="427.7" y2="307.62"/><line class="cls-25" x1="426.65" y1="298.82" x2="431.53" y2="297.12"/><line class="cls-25" x1="420.72" y1="291.77" x2="425.62" y2="290.07"/><path class="cls-44" d="M473.66,375.23s-5-1-8.56-7.24-1.36-15.07,4-17.37,7.73,2.78,10.52,5.83,6.56,5.56,7,9.46C487.51,372.86,480.57,377.29,473.66,375.23Z" transform="translate(-32.56 -59.34)"/><line class="cls-25" x1="431.12" y1="304.97" x2="436.37" y2="303.14"/><line class="cls-25" x1="440.12" y1="307.02" x2="446.56" y2="304.3"/><line class="cls-25" x1="438.07" y1="296.71" x2="442.18" y2="295.28"/><line class="cls-25" x1="445.29" y1="299.47" x2="448.29" y2="298.43"/><line class="cls-25" x1="443.25" y1="313.53" x2="447.44" y2="312.07"/><line class="cls-25" x1="448.5" y1="307.66" x2="451.29" y2="306.31"/><path class="cls-45" d="M456.62,325.29s-10.56,5.79-10.68,15.8-.47,15.62-2.95,21.71.18,15.42,10.09,18,13.77-.72,22.12-2.08,19.28-4.24,23.12-9.69,9.39-17.07-1.59-24.91S482.31,328.25,479,324.82,463.28,321.25,456.62,325.29Z" transform="translate(-32.56 -59.34)"/><path class="cls-45" d="M463.33,328.43s-1.13-4.21-2.64-4.94c0,0-3.35,4.43-2.94,7.84" transform="translate(-32.56 -59.34)"/><path class="cls-45" d="M468.53,324.94s-2.81-1.9-7.84-1.45" transform="translate(-32.56 -59.34)"/><path class="cls-46" d="M464.16,319.8c.42,1.23-1,2.82-3.06,3.55s-4.18.34-4.61-.88.95-2.81,3.06-3.55S463.73,318.58,464.16,319.8Z" transform="translate(-32.56 -59.34)"/><path class="cls-45" d="M457.27,320.86s4.25,2.21,6.56.64" transform="translate(-32.56 -59.34)"/><path class="cls-45" d="M460.09,319.87c-4-.08-15.41-5.6-13.48-8.72s4.67.07,8.27-.7,3.11-2.9,6.53-2.08,4-3.78,7.51-3.95S466.61,320,460.09,319.87Z" transform="translate(-32.56 -59.34)"/><path class="cls-22" d="M462.34,367s-3.68,8.29-10.46,4.87C451.88,371.88,454.54,363.59,462.34,367Z" transform="translate(-32.56 -59.34)"/><path class="cls-15" d="M465.15,368.18s-4.94-1-7.13-7.47" transform="translate(-32.56 -59.34)"/><path class="cls-10" d="M485.64,374.93s-.8,5.86-8.92,7.6-13.69-1.64-14.26-6.66,1.77-4.81,2.21-8.84.79-9.27,6.39-9.5,12.14,3.74,14.56,8.55S485.36,372.2,485.64,374.93Z" transform="translate(-32.56 -59.34)"/><path class="cls-10" d="M474.06,376.32a3.9,3.9,0,1,1-3.87-3.45A3.67,3.67,0,0,1,474.06,376.32Z" transform="translate(-32.56 -59.34)"/><g class="cls-23"><path class="cls-12" d="M474.06,376.32a3.9,3.9,0,1,1-3.87-3.45A3.67,3.67,0,0,1,474.06,376.32Z" transform="translate(-32.56 -59.34)"/></g><circle class="cls-13" cx="440" cy="369.73" r="15.52"/><circle class="cls-3" cx="440" cy="369.73" r="8.85"/><circle class="cls-13" cx="540.35" cy="369.73" r="15.52"/><circle class="cls-3" cx="540.35" cy="369.73" r="8.85"/><path class="cls-13" d="M429.7,286.37q.65,7.45,1.31,14.9,1.47,16.8,2.95,33.62,1.56,17.85,3.13,35.71L439,391.74c0,.37.08.74.1,1.11a22.52,22.52,0,0,0,3.59,11.81,21.54,21.54,0,0,0,17.72,9.4c4.78,0,9.55,0,14.33,0h119.4a1.5,1.5,0,0,0,0-3h-132A23.19,23.19,0,0,1,454,410a18.22,18.22,0,0,1-9.29-7.63,20,20,0,0,1-2.66-9.51c-.31-5.32-.93-10.64-1.4-15.95l-2.94-33.52q-1.54-17.67-3.1-35.34-.92-10.32-1.81-20.64l-.09-1c-.17-1.91-3.17-1.93-3,0Z" transform="translate(-32.56 -59.34)"/><circle class="cls-13" cx="361.76" cy="167.04" r="6.14"/><path class="cls-13" d="M429.7,299q1.68,13.38,3.37,26.77,2.49,19.71,5,39.4c.19,1.54.39,3.09.58,4.63a19,19,0,0,0,1.13,5.51c3.27,7.38,12.43,10.17,19.86,10.18H592.17a40.62,40.62,0,0,0,9.71-.78c4.79-1.16,9.65-3.79,12.25-8.13,1.23-2.07,1.45-4.17,1.74-6.48q2-16,4-32.07,2.24-17.9,4.46-35.8l.27-2.09a1.51,1.51,0,0,0-1.5-1.5l-5.14,0-14-.08-20.66-.13-25.2-.15-27.61-.16-27.87-.17-25.87-.15-22-.13-15.8-.1c-2.49,0-5-.1-7.49,0h-.32a1.5,1.5,0,0,0,0,3l5.13,0,14,.08,20.66.12,25.21.15,27.6.17,27.87.16,25.87.16,22,.13,15.8.09c2.46,0,5,.25,7.49,0h.33l-1.5-1.5-3.32,26.57-4.83,38.73c-.37,3-.35,7-1.91,9.62-3.41,5.7-10.87,7.43-17,7.43H462.2a34.72,34.72,0,0,1-9.84-1c-4.23-1.23-8.89-4-10.26-8.44a23.45,23.45,0,0,1-.54-3.77q-2.12-16.74-4.22-33.47Q435.15,318.42,433,301c-.09-.66-.17-1.31-.25-2C432.46,297.12,429.46,297.09,429.7,299Z" transform="translate(-32.56 -59.34)"/><path class="cls-13" d="M432.42,313.09h181.5c2.46,0,4.93.06,7.39,0h.31a1.13,1.13,0,0,0,0-2.25H440.11c-2.45,0-4.92-.07-7.38,0h-.31a1.13,1.13,0,0,0,0,2.25Z" transform="translate(-32.56 -59.34)"/><path class="cls-13" d="M435,330.5H611.94c2.4,0,4.8.06,7.2,0h.31a1.13,1.13,0,0,0,0-2.25H442.53c-2.39,0-4.8-.07-7.19,0H435a1.13,1.13,0,0,0,0,2.25Z" transform="translate(-32.56 -59.34)"/><path class="cls-13" d="M437.22,347.91H609.93c2.35,0,4.7.06,7,0,.1,0,.21,0,.31,0a1.13,1.13,0,0,0,0-2.25H444.56c-2.34,0-4.69-.07-7,0h-.31a1.13,1.13,0,0,0,0,2.25Z" transform="translate(-32.56 -59.34)"/><path class="cls-13" d="M438.44,365.32H607.9c2.3,0,4.61.06,6.91,0h.3a1.13,1.13,0,0,0,0-2.25H445.66c-2.3,0-4.62-.07-6.92,0h-.3a1.13,1.13,0,0,0,0,2.25Z" transform="translate(-32.56 -59.34)"/><path class="cls-13" d="M454.82,299.14v84.35a1.13,1.13,0,0,0,2.25,0V299.14a1.13,1.13,0,0,0-2.25,0Z" transform="translate(-32.56 -59.34)"/><path class="cls-13" d="M483.05,299.33v84.35a1.13,1.13,0,0,0,2.25,0V299.33a1.13,1.13,0,0,0-2.25,0Z" transform="translate(-32.56 -59.34)"/><path class="cls-13" d="M511.28,299.64V384a1.13,1.13,0,0,0,2.25,0V299.64a1.13,1.13,0,0,0-2.25,0Z" transform="translate(-32.56 -59.34)"/><path class="cls-13" d="M539.51,299.64V384a1.13,1.13,0,0,0,2.25,0V299.64a1.13,1.13,0,0,0-2.25,0Z" transform="translate(-32.56 -59.34)"/><path class="cls-13" d="M567.74,300.78V384a1.13,1.13,0,0,0,2.25,0V300.78a1.13,1.13,0,0,0-2.25,0Z" transform="translate(-32.56 -59.34)"/><path class="cls-13" d="M596,300.78v83.16a1.13,1.13,0,0,0,2.25,0V300.78a1.13,1.13,0,0,0-2.25,0Z" transform="translate(-32.56 -59.34)"/><path class="cls-13" d="M432.49,285.61,420,265.35l-19.85-32.3-4.57-7.43c-1-1.64-3.6-.14-2.59,1.52l12.46,20.26q9.92,16.16,19.85,32.3l4.56,7.43c1,1.64,3.61.13,2.59-1.52Z" transform="translate(-32.56 -59.34)"/><polygon class="cls-28" points="598.51 263.97 614.09 276.39 606.66 288.78 589.58 276.61 598.51 263.97"/><line class="cls-34" x1="597.13" y1="265.92" x2="612.76" y2="278.98"/><line class="cls-34" x1="595.1" y1="268.81" x2="610.73" y2="281.87"/><line class="cls-34" x1="592.89" y1="271.3" x2="609.18" y2="284.14"/><line class="cls-34" x1="591.25" y1="273.88" x2="607.66" y2="286.83"/><polygon class="cls-32" points="651.88 271.15 619.9 308.27 598.66 288.53 614.83 272.12 623.87 278.97 651.88 271.15"/><line class="cls-15" x1="633.23" y1="274.06" x2="636.36" y2="280.72"/><line class="cls-15" x1="628.43" y1="275.87" x2="631.55" y2="282.53"/><path class="cls-15" d="M658,337.13s4.36-12.91.29-13.67C651.75,322.23,658,337.13,658,337.13Z" transform="translate(-32.56 -59.34)"/><line class="cls-15" x1="618.07" y1="267.71" x2="625.39" y2="278.2"/><path class="cls-10" d="M653.79,343.12a5.91,5.91,0,1,1-8.35.5A5.9,5.9,0,0,1,653.79,343.12Z" transform="translate(-32.56 -59.34)"/><path class="cls-10" d="M566.65,303.05l52,43.38L647,314.18s-68.56-48.69-82.91-50.49c-3.95-.49-10.82,2.64-19.17,8.39l2.38,12.23Z" transform="translate(-32.56 -59.34)"/><g class="cls-35"><path d="M566.65,303.05l52,43.38L647,314.18s-68.56-48.69-82.91-50.49c-3.95-.49-10.82,2.64-19.17,8.39l2.38,12.23Z" transform="translate(-32.56 -59.34)"/></g><path class="cls-15" d="M557.21,294.29l11.65,10.81,49.78,41.33L647,314.18s-69.75-48.69-82.91-50.49c-3.94-.54-10.82,2.64-19.17,8.39,0,0-21,15.23-38.38,31.94" transform="translate(-32.56 -59.34)"/><line class="cls-15" x1="577.41" y1="280.53" x2="605.59" y2="248.78"/><path class="cls-12" d="M458.76,328.55s29.34,7.71,35.27,5.65c5-1.72-9.6-3.61-9.6-3.61s10.24,2.34,11.21.31-10.83-3.43-10.83-3.43,11.95,2,12.23.1-12-3.15-12-3.15,12.13,2.15,12.5,0S485.48,321,485.48,321s7.85-.16,7.42-1.87-16.33-.62-28.78-4.25S458.76,328.55,458.76,328.55Z" transform="translate(-32.56 -59.34)"/><path class="cls-13" d="M485.84,324.93c3.22.61,6.86,1.27,10.13.7,1.42-.25,2.77-1.38,1.22-2.59s-4.41-1.57-6.45-1.88c-1.62-.26-3.26-.46-4.89-.59v.75c1,0,2-.09,3.06-.19a9.83,9.83,0,0,0,3.76-.76c.88-.51,1-1.4.08-1.92-1.21-.69-3-.62-4.33-.73-3.43-.29-6.87-.47-10.3-.68a69.89,69.89,0,0,1-8.64-1.34c-2.78-.52-5.6-1-8.33-1.72a.37.37,0,0,0-.2.72,132.15,132.15,0,0,0,14.38,2.76c2.35.35,4.71.4,7.08.56l5,.36a26.6,26.6,0,0,1,4.18.46c.59.15,1.27.43.6.93a2.76,2.76,0,0,1-.9.27,18.94,18.94,0,0,1-2.38.34c-1,.1-2,.16-3.06.19a.38.38,0,0,0,0,.75,38.5,38.5,0,0,1,9.42,1.62c.48.17,1.66.51,1.83,1.1.24.85-1.62.91-2.12.95a34.43,34.43,0,0,1-8.94-.79c-.47-.09-.67.64-.2.73Z" transform="translate(-32.56 -59.34)"/><path class="cls-13" d="M485.36,327.91c2.43.43,4.88.8,7.34,1a10.45,10.45,0,0,0,3.7,0c.88-.25,1.61-1.07,1.06-2a3.26,3.26,0,0,0-1.65-1.19,11.9,11.9,0,0,0-3.59-.74c-.49,0-.48.71,0,.75a11.91,11.91,0,0,1,3.06.58,3.1,3.1,0,0,1,1.46.88c.49.62-.33,1-.88,1.05a15.76,15.76,0,0,1-3.63-.11c-1.42-.15-2.84-.34-4.26-.56-.8-.12-1.61-.25-2.41-.39-.47-.08-.67.64-.2.72Z" transform="translate(-32.56 -59.34)"/><path class="cls-13" d="M485.65,331.23c1.27.24,2.56.42,3.84.58,1,.11,2,.21,2.94.24a8.88,8.88,0,0,0,2.3-.14c.57-.14,1.32-.42,1.48-1.06s-.44-1.18-.94-1.49a12.41,12.41,0,0,0-4.45-1.38c-.48-.08-.68.64-.2.72a15.13,15.13,0,0,1,3.74,1,3.32,3.32,0,0,1,.91.57,1.32,1.32,0,0,1,.18.22.21.21,0,0,1,0,.13c0,.08-.09.18-.25.28a2.59,2.59,0,0,1-.86.3,16.61,16.61,0,0,1-4.72-.14c-1.27-.15-2.55-.33-3.81-.58-.48-.09-.68.64-.2.73Z" transform="translate(-32.56 -59.34)"/><path class="cls-13" d="M490.51,331.92c.49.06,1.25.19,1.82.31s2.09.27,2.54.84a.6.6,0,0,1,0,.4c-.28.67-1.44.83-2,.92a26,26,0,0,1-6.47-.07,66.66,66.66,0,0,1-7-1.26c-3.74-.79-7.48-1.59-11.21-2.44-3.06-.7-6.39-1.21-9.3-2.43-.45-.19-.64.54-.2.72a55,55,0,0,0,9,2.37c4.08.94,8.18,1.82,12.28,2.68a55,55,0,0,0,9.14,1.31c1.46.06,5.94.47,6.49-1.67a1.15,1.15,0,0,0-.2-1c-.52-.65-1.75-.82-2.5-1s-1.6-.31-2.41-.41c-.48-.07-.47.69,0,.75Z" transform="translate(-32.56 -59.34)"/><path class="cls-10" d="M470.26,277.45,469,251.58s-56.93,24-55.63,56.24S459.77,330,459.77,330l4.12-16.33-16.59-8.79C457.62,283,470.26,277.45,470.26,277.45Z" transform="translate(-32.56 -59.34)"/><path class="cls-47" d="M470.26,277.45,469,251.58s-56.93,24-55.63,56.24S459.77,330,459.77,330l4.12-16.33-16.59-8.79C457.62,283,470.26,277.45,470.26,277.45Z" transform="translate(-32.56 -59.34)"/><line class="cls-15" x1="431.32" y1="254.33" x2="407.32" y2="241.61"/><path class="cls-15" d="M447.3,304.88a179.54,179.54,0,0,1,11.2-17.63,82.25,82.25,0,0,1,5.77-6.75" transform="translate(-32.56 -59.34)"/><path class="cls-13" d="M459.41,265.84a2.15,2.15,0,1,1-2.15-2.15A2.16,2.16,0,0,1,459.41,265.84Z" transform="translate(-32.56 -59.34)"/><path class="cls-13" d="M475,271.36a2.15,2.15,0,1,1-2.15-2.15A2.15,2.15,0,0,1,475,271.36Z" transform="translate(-32.56 -59.34)"/><path class="cls-13" d="M471.44,260.25a2.16,2.16,0,1,1-2.15-2.15A2.16,2.16,0,0,1,471.44,260.25Z" transform="translate(-32.56 -59.34)"/><path class="cls-13" d="M453.76,281.94a2.15,2.15,0,1,1-2.15-2.15A2.15,2.15,0,0,1,453.76,281.94Z" transform="translate(-32.56 -59.34)"/><path class="cls-13" d="M447.3,295.63a2.15,2.15,0,1,1-2.15-2.15A2.16,2.16,0,0,1,447.3,295.63Z" transform="translate(-32.56 -59.34)"/><path class="cls-13" d="M445.15,272.78a2.16,2.16,0,1,1-2.15-2.15A2.16,2.16,0,0,1,445.15,272.78Z" transform="translate(-32.56 -59.34)"/><path class="cls-13" d="M440.84,285.1a2.15,2.15,0,1,1-2.15-2.16A2.15,2.15,0,0,1,440.84,285.1Z" transform="translate(-32.56 -59.34)"/><path class="cls-13" d="M426.65,289.51a2.16,2.16,0,1,1-2.15-2.15A2.15,2.15,0,0,1,426.65,289.51Z" transform="translate(-32.56 -59.34)"/><path class="cls-13" d="M434.72,299a2.16,2.16,0,1,1-2.16-2.15A2.16,2.16,0,0,1,434.72,299Z" transform="translate(-32.56 -59.34)"/><path class="cls-13" d="M421.69,305.39a2.15,2.15,0,1,1-2.15-2.16A2.15,2.15,0,0,1,421.69,305.39Z" transform="translate(-32.56 -59.34)"/><path class="cls-13" d="M431.43,310.41a2.16,2.16,0,1,1-2.16-2.15A2.16,2.16,0,0,1,431.43,310.41Z" transform="translate(-32.56 -59.34)"/><path class="cls-13" d="M431,323.31a2.16,2.16,0,1,1-2.16-2.15A2.16,2.16,0,0,1,431,323.31Z" transform="translate(-32.56 -59.34)"/><path class="cls-13" d="M441.44,318.23a2.16,2.16,0,1,1-2.15-2.15A2.16,2.16,0,0,1,441.44,318.23Z" transform="translate(-32.56 -59.34)"/><path class="cls-13" d="M450.12,310.15A2.16,2.16,0,1,1,448,308,2.15,2.15,0,0,1,450.12,310.15Z" transform="translate(-32.56 -59.34)"/><path class="cls-13" d="M456.74,319.54a2.15,2.15,0,1,1-2.15-2.15A2.15,2.15,0,0,1,456.74,319.54Z" transform="translate(-32.56 -59.34)"/><path class="cls-13" d="M449.46,326.47a2.16,2.16,0,1,1-2.16-2.15A2.16,2.16,0,0,1,449.46,326.47Z" transform="translate(-32.56 -59.34)"/><path class="cls-13" d="M463.63,275.67a2.16,2.16,0,1,1-2.15-2.16A2.15,2.15,0,0,1,463.63,275.67Z" transform="translate(-32.56 -59.34)"/><path class="cls-33" d="M451.84,331.15a70.66,70.66,0,0,0,7.93-1.15l4.12-16.33-7.12-3.77Z" transform="translate(-32.56 -59.34)"/><line class="cls-15" x1="419.98" y1="268.8" x2="427.69" y2="268.75"/><line class="cls-15" x1="420.96" y1="264.58" x2="428.49" y2="265.59"/><line class="cls-15" x1="422.03" y1="259.97" x2="429.56" y2="261.39"/><line class="cls-15" x1="423.27" y1="254.61" x2="430.61" y2="257.17"/><path class="cls-13" d="M456.44,212.22s5.9,4.75,12.56,4.17,11.6-3.68,11.17-11-10.78-10.1-16.12-8.3c0,0-.85-9.53-10.54-7.77-9,1.62-7.8,10.08-7.8,10.08s-8.08-3.78-15.7,4.53-4,18.72-1.26,22.15c0,0-6.6,3.51-5.62,11.16s4.8,10,12,10c0,0,4.87-.48,6.26-2,0,0-1.86,7.56,5.78,8.95,8.75,1.6,11.5-7.74,13.5-11.48s-8.26-12.49-9.9-14.88C450.74,227.81,459.54,221.82,456.44,212.22Z" transform="translate(-32.56 -59.34)"/><path class="cls-32" d="M445.7,227a6.34,6.34,0,0,1,3.83,0l-1.17-3.57c-1.85-5.66.71-11.63,5.68-13.25l7.49-2.44c5-1.63,10.56,1.68,12.4,7.34l3.79,11.6c1.85,5.66-.71,11.63-5.68,13.25l-4.33,1.41,2,6.25a4.9,4.9,0,0,1-3.14,6.18l-3,1a4.9,4.9,0,0,1-6.17-3.14l-2.31-7.06-.13-.39-2.3-7.06a3.39,3.39,0,0,1-.11-.43A6.24,6.24,0,1,1,445.7,227Z" transform="translate(-32.56 -59.34)"/><path class="cls-13" d="M451.61,232.48a4.07,4.07,0,0,0-3.34-3.13,5,5,0,0,0-2.46.51.53.53,0,0,0-.19.72.54.54,0,0,0,.72.19,3.79,3.79,0,0,1,1.78-.38l.2,0,.09,0a2,2,0,0,1,.35.09l.08,0,.14.07a2.48,2.48,0,0,1,.31.18l.13.09c-.08-.06,0,0,0,0l.25.23.19.22,0,0,.09.13a4.34,4.34,0,0,1,.28.46l.1.2,0,.09,0,.05c.05.09,0-.12,0,0s.12.3.16.45a.52.52,0,0,0,1-.28Z" transform="translate(-32.56 -59.34)"/><path class="cls-13" d="M460.2,223.72a1.77,1.77,0,1,0,1.13-2.24A1.77,1.77,0,0,0,460.2,223.72Z" transform="translate(-32.56 -59.34)"/><path class="cls-13" d="M471.16,219.87a1.51,1.51,0,1,0,1-1.91A1.52,1.52,0,0,0,471.16,219.87Z" transform="translate(-32.56 -59.34)"/><path class="cls-10" d="M456.36,231.84a4.41,4.41,0,1,0,2.82-5.57A4.41,4.41,0,0,0,456.36,231.84Z" transform="translate(-32.56 -59.34)"/><path class="cls-10" d="M475,222.34a3.61,3.61,0,0,1,.77-.15l1.42,4.35a9.75,9.75,0,0,1,.46,1.94,3.53,3.53,0,0,1-.56.25,3.36,3.36,0,1,1-2.09-6.39Z" transform="translate(-32.56 -59.34)"/><polygon class="cls-10" points="434.4 160.31 436.07 166.7 438.47 163.9 434.4 160.31"/><path class="cls-13" d="M472.84,229.27a2.36,2.36,0,1,1-4.47,1.49c-.15-.45-.88-.25-.72.2a3.1,3.1,0,0,0,5.84.21,3.09,3.09,0,0,0,.07-2.1.37.37,0,0,0-.72.2Z" transform="translate(-32.56 -59.34)"/><path class="cls-13" d="M469,216.39c6.66-.58,11.6-3.68,11.17-11s-10.78-10.1-16.12-8.3c0,0-.85-9.53-10.54-7.77-9,1.62-7.8,10.08-7.8,10.08l-.21-.08.21,1.38V227l1.78-.26a6,6,0,0,1,3.14,1.28s8.92-6.18,5.82-15.78C456.44,212.22,462.34,217,469,216.39Z" transform="translate(-32.56 -59.34)"/><rect class="cls-10" x="454.45" y="246.1" width="18.51" height="9.02" rx="2.68" transform="translate(-88.47 102.76) rotate(-18.72)"/><rect class="cls-15" x="454.45" y="246.1" width="18.51" height="9.02" rx="2.68" transform="translate(-88.47 102.76) rotate(-18.72)"/><line class="cls-15" x1="436.01" y1="184.86" x2="438.81" y2="193.44"/><line class="cls-15" x1="432.9" y1="185.88" x2="435.7" y2="194.46"/><line class="cls-15" x1="429.79" y1="186.9" x2="432.59" y2="195.47"/><line class="cls-15" x1="426.67" y1="187.91" x2="429.47" y2="196.49"/><line class="cls-15" x1="423.56" y1="188.93" x2="426.36" y2="197.51"/></g><g id="Floor"><line class="cls-15" x1="5.24" y1="385.94" x2="679.63" y2="385.94"/></g></svg>