<?xml version="1.0" encoding="utf-8"?>
<!-- Generator: Adobe Illustrator 27.5.0, SVG Export Plug-In . SVG Version: 6.00 Build 0)  -->
<svg version="1.1" xmlns="http://www.w3.org/2000/svg" xmlns:xlink="http://www.w3.org/1999/xlink" x="0px" y="0px"
	 viewBox="0 0 3710 3710" style="enable-background:new 0 0 3710 3710;" xml:space="preserve">
<g id="Background">
	<g>
		<g>
			<rect style="fill:#FFFFFF;" width="3710" height="3710"/>
		</g>
	</g>
</g>
<g id="Illustration">
	<g>
		<linearGradient id="SVGID_1_" gradientUnits="userSpaceOnUse" x1="3592.0984" y1="4051.063" x2="1127.2802" y2="989.9135">
			<stop  offset="0" style="stop-color:#B37CFF"/>
			<stop  offset="1" style="stop-color:#F895E7"/>
		</linearGradient>
		<path style="opacity:0.3;fill:url(#SVGID_1_);" d="M2914.011,2843.856c-56.616,59.603-110.185,98.04-152.51,128.408
			c-497.512,356.971-1086.201,252.916-1211.314,227.504c-184.753-37.524-541.876-110.058-800.069-413.688
			c-390.625-459.367-329.799-1183.087-26.804-1660.825c55.423-87.386,348.181-572.401,943.21-650.182
			c360.105-47.072,779.873,47.867,1083.857,302.545C3388.471,1312.211,3343.046,2392.182,2914.011,2843.856z"/>
		<g>
			
				<linearGradient id="SVGID_00000158713147124498959600000002801436403139775162_" gradientUnits="userSpaceOnUse" x1="660.344" y1="2579.8491" x2="1452.8005" y2="2579.8491">
				<stop  offset="0" style="stop-color:#2B3582"/>
				<stop  offset="1" style="stop-color:#150E42"/>
			</linearGradient>
			<path style="fill:url(#SVGID_00000158713147124498959600000002801436403139775162_);" d="M982.555,1925.779l42.204,1181.725
				c0.316,8.83-5.751,16.614-14.39,18.465l-335.599,71.914c-5.412,1.16-10.003,4.717-12.478,9.667l0,0
				c-6.057,12.114,2.752,26.368,16.296,26.368h755.994c10.062,0,18.219-8.157,18.219-18.219v-1.111
				c0-8.655-6.089-16.115-14.568-17.85l-346.953-70.968c-8.527-1.744-14.63-9.276-14.568-17.98l8.443-1182.012H982.555z"/>
			
				<linearGradient id="SVGID_00000091737154648992048100000013907667769427357065_" gradientUnits="userSpaceOnUse" x1="1519.3715" y1="353.9383" x2="580.3132" y2="2225.4399">
				<stop  offset="0" style="stop-color:#CB236D"/>
				<stop  offset="1" style="stop-color:#4C246D"/>
			</linearGradient>
			<path style="fill:url(#SVGID_00000091737154648992048100000013907667769427357065_);" d="M965.455,499.827v0.278
				c0,8.726-6.229,16.209-14.81,17.792l-133.96,24.709c-6.809,1.256-12.304,6.288-14.153,12.96l-62.907,226.991
				c-8.925,32.204-10.315,66.031-4.062,98.859l84.046,441.242c5.456,28.644-0.867,58.22-17.584,82.112
				c-46.98,67.144-137.063,226.653-108.763,431.447c3.38,24.461,20.186,45.034,43.536,53.068
				c86.049,29.609,315.26,87.864,606.434-1.225c26.385-8.073,44.666-32.084,45.988-59.645
				c3.488-72.682-4.441-226.237-99.677-425.428c-10.357-21.662-13.457-46.119-8.452-69.603l91.753-430.533
				c7.585-35.591,6.125-72.516-4.245-107.397l-74.678-251.191c-2.146-7.219-8.541-12.354-16.053-12.891l-90.41-6.458
				c-9.468-0.677-16.803-8.554-16.803-18.046l0,0c0-9.699-7.648-17.672-17.339-18.076L984.3,481.751
				C974.021,481.322,965.455,489.539,965.455,499.827z"/>
			<defs>
				
					<filter id="Adobe_OpacityMaskFilter" filterUnits="userSpaceOnUse" x="1934.849" y="1097.639" width="302.525" height="1367.377">
					<feFlood  style="flood-color:white;flood-opacity:1" result="back"/>
					<feBlend  in="SourceGraphic" in2="back" mode="normal"/>
				</filter>
			</defs>
			
				<mask maskUnits="userSpaceOnUse" x="1934.849" y="1097.639" width="302.525" height="1367.377" id="SVGID_00000119113017909625728120000014224316317985806220_">
				<g style="filter:url(#Adobe_OpacityMaskFilter);">
					<defs>
						
							<filter id="Adobe_OpacityMaskFilter_00000116206668052794326190000013002215102896706492_" filterUnits="userSpaceOnUse" x="1934.849" y="1097.639" width="302.525" height="1367.377">
							<feFlood  style="flood-color:white;flood-opacity:1" result="back"/>
							<feBlend  in="SourceGraphic" in2="back" mode="normal"/>
						</filter>
					</defs>
					
						<mask maskUnits="userSpaceOnUse" x="1934.849" y="1097.639" width="302.525" height="1367.377" id="SVGID_00000119113017909625728120000014224316317985806220_">
						<g style="filter:url(#Adobe_OpacityMaskFilter_00000116206668052794326190000013002215102896706492_);">
						</g>
					</mask>
					
						<linearGradient id="SVGID_00000080184377100797483780000012361521799798622125_" gradientUnits="userSpaceOnUse" x1="1694.3964" y1="581.248" x2="2227.9746" y2="2389.4834">
						<stop  offset="0" style="stop-color:#FFFFFF"/>
						<stop  offset="1" style="stop-color:#000000"/>
					</linearGradient>
					
						<path style="mask:url(#SVGID_00000119113017909625728120000014224316317985806220_);fill:url(#SVGID_00000080184377100797483780000012361521799798622125_);" d="
						M1940.523,1130.76c44.4,119.699,51.8,222.298,74,470.246c17.026,190.158,38.402,651.849,47.443,856.747
						c60.854,14.467,126.035,4.96,175.409-7.951c-11.056-176.062-35.396-533.009-67.452-823.146
						C2125.522,1224.809,1896.123,1011.061,1940.523,1130.76z"/>
				</g>
			</mask>
			
				<linearGradient id="SVGID_00000065036023900017185230000011790417853309266829_" gradientUnits="userSpaceOnUse" x1="1694.3964" y1="581.248" x2="2227.9746" y2="2389.4834">
				<stop  offset="0" style="stop-color:#FFFFFF"/>
				<stop  offset="1" style="stop-color:#FFFFFF"/>
			</linearGradient>
			<path style="opacity:0.71;fill:url(#SVGID_00000065036023900017185230000011790417853309266829_);" d="M1940.523,1130.76
				c44.4,119.699,51.8,222.298,74,470.246c17.026,190.158,38.402,651.849,47.443,856.747c60.854,14.467,126.035,4.96,175.409-7.951
				c-11.056-176.062-35.396-533.009-67.452-823.146C2125.522,1224.809,1896.123,1011.061,1940.523,1130.76z"/>
			
				<linearGradient id="SVGID_00000046331751697656854080000013921988414153563534_" gradientUnits="userSpaceOnUse" x1="1762.0822" y1="977.2928" x2="596.8211" y2="2976.2327">
				<stop  offset="0" style="stop-color:#53D8FF"/>
				<stop  offset="1" style="stop-color:#3840F7"/>
			</linearGradient>
			<path style="fill:url(#SVGID_00000046331751697656854080000013921988414153563534_);" d="M820.361,1358.01
				c144.6,79.813,298.781,89.439,461.302,20.092c162.928,198.229,220.329,626.303,363.438,1040.691
				c4.505,13.043-2.015,27.317-14.876,32.32c-102.511,39.872-277.916,89.029-374.058,47.354
				c-98.668-9.344-244.833,11.425-376.948,37.248c-121.062,54.441-257.683-39.609-385.759-83.884
				c-13.618-4.708-21.048-19.392-16.621-33.103C608.144,2012.044,632.185,1553.012,820.361,1358.01z"/>
			
				<linearGradient id="SVGID_00000086665453892086027410000010857487111408892809_" gradientUnits="userSpaceOnUse" x1="1804.4048" y1="795.0311" x2="678.1672" y2="3802.7446">
				<stop  offset="0" style="stop-color:#53D8FF"/>
				<stop  offset="1" style="stop-color:#3840F7"/>
			</linearGradient>
			<path style="fill:url(#SVGID_00000086665453892086027410000010857487111408892809_);" d="M800.926,523.715
				c0,0,44.4-51.299,74-25.65c29.6,25.65,147.922,246.25,288.522,331.749c140.6,85.499,317.718,37.197,467.305-63.046
				c233.223-156.291,576.17,432.391,650.17,851.338c53.868,304.973,48.916,591.823,42.235,725.326
				c-2.468,49.303-32.221,91.206-73.712,103.073c-58.944,16.859-145.963,31.186-220.123,0.945
				c-27.424-11.183-49.924-16.678-68.344-18.433c-47.646-4.54-85.09-48.987-88.632-104.072l-85.762-1333.898
				c-1.369-21.289-15.487-39.444-33.909-41.082c-13.463-1.196-28.866,6.132-41.552,35.446c-29.6,68.4-155.4,418.946-429.199,436.046
				c-273.8,17.1-517.999-359.097-540.199-401.847c-22.2-42.75,2.728-81.78,2.728-81.78l8.024,48.676
				C752.478,986.507,904.525,968.311,800.926,523.715z"/>
			
				<linearGradient id="SVGID_00000162331836430891425170000006954248632312649606_" gradientUnits="userSpaceOnUse" x1="2802.4719" y1="626.5197" x2="802.1383" y2="3070.1973">
				<stop  offset="0" style="stop-color:#53D8FF"/>
				<stop  offset="1" style="stop-color:#3840F7"/>
			</linearGradient>
			<path style="fill:url(#SVGID_00000162331836430891425170000006954248632312649606_);" d="M1827.327,882.002
				c40.274,121.012,122.841,367.151,142.978,617.819c15.444,192.244,34.834,658.999,43.035,866.145
				c55.199,14.625,114.324,5.015,159.11-8.038c-10.029-177.993-32.106-538.856-61.185-832.175
				C2070.991,1119.497,1787.052,760.99,1827.327,882.002z"/>
			
				<linearGradient id="SVGID_00000005268445545844363810000014802972385816468135_" gradientUnits="userSpaceOnUse" x1="1720.9205" y1="334.8811" x2="473.4085" y2="2083.4023">
				<stop  offset="0" style="stop-color:#53D8FF"/>
				<stop  offset="1" style="stop-color:#3840F7"/>
			</linearGradient>
			<path style="fill:url(#SVGID_00000005268445545844363810000014802972385816468135_);" d="M964.687,895.813
				c150.029,493.431,398.699,461.356,731.907-21.083c-327.994,261.643-559.392,247.979-712.844,12.176
				C977.043,876.6,961.11,884.048,964.687,895.813z"/>
		</g>
		<g>
			
				<linearGradient id="SVGID_00000059269212420227480490000016607312037658890890_" gradientUnits="userSpaceOnUse" x1="1917.7653" y1="1795.2242" x2="3828.3745" y2="-68.6231">
				<stop  offset="0" style="stop-color:#CB236D"/>
				<stop  offset="1" style="stop-color:#4C246D"/>
			</linearGradient>
			<path style="fill:url(#SVGID_00000059269212420227480490000016607312037658890890_);" d="M1965.625,1249.123v381.382
				c0,36.72,28.859,66.956,65.538,68.668l472.832,22.065c38.251,1.785,70.587-28.029,71.906-66.299l15.215-441.232
				c1.413-40.977-33.129-74.071-74.008-70.907l-488.047,37.784C1993.261,1183.357,1965.625,1213.215,1965.625,1249.123z"/>
			<g>
				<path style="fill:#FFFFFF;" d="M2225.665,1261.724c18.731-0.864,58.89-1.702,87.605,4.868c4.158,0.951,6.478,5.5,4.691,9.373
					c-4.989,10.817-6.596,27.005-1.471,42.047c0.749,2.196,0.79,4.573,0.089,6.785l-15.591,49.234l-71.909-1.396l-10.611-54.204
					c-0.386-1.973-0.223-4.007,0.488-5.888c2.487-6.582,7.753-24.232,0.819-41.66
					C2218.076,1266.608,2221.07,1261.936,2225.665,1261.724z"/>
				<path style="fill:#FFFFFF;" d="M2375.17,1608.343c0,0-16.581-142.662-71.902-230.288l-75.653-2.956
					c0,0-56.484,121.893-62.775,225.592c0,0,20.53,18.217,63.58,9.789c43.051-8.428,44.862,1.992,71.255,10.35
					C2326.068,1629.188,2375.17,1608.343,2375.17,1608.343z"/>
				
					<linearGradient id="SVGID_00000048502833790245650830000008126701742207375260_" gradientUnits="userSpaceOnUse" x1="2010.7878" y1="1367.0737" x2="2062.0923" y2="1246.5085" gradientTransform="matrix(0.9973 0.0729 -0.0729 0.9973 327.4425 -77.6781)">
					<stop  offset="0" style="stop-color:#FDF53F"/>
					<stop  offset="1" style="stop-color:#D93C65"/>
				</linearGradient>
				<path style="fill:url(#SVGID_00000048502833790245650830000008126701742207375260_);" d="M2227.027,1362.146l0.587,12.954
					c0,0,51.882,11.506,75.653,2.956l-0.355-12.096C2302.913,1365.959,2251.199,1369.107,2227.027,1362.146z"/>
			</g>
		</g>
		<g>
			
				<linearGradient id="SVGID_00000090277191464070069690000002674045276017053629_" gradientUnits="userSpaceOnUse" x1="2242.0342" y1="838.602" x2="4152.6455" y2="-1025.2477">
				<stop  offset="0" style="stop-color:#B37CFF"/>
				<stop  offset="1" style="stop-color:#F895E7"/>
			</linearGradient>
			<path style="fill:url(#SVGID_00000090277191464070069690000002674045276017053629_);" d="M1985.282,634.869v355.167
				c0,45.171,36.311,81.977,81.479,82.515c108.802,1.298,297.326,0.322,404.752-0.417c44.75-0.308,80.731-36.858,80.363-81.607
				c-0.768-93.333-1.679-245.616-0.427-337.377c0.609-44.633-34.385-81.626-78.981-83.537l-401.131-17.191
				C2024.419,550.411,1985.282,587.907,1985.282,634.869z"/>
			<path style="fill:#FFFFFF;" d="M2306.239,745.581l-3.458-5.775c-3.844-6.421-5.068-14.075-3.415-21.374l15.564-68.74
				l-17.436-60.646c-29.188,13.413-59.031,12.866-89.453,0l-14.403,60.646l15.511,68.507c1.668,7.366,0.406,15.092-3.519,21.546
				l-3.549,5.836c-15.766,27.232-21.738,59.038-16.923,90.133l28.948,186.952c26.703,10.806,53.406,10.806,80.109,0l28.947-186.952
				C2327.976,804.619,2322.004,772.813,2306.239,745.581z"/>
		</g>
		<g>
			
				<linearGradient id="SVGID_00000132083593308735029280000000995139621029488553_" gradientUnits="userSpaceOnUse" x1="2524.5945" y1="1603.9731" x2="1796.4243" y2="3006.8674">
				<stop  offset="0" style="stop-color:#A737D5"/>
				<stop  offset="1" style="stop-color:#EF497A"/>
			</linearGradient>
			<path style="fill:url(#SVGID_00000132083593308735029280000000995139621029488553_);" d="M1978.869,1931.594v355.167
				c0,45.171,36.311,81.977,81.479,82.515c108.802,1.298,297.326,0.323,404.752-0.417c44.75-0.308,80.731-36.858,80.363-81.607
				c-0.768-93.333-1.679-245.616-0.427-337.377c0.609-44.633-34.385-81.626-78.981-83.537l-401.131-17.191
				C2018.006,1847.137,1978.869,1884.632,1978.869,1931.594z"/>
			<g>
				<path style="fill:#FFFFFF;" d="M2201.703,2068.387l-57.12,155.146c-4.498,12.218-3.667,27.713,2.158,38.399
					c10.023,18.388,28.04,42.849,52.444,41.401c38.848-2.303,48.92-36.279,92.444-9.789c43.523,26.489,65.201-36.677,80.573-37.43
					c1.703-0.083,3.21-0.14,4.54-0.177c3.85-0.106,6.081-7.019,3.919-12.121l-72.126-170.246L2201.703,2068.387z"/>
				<path style="fill:#FFFFFF;" d="M2201.703,2062.602l-1.684-9.514l-24.214-119.727c0,0,24.1-19.009,35.25-19.009
					c0,0,45.682,34.712,84.53,0c0,0,25.539,7.438,35.251,22.315l-23.381,129.24L2201.703,2062.602z"/>
				
					<linearGradient id="SVGID_00000103961417394980902710000003714620668009505675_" gradientUnits="userSpaceOnUse" x1="2198.0215" y1="2077.344" x2="2310.6929" y2="2077.344">
					<stop  offset="0" style="stop-color:#CB236D"/>
					<stop  offset="1" style="stop-color:#4C246D"/>
				</linearGradient>
				<path style="fill:url(#SVGID_00000103961417394980902710000003714620668009505675_);" d="M2198.021,2082.74l1.164-31.708
					c0,0,61.78,21.489,110.384,1.653l1.124,32.233C2310.693,2084.917,2266.64,2128.498,2198.021,2082.74z"/>
			</g>
		</g>
		<g>
			
				<linearGradient id="SVGID_00000178163486262764349280000000739037949965169833_" gradientUnits="userSpaceOnUse" x1="-11934.5957" y1="16323.1162" x2="-13217.3711" y2="17215.0469" gradientTransform="matrix(-1 0 0 1 8869.667 0)">
				<stop  offset="0" style="stop-color:#2B3582"/>
				<stop  offset="1" style="stop-color:#150E42"/>
			</linearGradient>
			<path style="fill:url(#SVGID_00000178163486262764349280000000739037949965169833_);" d="M1223.887,3229.348
				c4.733,0,8.569-3.836,8.569-8.569V2196.466c0-4.733-3.836-8.569-8.569-8.569c-4.734,0-8.57,3.836-8.57,8.569v1024.313
				C1215.318,3225.512,1219.154,3229.348,1223.887,3229.348z"/>
			
				<linearGradient id="SVGID_00000181771489396287944430000000014621341258186388_" gradientUnits="userSpaceOnUse" x1="-12010.2695" y1="16214.2617" x2="-13293.0459" y2="17106.1934" gradientTransform="matrix(-1 0 0 1 8869.667 0)">
				<stop  offset="0" style="stop-color:#2B3582"/>
				<stop  offset="1" style="stop-color:#150E42"/>
			</linearGradient>
			<path style="fill:url(#SVGID_00000181771489396287944430000000014621341258186388_);" d="M1456.117,3229.348
				c4.733,0,8.57-3.836,8.57-8.569V2196.466c0-4.733-3.836-8.569-8.57-8.569s-8.57,3.836-8.57,8.569v1024.313
				C1447.547,3225.512,1451.383,3229.348,1456.117,3229.348z"/>
			
				<linearGradient id="SVGID_00000061449109285704997140000010430850074550944401_" gradientUnits="userSpaceOnUse" x1="-2191.8452" y1="15904.6885" x2="-4146.0776" y2="18690.7246" gradientTransform="matrix(-1 0 0 1 8869.667 0)">
				<stop  offset="0" style="stop-color:#53D8FF"/>
				<stop  offset="1" style="stop-color:#3840F7"/>
			</linearGradient>
			<path style="fill:url(#SVGID_00000061449109285704997140000010430850074550944401_);" d="M2026.675,3235.846
				c1.12,0,2.254-0.221,3.349-0.687c4.355-1.851,6.385-6.882,4.534-11.241l-438.221-1030.807c-1.851-4.355-6.891-6.38-11.239-4.532
				c-4.355,1.851-6.385,6.882-4.534,11.241l438.221,1030.807C2020.17,3233.888,2023.342,3235.846,2026.675,3235.846z"/>
			
				<linearGradient id="SVGID_00000129199235452065410750000018442223222901639086_" gradientUnits="userSpaceOnUse" x1="-2010.4233" y1="16031.9463" x2="-3964.6558" y2="18817.9805" gradientTransform="matrix(-1 0 0 1 8869.667 0)">
				<stop  offset="0" style="stop-color:#53D8FF"/>
				<stop  offset="1" style="stop-color:#3840F7"/>
			</linearGradient>
			<path style="fill:url(#SVGID_00000129199235452065410750000018442223222901639086_);" d="M1755.99,3235.846
				c1.12,0,2.254-0.221,3.349-0.687c4.355-1.851,6.385-6.882,4.534-11.241l-438.221-1030.807c-1.853-4.355-6.889-6.38-11.239-4.532
				c-4.355,1.851-6.385,6.882-4.534,11.241l438.221,1030.807C1749.485,3233.888,1752.657,3235.846,1755.99,3235.846z"/>
			
				<linearGradient id="SVGID_00000147205662013213477690000014474191812576494508_" gradientUnits="userSpaceOnUse" x1="-2363.5991" y1="16196.4277" x2="-4357.1616" y2="19038.5352" gradientTransform="matrix(-1 0 0 1 8869.667 0)">
				<stop  offset="0" style="stop-color:#53D8FF"/>
				<stop  offset="1" style="stop-color:#3840F7"/>
			</linearGradient>
			<path style="fill:url(#SVGID_00000147205662013213477690000014474191812576494508_);" d="M1201.316,2205.893h419.955
				c1.553,0,2.811-1.259,2.811-2.812v-18.533c0-1.553-1.259-2.811-2.811-2.811h-419.955c-1.553,0-2.811,1.259-2.811,2.811v18.533
				C1198.504,2204.635,1199.763,2205.893,1201.316,2205.893z"/>
			
				<linearGradient id="SVGID_00000137126535190440182700000010561406314754977159_" gradientUnits="userSpaceOnUse" x1="-2167.0972" y1="15921.9893" x2="-4121.3232" y2="18708.0156" gradientTransform="matrix(-1 0 0 1 8869.667 0)">
				<stop  offset="0" style="stop-color:#53D8FF"/>
				<stop  offset="1" style="stop-color:#3840F7"/>
			</linearGradient>
			<path style="fill:url(#SVGID_00000137126535190440182700000010561406314754977159_);" d="M1383.969,2362.654h271.486
				c4.733,0,8.57-3.836,8.57-8.57s-3.836-8.57-8.57-8.57h-271.486c-4.733,0-8.57,3.836-8.57,8.57
				S1379.236,2362.654,1383.969,2362.654z"/>
			
				<linearGradient id="SVGID_00000175288051107220440290000003947621146182755994_" gradientUnits="userSpaceOnUse" x1="-2131.283" y1="15947.126" x2="-4085.5088" y2="18733.1504" gradientTransform="matrix(-1 0 0 1 8869.667 0)">
				<stop  offset="0" style="stop-color:#53D8FF"/>
				<stop  offset="1" style="stop-color:#3840F7"/>
			</linearGradient>
			
				<rect x="1467.27" y="2540.467" style="fill:url(#SVGID_00000175288051107220440290000003947621146182755994_);" width="271.487" height="17.139"/>
			
				<linearGradient id="SVGID_00000100365266506663232770000017140241425119107508_" gradientUnits="userSpaceOnUse" x1="-2093.6785" y1="15973.499" x2="-4047.9075" y2="18759.5293" gradientTransform="matrix(-1 0 0 1 8869.667 0)">
				<stop  offset="0" style="stop-color:#53D8FF"/>
				<stop  offset="1" style="stop-color:#3840F7"/>
			</linearGradient>
			
				<rect x="1547.914" y="2735.419" style="fill:url(#SVGID_00000100365266506663232770000017140241425119107508_);" width="271.486" height="17.139"/>
			
				<linearGradient id="SVGID_00000021800696254438163620000013876366872537512591_" gradientUnits="userSpaceOnUse" x1="-2058.7131" y1="15998.0361" x2="-4012.9451" y2="18784.0703" gradientTransform="matrix(-1 0 0 1 8869.667 0)">
				<stop  offset="0" style="stop-color:#53D8FF"/>
				<stop  offset="1" style="stop-color:#3840F7"/>
			</linearGradient>
			<path style="fill:url(#SVGID_00000021800696254438163620000013876366872537512591_);" d="M1632.484,2947.51h271.486
				c4.734,0,8.57-3.836,8.57-8.569c0-4.733-3.836-8.569-8.57-8.569h-271.486c-4.733,0-8.569,3.836-8.569,8.569
				C1623.914,2943.674,1627.75,2947.51,1632.484,2947.51z"/>
			
				<linearGradient id="SVGID_00000026133596538387131960000001041498655406390431_" gradientUnits="userSpaceOnUse" x1="-2021.8541" y1="16023.8789" x2="-3976.0818" y2="18809.9082" gradientTransform="matrix(-1 0 0 1 8869.667 0)">
				<stop  offset="0" style="stop-color:#53D8FF"/>
				<stop  offset="1" style="stop-color:#3840F7"/>
			</linearGradient>
			<path style="fill:url(#SVGID_00000026133596538387131960000001041498655406390431_);" d="M1714.247,3142.466h271.486
				c4.733,0,8.57-3.836,8.57-8.57c0-4.733-3.836-8.57-8.57-8.57h-271.486c-4.733,0-8.57,3.836-8.57,8.57
				C1705.677,3138.63,1709.513,3142.466,1714.247,3142.466z"/>
		</g>
		<g>
			
				<linearGradient id="SVGID_00000091017639665997940560000012992753875157503935_" gradientUnits="userSpaceOnUse" x1="3298.7661" y1="1973.8926" x2="3482.8459" y2="1973.8926" gradientTransform="matrix(1 0 0 1 -1915.5942 0)">
				<stop  offset="0" style="stop-color:#F9B776"/>
				<stop  offset="1" style="stop-color:#F47960"/>
			</linearGradient>
			<path style="fill:url(#SVGID_00000091017639665997940560000012992753875157503935_);" d="M1383.172,1803.959
				c0,0,98.472,214.622,150.137,303.518c0,0,10.262,55.935,0,73.524l-8.745,3.887l40.813-1.215c0,0,3.626-75.239,0.794-79.441
				c-2.831-4.203-8.494-3.927-8.494-3.927s-17.501-138.646-68.182-168.237l-49.117-169.173L1383.172,1803.959z"/>
			
				<linearGradient id="SVGID_00000133500631226139621710000002893957118333904536_" gradientUnits="userSpaceOnUse" x1="3551.7896" y1="1562.2314" x2="3460.6272" y2="2154.7844" gradientTransform="matrix(1 0 0 1 -1915.5942 0)">
				<stop  offset="0" style="stop-color:#53D8FF"/>
				<stop  offset="1" style="stop-color:#3840F7"/>
			</linearGradient>
			<path style="fill:url(#SVGID_00000133500631226139621710000002893957118333904536_);" d="M1507.133,2195.426
				c-0.06,0.984,31.87,0.534,49.214,0.218c6.404-0.117,11.864-4.618,13.229-10.877l13.099-68.816
				c1.244-6.54-2.908-12.892-9.398-14.376l-7.311-1.671c0,0-10.43,14.308-7.147,27.778c3.283,13.471,6.205,48.365-2.092,52.43
				c-8.297,4.066-32.164,4.777-32.164,4.777S1507.679,2186.563,1507.133,2195.426z"/>
			
				<linearGradient id="SVGID_00000050642458763239282650000002267444760771478917_" gradientUnits="userSpaceOnUse" x1="3358.9001" y1="1532.5565" x2="3267.7375" y2="2125.1116" gradientTransform="matrix(1 0 0 1 -1915.5942 0)">
				<stop  offset="0" style="stop-color:#53D8FF"/>
				<stop  offset="1" style="stop-color:#3840F7"/>
			</linearGradient>
			<path style="fill:url(#SVGID_00000050642458763239282650000002267444760771478917_);" d="M1289.837,2196.675
				c-3.229,1.84-1.897,6.77,1.819,6.733c29.026-0.292,94.068-1.21,99.848-3.614c7.461-3.103-2.72-29.915-13.434-38.991
				l-59.162,19.309L1289.837,2196.675z"/>
			
				<linearGradient id="SVGID_00000077326604232922790580000002840103681363316653_" gradientUnits="userSpaceOnUse" x1="3187.0669" y1="1987.5801" x2="3293.6643" y2="1987.5801" gradientTransform="matrix(1 0 0 1 -1915.5942 0)">
				<stop  offset="0" style="stop-color:#F9B776"/>
				<stop  offset="1" style="stop-color:#F47960"/>
			</linearGradient>
			<path style="fill:url(#SVGID_00000077326604232922790580000002840103681363316653_);" d="M1271.473,1790.271
				c0,0,63.635,307.843,81.637,367.894l-42.585,26.724c0,0,21.341-3.63,37.165-4.777c15.825-1.146,30.381-19.309,30.381-19.309
				l-5.102-8.137c0,0-15.958-306.167-12.073-340.933L1271.473,1790.271z"/>
			
				<linearGradient id="SVGID_00000155106020629136542890000009925170226836634534_" gradientUnits="userSpaceOnUse" x1="2957.4377" y1="1187.8198" x2="3166.1208" y2="1187.8198" gradientTransform="matrix(1 0 0 1 -1915.5942 0)">
				<stop  offset="0" style="stop-color:#F9B776"/>
				<stop  offset="1" style="stop-color:#F47960"/>
			</linearGradient>
			<path style="fill:url(#SVGID_00000155106020629136542890000009925170226836634534_);" d="M1113.509,1072.225
				c0,0-8.778,160.137,137.018,241.968l-35.101,80.055c0,0-131.998-79.839-127.117-297.593c0.14-6.249-2.114-12.317-6.195-17.052
				l-28.054-32.546c-10.689-12.4-14.683-29.221-10.71-45.102l3.693-14.761c1.236-4.942,6.865-7.32,11.27-4.761l2.934,1.704
				c9.339,5.425,16.737,13.648,21.148,23.507l14.087,22.229c5.146,11.503,6.346,16.328,18.9,15.244l23.344,0.263L1113.509,1072.225z
				"/>
			
				<linearGradient id="SVGID_00000168824583602172660110000011581742303503017119_" gradientUnits="userSpaceOnUse" x1="1273.0763" y1="1455.0737" x2="1949.5735" y2="762.8452">
				<stop  offset="0" style="stop-color:#FDF53F"/>
				<stop  offset="1" style="stop-color:#D93C65"/>
			</linearGradient>
			<path style="fill:url(#SVGID_00000168824583602172660110000011581742303503017119_);" d="M1245.452,1302.193
				c24.391,6.765,107.025,28.502,158.612,27.614l-31.673,178.738l2.52,29.153l-103.269-0.463c0,0-29.071-67.514-52.007-101.174
				c-6.625-9.722-1.694-21.317,2.061-32.466l-5.158-3.435c-5.25-3.494-7.526-10.059-5.567-16.053l25.148-76.942
				C1237.425,1303.287,1241.509,1301.099,1245.452,1302.193z"/>
			
				<linearGradient id="SVGID_00000121976247300665084880000006022454791769787290_" gradientUnits="userSpaceOnUse" x1="3092.9521" y1="1506.0193" x2="3434.8093" y2="1891.5581" gradientTransform="matrix(1 0 0 1 -1915.5942 0)">
				<stop  offset="0" style="stop-color:#2B3582"/>
				<stop  offset="1" style="stop-color:#150E42"/>
			</linearGradient>
			<path style="fill:url(#SVGID_00000121976247300665084880000006022454791769787290_);" d="M1263.368,1521.979l2.031,17.662
				c0,0-29.183,87.398,14.593,291.527c0,0,94.808,26.859,172.73-37.411c0,0-21.981-192.667-27.985-201.641
				c-29.904-44.701-49.825-54.419-49.825-54.419l-0.899-19.295C1374.013,1518.402,1290.671,1533.47,1263.368,1521.979z"/>
			
				<linearGradient id="SVGID_00000036217995767882177650000010203119620294819516_" gradientUnits="userSpaceOnUse" x1="3219.3823" y1="1290.2737" x2="3284.6143" y2="1290.2737" gradientTransform="matrix(1 0 0 1 -1915.5942 0)">
				<stop  offset="0" style="stop-color:#F9B776"/>
				<stop  offset="1" style="stop-color:#F47960"/>
			</linearGradient>
			<path style="fill:url(#SVGID_00000036217995767882177650000010203119620294819516_);" d="M1303.792,1316.598
				c-0.362-0.478,21.56-66.185,21.56-66.185l31.401,2.848l12.267,74.541C1369.02,1327.802,1319.808,1337.735,1303.792,1316.598z"/>
			
				<linearGradient id="SVGID_00000129172523997319479990000015530779252484648876_" gradientUnits="userSpaceOnUse" x1="3323.0564" y1="1205.9756" x2="3797.8582" y2="1238.2621" gradientTransform="matrix(1 0 0 1 -1915.5942 0)">
				<stop  offset="0" style="stop-color:#F9B776"/>
				<stop  offset="1" style="stop-color:#F47960"/>
			</linearGradient>
			<path style="fill:url(#SVGID_00000129172523997319479990000015530779252484648876_);" d="M1349.235,1146.793
				c-2.094,1.304-67.1,28.168-53.133,95.657c0.825,3.988,3.486,7.368,7.206,9.027c9.539,4.255,30.076,11.541,54.64,9.044
				c34.054-3.46,56.369-62.886,55.42-80.178C1412.419,1163.05,1369.987,1133.871,1349.235,1146.793z"/>
			
				<linearGradient id="SVGID_00000136380618308300240930000009025309912548036770_" gradientUnits="userSpaceOnUse" x1="3401.0964" y1="1177.3553" x2="3233.967" y2="1511.6136" gradientTransform="matrix(1 0 0 1 -1915.5942 0)">
				<stop  offset="0" style="stop-color:#2B3582"/>
				<stop  offset="1" style="stop-color:#150E42"/>
			</linearGradient>
			<path style="fill:url(#SVGID_00000136380618308300240930000009025309912548036770_);" d="M1369.02,1120.556
				c-1.709,0.224-37.566,12.713-19.785,38.696c17.782,25.983,24.453,41.279,16.042,52.688c-7.662,10.395-24.636,4.47-23.155,26.097
				c0.297,4.329-1.575,8.531-5.169,10.964c-15.996,10.827-55.02,44.154-16.356,91.681c3.142,3.863,3.79,9.196,1.365,13.545
				c-11.324,20.312-35.111,79.814,51.006,112.82c85.097,32.616,115.821-23.01,124.406-45.244c1.857-4.809,6.591-7.753,11.74-7.51
				c9.35,0.442,22.601-1.114,21.992-13.61c-0.37-7.59-5.105-14.392-10.702-19.845c-5.539-5.397-4.445-14.848,2.279-18.668
				c5.079-2.886,9.575-7.392,11.472-14.422c5.157-19.109-5.138-76.249-59.908-85.932c-4.569-0.808-9.353-5.091-10.018-9.682
				c-0.01-0.069-0.02-0.137-0.032-0.205c-0.734-4.441,0.768-8.981,4.398-11.643c8.745-6.416,19.96-19.332,10.851-40.044
				c-8.079-18.37-23.574-24.567-35.084-26.542c-6.757-1.16-11.201-7.551-9.776-14.257
				C1438.468,1141.163,1435.084,1111.894,1369.02,1120.556z"/>
		</g>
		<g>
			
				<linearGradient id="SVGID_00000119085423205682340540000008522570876399297673_" gradientUnits="userSpaceOnUse" x1="-2269.7363" y1="376.9553" x2="-2656.6946" y2="852.666" gradientTransform="matrix(-0.9922 -0.1247 -0.1247 0.9922 259.1095 715.4178)">
				<stop  offset="0" style="stop-color:#F9B776"/>
				<stop  offset="1" style="stop-color:#F47960"/>
			</linearGradient>
			<path style="fill:url(#SVGID_00000119085423205682340540000008522570876399297673_);" d="M2501.007,1507.168
				c2.519-4.816,9.646-4.057,11.1,1.18c5.386,19.385,18.42,53.211,45.771,65.222c1.378,0.605,2.683,1.217,3.944,1.833
				c1.241-3.719,1.258-8.037-1.713-12.578c-8.504-12.996,6.847-30.744,6.847-30.744s1.016,15.632,12.898,25.474
				c10.234,8.478,15.148,27.344,8.155,42.821c-14.804,57.498-36.97,133.546,49.376,189.104
				c86.345,55.558,207.944-104.851,207.944-104.851l-60.353,191.327c0,0-93.155,68.743-201.51-27.92
				c-108.356-96.663-36.535-237.322-36.535-237.322S2464.288,1577.374,2501.007,1507.168z"/>
			
				<linearGradient id="SVGID_00000052816565102954678470000010052774992898605721_" gradientUnits="userSpaceOnUse" x1="2516.6506" y1="-183.5467" x2="2262.9038" y2="117.9647" gradientTransform="matrix(0.9602 0.2794 -0.2794 0.9602 897.5138 797.6744)">
				<stop  offset="0" style="stop-color:#2B3582"/>
				<stop  offset="1" style="stop-color:#150E42"/>
			</linearGradient>
			<path style="fill:url(#SVGID_00000052816565102954678470000010052774992898605721_);" d="M2860.452,1403.513
				c0,0-25.016-112.212,103.52-82.507c0,0,62.393-10.196,65.566,48.694c0,0,40.218,26.501,10.771,77.465
				c0,0,119.525-46.167,171.602,58.598c52.077,104.765,4.208,162.411-45.975,177.426c0,0,40.657,20.414,21.412,66.508
				c-19.245,46.094-116.705,78.586-174.276,22.532c0,0-163.817,21.648-160.539-94.063c0,0-76.193-49.203,3.834-144.83
				C2936.396,1437.708,2860.452,1403.513,2860.452,1403.513z"/>
			
				<linearGradient id="SVGID_00000055697810525295234420000000150503412195860389_" gradientUnits="userSpaceOnUse" x1="2883.8555" y1="1943.5516" x2="3618.7075" y2="1148.5764">
				<stop  offset="0" style="stop-color:#FDF53F"/>
				<stop  offset="1" style="stop-color:#D93C65"/>
			</linearGradient>
			<path style="fill:url(#SVGID_00000055697810525295234420000000150503412195860389_);" d="M2853.393,1663.61
				c25.829-7.743,101.034-22.039,172.567,43.974c12.132,11.196,17.09,28.208,12.763,44.139
				c-19.213,70.735-69.906,279.716-25.457,370.139c0,0-78.329,86.347-163.783,16.753c0,0-38.341-167.103-88.56-240.461
				c-34.671-50.646,55.285-190.184,78.045-223.895C2842.416,1669.156,2847.494,1665.379,2853.393,1663.61z"/>
			
				<linearGradient id="SVGID_00000144309280916001848470000018333909971122203562_" gradientUnits="userSpaceOnUse" x1="2149.21" y1="348.0407" x2="2169.8833" y2="201.26" gradientTransform="matrix(0.9602 0.2794 -0.2794 0.9602 897.5138 797.6744)">
				<stop  offset="0" style="stop-color:#F9B776"/>
				<stop  offset="1" style="stop-color:#F47960"/>
			</linearGradient>
			<path style="fill:url(#SVGID_00000144309280916001848470000018333909971122203562_);" d="M2924.709,1523.079
				c0,0,38.199,108.049,41.073,155.716c0,0-42.219,19.197-82-13.205c0,0-4.174-107.923-10.206-127.248L2924.709,1523.079z"/>
			
				<linearGradient id="SVGID_00000107550102038388477070000006240891786406607505_" gradientUnits="userSpaceOnUse" x1="2054.4316" y1="33.5316" x2="2247.7319" y2="255.7751" gradientTransform="matrix(0.9602 0.2794 -0.2794 0.9602 897.5138 797.6744)">
				<stop  offset="0" style="stop-color:#F9B776"/>
				<stop  offset="1" style="stop-color:#F47960"/>
			</linearGradient>
			<path style="fill:url(#SVGID_00000107550102038388477070000006240891786406607505_);" d="M2871.65,1375.758
				c0,0-99.912,139.822-40.187,180.434c59.724,40.613,130.848-58.751,130.848-58.751s23.183-76.53-1.058-102.491
				C2937.011,1368.988,2871.65,1375.758,2871.65,1375.758z"/>
			
				<linearGradient id="SVGID_00000105412807320665342880000013806216159294503308_" gradientUnits="userSpaceOnUse" x1="2395.1189" y1="-285.8225" x2="2141.3665" y2="15.6953" gradientTransform="matrix(0.9602 0.2794 -0.2794 0.9602 897.5138 797.6744)">
				<stop  offset="0" style="stop-color:#2B3582"/>
				<stop  offset="1" style="stop-color:#150E42"/>
			</linearGradient>
			<path style="fill:url(#SVGID_00000105412807320665342880000013806216159294503308_);" d="M2917.896,1342.344
				c0,0-45.899,10.876-52.332,31.643c-6.433,20.768,65.09,40.026,85.129,40.968l16.147,83.804c0,0,47.734-78.836,28.825-124.366
				C2976.758,1328.862,2917.896,1342.344,2917.896,1342.344z"/>
			
				<linearGradient id="SVGID_00000148633149319218883260000008969566278200835738_" gradientUnits="userSpaceOnUse" x1="2102.7256" y1="-8.4779" x2="2296.0249" y2="213.7643" gradientTransform="matrix(0.9602 0.2794 -0.2794 0.9602 897.5138 797.6744)">
				<stop  offset="0" style="stop-color:#F9B776"/>
				<stop  offset="1" style="stop-color:#F47960"/>
			</linearGradient>
			<path style="fill:url(#SVGID_00000148633149319218883260000008969566278200835738_);" d="M2942.942,1487.152
				c0,0,38.889-45.038,54.357-15.676c15.468,29.361-35.004,51.405-52.476,36.99L2942.942,1487.152z"/>
			
				<linearGradient id="SVGID_00000078743805119091546300000012237191440001967763_" gradientUnits="userSpaceOnUse" x1="-3234.0728" y1="3327.8909" x2="-2772.9014" y2="2513.8245" gradientTransform="matrix(-1 -0.0095 -0.0095 1 3.0037 56.9446)">
				<stop  offset="0" style="stop-color:#F9B776"/>
				<stop  offset="1" style="stop-color:#F47960"/>
			</linearGradient>
			<path style="fill:url(#SVGID_00000078743805119091546300000012237191440001967763_);" d="M2749.726,2489.466
				c0.294,7.586-13.025,67.758-20.274,99.854c-2.917,12.913-0.885,26.429,5.69,37.92l251.037,422.507
				c3.037,5.111,5.247,10.647,6.591,16.437c4.6,19.828,14.142,68.419,9.161,112.625l-12.987,26.972l56.165-12.753l12.22-150.83
				l-15.9-9.695c-13.736-8.375-24.432-20.896-30.556-35.773c-22.699-55.139-79.069-195.495-93.599-263.897
				c-16.513-77.739-102.84-140.881-102.84-140.881l15.166-35.856L2749.726,2489.466z"/>
			
				<linearGradient id="SVGID_00000123439292177372411800000004545389272889177520_" gradientUnits="userSpaceOnUse" x1="-3133.5405" y1="3040.072" x2="-2998.7393" y2="3040.072" gradientTransform="matrix(-1 -0.0095 -0.0095 1 3.0037 56.9446)">
				<stop  offset="0" style="stop-color:#2B3582"/>
				<stop  offset="1" style="stop-color:#150E42"/>
			</linearGradient>
			<path style="fill:url(#SVGID_00000123439292177372411800000004545389272889177520_);" d="M3107.527,3141.127
				c0,0-30.33-48.085-33.898-66.803c-3.568-18.718-13.502-51.771-32.201-41.82c0,0-8.812,90.926-5.774,126.454
				c3.038,35.528-40.163,34.386-40.163,34.386s-11.906,1.674-20.625,10.391c-6.021,6.02-1.715,16.463,6.781,17.01
				c14.136,0.911,36.593,1.15,60.171-3.406c8.24-1.593,14.349-8.604,14.848-16.982l6.224-104.648l38.259,48.309L3107.527,3141.127z"
				/>
			
				<linearGradient id="SVGID_00000084521049279639222060000010747082184584617908_" gradientUnits="userSpaceOnUse" x1="-2711.4526" y1="2725.6655" x2="-3401.1514" y2="2946.209" gradientTransform="matrix(-1 -0.0095 -0.0095 1 3.0037 56.9446)">
				<stop  offset="0" style="stop-color:#F9B776"/>
				<stop  offset="1" style="stop-color:#F47960"/>
			</linearGradient>
			<path style="fill:url(#SVGID_00000084521049279639222060000010747082184584617908_);" d="M2899.692,2556.766
				c0,0,8.854,377.93,10.053,431.605c1.199,53.675-8.476,172.626-62.284,208.181l23.414,17.335c0,0,29.261-24.87,57.848-72.734
				c32.113-53.769,41.824-63.593,41.824-63.593l-10.656-21.823c-4.665-9.554-6.036-20.362-3.888-30.775
				c11.611-56.278,50.403-243.468,60.984-283.78c12.491-47.585,13.379-111.132-30.076-164.324
				C2943.455,2523.667,2899.692,2556.766,2899.692,2556.766z"/>
			
				<linearGradient id="SVGID_00000071561027320152858940000007027132543513633409_" gradientUnits="userSpaceOnUse" x1="-3008.562" y1="3064.4185" x2="-2847.8655" y2="3064.4185" gradientTransform="matrix(-1 -0.0095 -0.0095 1 3.0037 56.9446)">
				<stop  offset="0" style="stop-color:#2B3582"/>
				<stop  offset="1" style="stop-color:#150E42"/>
			</linearGradient>
			<path style="fill:url(#SVGID_00000071561027320152858940000007027132543513633409_);" d="M2949.381,3230.921
				c1.669,0.016,3.088-1.179,3.323-2.833c1.792-12.599,9.245-63.113,15.346-76.192c6.988-14.98,29.812-78.027-0.013-83.379
				c0,0-74.146,108.328-88.379,122.933c-14.234,14.606-32.197,5.103-32.197,5.103s-13.868,4.097-24.326,17.462
				c-4.977,6.361-0.341,15.698,7.736,15.775l49.942,0.476c14.504,0.138,27.55-8.673,32.941-22.138
				c8.791-21.957,23.893-54.165,41.493-68.453l-9.146,87.571C2945.897,3229.198,2947.418,3230.902,2949.381,3230.921z"/>
			
				<linearGradient id="SVGID_00000046331200056942215870000013963683744934083457_" gradientUnits="userSpaceOnUse" x1="4073.0405" y1="752.2581" x2="2529.698" y2="2916.9434">
				<stop  offset="0" style="stop-color:#53D8FF"/>
				<stop  offset="1" style="stop-color:#3840F7"/>
			</linearGradient>
			<path style="fill:url(#SVGID_00000046331200056942215870000013963683744934083457_);" d="M2837.663,2097.867
				c0,0,11.254,35.872-6.035,94.955l-107.254,374.538c-1.685,5.885,1.491,12.045,7.252,14.112
				c32.082,11.514,137.545,44.059,281.512,34.135c7.249-0.5,13.326-5.632,14.903-12.725c9.486-42.698,41.852-188.382,48.516-218.315
				c25.392-114.059,53.745-237.063-70.984-311.439C2948.09,2097.748,2894.476,2112.26,2837.663,2097.867z"/>
			
				<linearGradient id="SVGID_00000142884964071291720010000006649182748379903622_" gradientUnits="userSpaceOnUse" x1="-3059.3801" y1="1064.2438" x2="-2294.3516" y2="189.1637" gradientTransform="matrix(-0.9922 -0.1247 -0.1247 0.9922 259.1095 715.4178)">
				<stop  offset="0" style="stop-color:#F9B776"/>
				<stop  offset="1" style="stop-color:#F47960"/>
			</linearGradient>
			<path style="fill:url(#SVGID_00000142884964071291720010000006649182748379903622_);" d="M3036.196,1721.699
				c0,0,122.031,101.414,152.316,239.994c30.284,138.579-178.32,153.308-178.32,153.308s-28.319-31.623-61.939-20.345
				c-33.62,11.278-2.603-55.19,36.734-55.016c39.336,0.175,21.114,31.279,76.76,6.073c54.207-24.554,87.712-100.493-50.594-215.606
				c-8.017-6.673-14.414-15.18-18.266-24.873C2966.018,1737.597,2987.329,1693.261,3036.196,1721.699z"/>
		</g>
	</g>
</g>
</svg>
